<svg height="496pt" viewBox="0 0 496 496" width="496pt" xmlns="http://www.w3.org/2000/svg"><path d="m72 206.398438c-2.558594 1.042968-5.359375 1.601562-8.160156 1.601562h-1.839844c-6.078125 0-11.601562-2.480469-15.601562-6.398438-3.917969-4-6.398438-9.523437-6.398438-15.601562 0-6.320312 2.71875-12.398438 7.519531-16.558594l172.402344-150.882812c7.839844-6.796875 17.757813-10.558594 28.078125-10.558594s20.238281 3.761719 28.078125 10.558594l172.402344 150.882812c4.800781 4.160156 7.519531 10.238282 7.519531 16.558594 0 12.160156-9.839844 22-22 22h-1.839844c-2.800781 0-5.601562-.558594-8.160156-1.601562-2.238281-.878907-4.320312-2.160157-6.160156-3.757813l-169.839844-146.640625-169.839844 146.640625c-1.839844 1.597656-3.921875 2.878906-6.160156 3.757813zm0 0" fill="#ff826e"/><path d="m72 384v-177.601562c2.238281-.878907 4.320312-2.160157 6.160156-3.757813l169.839844-146.640625 169.839844 146.640625c1.839844 1.597656 3.921875 2.878906 6.160156 3.757813v177.601562zm0 0" fill="#ccd1d9"/><g fill="#d3a06c"><path d="m472 376v80h-32v-80c0-4.398438 1.761719-8.398438 4.71875-11.28125 2.882812-2.957031 6.882812-4.71875 11.28125-4.71875 8.800781 0 16 7.199219 16 16zm0 0"/><path d="m440 376v80h-32v-80c0-4.398438 1.761719-8.398438 4.71875-11.28125 2.882812-2.957031 6.882812-4.71875 11.28125-4.71875 8.800781 0 16 7.199219 16 16zm0 0"/><path d="m408 376v80h-32v-80c0-4.398438 1.761719-8.398438 4.71875-11.28125 2.882812-2.957031 6.882812-4.71875 11.28125-4.71875 8.800781 0 16 7.199219 16 16zm0 0"/><path d="m376 376v80h-32v-80c0-8.800781 7.199219-16 16-16 4.398438 0 8.398438 1.761719 11.28125 4.71875 2.957031 2.882812 4.71875 6.882812 4.71875 11.28125zm0 0"/><path d="m56 376v80h-32v-80c0-8.800781 7.199219-16 16-16 4.398438 0 8.398438 1.761719 11.28125 4.71875 2.957031 2.882812 4.71875 6.882812 4.71875 11.28125zm0 0"/><path d="m152 424v32h-32v-80c0-4.398438 1.761719-8.398438 4.71875-11.28125 2.882812-2.957031 6.882812-4.71875 11.28125-4.71875 8.800781 0 16 7.199219 16 16zm0 0"/><path d="m120 376v80h-32v-80c0-8.800781 7.199219-16 16-16 4.398438 0 8.398438 1.761719 11.28125 4.71875 2.957031 2.882812 4.71875 6.882812 4.71875 11.28125zm0 0"/><path d="m88 376v80h-32v-80c0-8.800781 7.199219-16 16-16 4.398438 0 8.398438 1.761719 11.28125 4.71875 2.957031 2.882812 4.71875 6.882812 4.71875 11.28125zm0 0"/></g><path d="m344 456v16c0 8.800781-7.199219 16-16 16h-160c-8.800781 0-16-7.199219-16-16v-48h192zm0 0" fill="#838f9b"/><path d="m344 200v32h-192v-32c0-8.800781 7.199219-16 16-16h160c8.800781 0 16 7.199219 16 16zm0 0" fill="#838f9b"/><path d="m344 376v48h-192v-192h192zm0 0" fill="#69d6f4"/><path d="m312 328c0 35.347656-28.652344 64-64 64s-64-28.652344-64-64 28.652344-64 64-64 64 28.652344 64 64zm0 0" fill="#e6e9ed"/><path d="m275.039062 308.960938c3.039063 3.039062 4.960938 7.359374 4.960938 12 0 4.480468-1.761719 8.800781-4.960938 12l-27.039062 27.039062-27.039062-27.039062c-3.199219-3.199219-4.960938-7.519532-4.960938-12 0-4.640626 1.921875-8.960938 4.960938-12 3.039062-3.039063 7.359374-4.960938 12-4.960938 4.480468 0 8.800781 1.761719 12 4.960938l3.039062 3.039062 3.039062-3.039062c3.199219-3.199219 7.519532-4.960938 12-4.960938 4.640626 0 8.960938 1.921875 12 4.960938zm0 0" fill="#ff826e"/><path d="m216 448h64v16h-64zm0 0"/><path d="m248 371.3125 32.6875-32.6875c4.648438-4.648438 7.3125-11.082031 7.3125-17.65625 0-13.769531-11.199219-24.96875-24.96875-24.96875-5.414062 0-10.726562 1.808594-15.03125 5.03125-4.304688-3.222656-9.617188-5.03125-15.03125-5.03125-13.769531 0-24.96875 11.199219-24.96875 24.96875 0 6.574219 2.664062 13.007812 7.3125 17.65625zm-15.03125-59.3125c2.359375 0 4.671875.953125 6.34375 2.625l8.6875 8.6875 8.6875-8.6875c1.671875-1.671875 3.984375-2.625 6.34375-2.625 4.945312 0 8.96875 4.023438 8.96875 8.96875 0 2.359375-.953125 4.671875-2.625 6.34375l-21.375 21.375-21.375-21.375c-1.671875-1.671875-2.625-3.984375-2.625-6.34375 0-4.945312 4.023438-8.96875 8.96875-8.96875zm0 0"/><path d="m248 256c-16.097656 0-31.34375 5.238281-44.113281 15.167969l9.816406 12.640625c9.9375-7.730469 21.800781-11.808594 34.296875-11.808594 30.871094 0 56 25.128906 56 56 0 12.496094-4.078125 24.359375-11.808594 34.296875l12.640625 9.816406c9.929688-12.769531 15.167969-28.015625 15.167969-44.113281 0-39.703125-32.296875-72-72-72zm0 0"/><path d="m248 384c-30.871094 0-56-25.128906-56-56 0-12.496094 4.078125-24.359375 11.808594-34.296875l-12.640625-9.816406c-9.929688 12.769531-15.167969 28.015625-15.167969 44.113281 0 39.703125 32.296875 72 72 72 16.097656 0 31.34375-5.238281 44.113281-15.167969l-9.816406-12.640625c-9.9375 7.730469-21.800781 11.808594-34.296875 11.808594zm0 0"/><path d="m496 448h-16v-72c0-13.230469-10.769531-24-24-24-6.167969 0-11.742188 2.40625-16 6.238281-2.3125-2.085937-5.007812-3.703125-8-4.765625v-137.488281c.0625 0 .128906.015625.183594.015625h1.800781c16.542969 0 30.015625-13.472656 30.015625-30.015625 0-8.648437-3.734375-16.878906-10.246094-22.585937l-172.441406-150.878907c-9.214844-8.070312-21.046875-12.519531-33.3125-12.519531s-24.097656 4.449219-33.304688 12.511719l-172.457031 150.894531c-6.503906 5.699219-10.238281 13.929688-10.238281 22.578125 0 16.542969 13.472656 30.015625 30.015625 30.015625h1.800781c.054688 0 .121094-.015625.183594-.015625v137.488281c-2.992188 1.0625-5.6875 2.6875-8 4.765625-4.257812-3.832031-9.832031-6.238281-16-6.238281-13.230469 0-24 10.769531-24 24v72h-16v16h144v8c0 13.230469 10.769531 24 24 24h160c13.230469 0 24-10.769531 24-24v-8h144zm-40-80c4.414062 0 8 3.585938 8 8v72h-16v-72c0-4.414062 3.585938-8 8-8zm-72 8c0-4.414062 3.585938-8 8-8s8 3.585938 8 8v72h-16zm32 0c0-4.414062 3.585938-8 8-8s8 3.585938 8 8v72h-16zm-353.984375-176c-7.726563 0-14.015625-6.289062-14.015625-14.015625 0-4.039063 1.742188-7.878906 4.785156-10.535156l172.445313-150.898438c12.59375-11.03125 32.929687-11.039062 45.539062.007813l172.4375 150.882812c3.050781 2.664063 4.792969 6.503906 4.792969 10.542969 0 7.726563-6.289062 14.015625-14.015625 14.015625h-1.800781c-3.367188 0-6.609375-1.207031-9.160156-3.40625l-175.023438-151.160156-175.039062 151.167968c-2.535157 2.191407-5.785157 3.398438-9.144532 3.398438zm21.410156 8.703125 164.574219-142.136719 164.566406 142.128906c1.074219.929688 2.25 1.703126 3.433594 2.464844v142.3125c-2.992188 1.0625-5.6875 2.6875-8 4.765625-4.257812-3.839843-9.832031-6.238281-16-6.238281s-11.742188 2.40625-16 6.238281c-4.257812-3.839843-9.832031-6.238281-16-6.238281-2.816406 0-5.488281.574219-8 1.472656v-153.472656c0-13.230469-10.769531-24-24-24h-160c-13.230469 0-24 10.769531-24 24v153.472656c-2.511719-.898437-5.183594-1.472656-8-1.472656-6.167969 0-11.742188 2.40625-16 6.238281-4.257812-3.839843-9.832031-6.238281-16-6.238281s-11.742188 2.40625-16 6.238281c-2.3125-2.085937-5.007812-3.703125-8-4.765625v-142.3125c1.175781-.753906 2.351562-1.527344 3.425781-2.457031zm252.574219 207.296875h-176v-176h176zm0-192h-176v-24c0-4.414062 3.585938-8 8-8h160c4.414062 0 8 3.585938 8 8zm-240 152c0-4.414062 3.585938-8 8-8s8 3.585938 8 8v72h-16zm-24-8c4.414062 0 8 3.585938 8 8v72h-16v-72c0-4.414062 3.585938-8 8-8zm-40 8c0-4.414062 3.585938-8 8-8s8 3.585938 8 8v72h-16zm96 72v-72c0-4.414062 3.585938-8 8-8s8 3.585938 8 8v72zm200 32h-160c-4.414062 0-8-3.585938-8-8v-40h176v40c0 4.414062-3.585938 8-8 8zm24-104c0-4.414062 3.585938-8 8-8s8 3.585938 8 8v72h-16zm0 0"/></svg>