<svg xmlns="http://www.w3.org/2000/svg" viewBox="0 0 525 346.33"><defs><style>.cls-1,.cls-4{fill:none}.cls-2{isolation:isolate}.cls-3,.cls-7{fill:#007eff}.cls-4{stroke:#dcf4ff;stroke-miterlimit:10;stroke-width:7px}.cls-5{clip-path:url(#clip-path)}.cls-6,.cls-7{mix-blend-mode:multiply}.cls-6{fill:#0064a8;opacity:.3}.cls-7{opacity:.25}.cls-8{fill:#50b0ff}.cls-9{fill:#dcf4ff}.cls-10{fill:#9fddff}.cls-11{fill:#fff}</style><clipPath id="clip-path"><path class="cls-1" d="M97.4 68.17h-.08v211a7.15 7.15 0 0 0 7.24 7.06h315.88a7.15 7.15 0 0 0 7.24-7.06V68.88H97.4z"/></clipPath></defs><title>CA3_ProductIllustrations_v6_FINAL</title><g class="cls-2"><g id="Layer_1" data-name="Layer 1"><path class="cls-3" d="M159.9 68.88L356 286.18h64.45a7.15 7.15 0 0 0 7.24-7.06V68.88z"/><path class="cls-3" d="M97.32 68.88v210.24a7.15 7.15 0 0 0 7.24 7.06H356L159.9 68.88z"/><path class="cls-4" d="M343.46 186.19l-.59-21.95-10.8-2a82 82 0 0 0-3.05-9.66l8.51-8.1L326 125.74l-11.58 4.1a72.38 72.38 0 0 0-6.65-6l3.75-12.47-19.32-10.4-8.75 10.21a72.8 72.8 0 0 0-7.81-1.83l-3.41-13.65-22.16.66-2.61 13.93c-2.53.57-4.79 1.28-7.25 2.06L230.15 102l-18.72 11.55 4.63 13.22a65.21 65.21 0 0 0-5.34 5.3L197 128l-10.39 19.32 10.15 8.55a46.92 46.92 0 0 0-2.25 7.93l-13 3.2.59 21.95 11.76 2.16a69.89 69.89 0 0 0 2.23 9.24l-8.65 8.38L199 227.45l10.23-3.45a76.86 76.86 0 0 0 7.37 7.62l-3 10.44 19.32 10.4 6.25-7.39a57.74 57.74 0 0 0 11.12 3l2.3 9.44 21.95-.6 1.72-8.89a76.33 76.33 0 0 0 11.63-3.22l6.43 6.78L313 240.07l-2.93-8.57a79.31 79.31 0 0 0 8.11-8.66l9.22 2.74 4.94-9.18M226.3 180a37 37 0 1 1 38.19 35.85A37 37 0 0 1 226.3 180z"/><path class="cls-5 cls-6" d="M372.15 211l-22.39-10.8-12.06-5.85 4.27 12.7 7.92 23.55 107.35 121.91c12.28 1.31 22-7.25 22.25-19.6z"/><path class="cls-7" d="M97.32 68.88v210.24a7.15 7.15 0 0 0 7.24 7.06H356L159.9 68.88z"/><path class="cls-8" d="M420.44 39H104.56c-4 0-7.24 2.24-7.24 5v25h330.36V44c0-2.75-3.24-5-7.24-5z"/><circle class="cls-9" cx="113.79" cy="54.13" r="5.62"/><circle class="cls-9" cx="130.66" cy="54.13" r="5.62"/><circle class="cls-9" cx="147.54" cy="54.13" r="5.62"/><path class="cls-10" d="M346.91 186.09l3.52 11.85 7.79-6.86-11.31-4.99z"/><path class="cls-11" d="M358.22 191.08l-7.79 6.86 6.53 21.98 22.23-19.58-20.97-9.26z"/><path class="cls-10" d="M379.19 200.34L357 219.92l97.5 110.7a20.83 20.83 0 0 0 22.25-19.59l-97.5-110.7z"/></g></g></svg>