<svg xmlns="http://www.w3.org/2000/svg" viewBox="0 0 525 346.33"><defs><style>.cls-1,.cls-12,.cls-3,.cls-4{fill:none}.cls-2{isolation:isolate}.cls-3{stroke:#50b0ff}.cls-12,.cls-3,.cls-4{stroke-miterlimit:10}.cls-3,.cls-4{stroke-width:7px}.cls-4{stroke:#9fddff}.cls-5{fill:#83cdff}.cls-11,.cls-15,.cls-5,.cls-9{mix-blend-mode:multiply}.cls-11,.cls-6{fill:#007eff}.cls-7{fill:#aee6ff}.cls-8{clip-path:url(#clip-path)}.cls-9{fill:#9fddff;opacity:.6}.cls-10{fill:#dcf4ff}.cls-12{stroke:#dcf4ff;stroke-width:2px}.cls-13{fill:#fff}.cls-14,.cls-15{fill:#50b0ff}.cls-15{opacity:.21}</style><clipPath id="clip-path"><path class="cls-1" d="M205.5 66.28a8 8 0 0 0-8 8v204.8h141.84V66.28z"/></clipPath></defs><title>CA3_ProductIllustrations_v6_FINAL</title><g class="cls-2"><g id="Layer_1" data-name="Layer 1"><path class="cls-3" d="M65.79 230.24h67.45"/><path class="cls-4" d="M148.14 230.24h12.71"/><path class="cls-3" d="M37.44 154.48H176M37.44 204.99h12.7"/><path class="cls-4" d="M102.44 204.74h43.02M65.79 205.23h12.7M37.44 179.73h63.78M125.17 179.73h12.71"/><path class="cls-5" d="M193.65 76.66a8 8 0 0 0-8 8v238a8 8 0 0 0 8 8H319.5a8 8 0 0 0 8-8v-246z"/><path class="cls-6" d="M339.34 66.28H205.5a8 8 0 0 0-8 8v23.53h141.84z"/><path class="cls-7" d="M197.51 97.81h141.83v181.27H197.51z"/><rect class="cls-8 cls-9" x="311.89" y="32.73" width="114.8" height="114.8" rx="2.25" ry="2.25"/><path class="cls-10" d="M197.51 279.08h75.53l-75.53-83.92v83.92zM339.34 279.08v-9.91L197.51 111.58v39.17l115.14 128.33h26.69z"/><path class="cls-1" d="M205.5 66.28a8 8 0 0 0-8 8v204.8l141.83 3.55V66.28z"/><path class="cls-11" d="M286 177.34a18.12 18.12 0 1 0-26.73 15.95l-9 24.38h35.25l-9-24.38a18.12 18.12 0 0 0 9.48-15.95z"/><path class="cls-12" d="M283.23 82.69h-29.61"/><path class="cls-6" d="M205.5 320.3h125.85a8 8 0 0 0 8-8v-33.22H197.51v33.23a8 8 0 0 0 7.99 7.99z"/><circle class="cls-13" cx="268.42" cy="299.62" r="12.14"/><path class="cls-14" d="M430 26H327.42a5.43 5.43 0 0 0-5.42 5.38V134a5.43 5.43 0 0 0 5.43 5.42H430a5.42 5.42 0 0 0 5.42-5.42V31.38A5.43 5.43 0 0 0 430 26z"/><path class="cls-10" d="M356.85 102.15a33 33 0 0 0 3 3.12l-1.25 4.29 7.94 4.27 2.56-3a24.16 24.16 0 0 0 4.57 1.25l.95 3.87 9-.24.7-3.66a30.75 30.75 0 0 0 4.78-1.32l2.64 2.79 7.69-4.75-1.2-3.51a33.63 33.63 0 0 0 3.33-3.56l3.79 1.12 4.27-7.93-2.89-2.7a22.08 22.08 0 0 0 1-4.49l4.22-1-.25-9-4.43-.83a34.37 34.37 0 0 0-1.26-4l3.5-3.33-4.74-7.69-4.77 1.63a29.85 29.85 0 0 0-2.69-2.48l1.54-5.13-7.93-4.27-3.6 4.2a28.1 28.1 0 0 0-3.2-.75l-1.4-5.59-9.1.27-1.07 5.72c-1 .23-2 .52-3 .84L365.44 52l-7.68 4.74 1.89 5.43a30 30 0 0 0-2.19 2.18l-5.62-1.66-4.27 7.93 4.17 3.51a19.36 19.36 0 0 0-.92 3.26l-5.34 1.32.24 9 4.83.89a28.3 28.3 0 0 0 .92 3.79l-3.56 3.44 4.75 7.69zm7-18.08a15.18 15.18 0 1 1 15.68 14.72 15.2 15.2 0 0 1-15.67-14.72z"/><path class="cls-15" d="M337.84 26h-10.42a5.43 5.43 0 0 0-5.42 5.38V134a5.43 5.43 0 0 0 5.43 5.42H430a5.42 5.42 0 0 0 5.41-5.3z"/></g></g></svg>