<svg xmlns="http://www.w3.org/2000/svg" viewBox="0 0 525 346.33"><defs><style>.cls-1{isolation:isolate}.cls-2{fill:#dcf4ff}.cls-3,.cls-4{fill:#aee6ff}.cls-3,.cls-9{mix-blend-mode:multiply}.cls-5{fill:none;stroke:#50b0ff;stroke-miterlimit:10;stroke-width:5px}.cls-6,.cls-9{fill:#007eff}.cls-7{fill:#fff}.cls-8{fill:#50b0ff}.cls-9{opacity:.25}</style></defs><title>CA3_ProductIllustrations_v6_FINAL</title><g class="cls-1"><g id="Layer_1" data-name="Layer 1"><rect class="cls-2" x="72.15" y="88.24" width="182.1" height="182.1" rx="2.25" ry="2.25"/><rect class="cls-3" x="101.84" y="117.93" width="182.1" height="182.1" rx="2.25" ry="2.25"/><path class="cls-4" d="M348.5 28.12h40.58v302.56H348.5z"/><path class="cls-5" d="M368.79 46.38h20.29M368.79 90.72h20.29M368.79 135.06h20.29M368.79 179.4h20.29M368.79 223.74h20.29M368.79 268.09h20.29M368.79 312.43h20.29M389.08 61.16h-14.32M389.08 75.94h-14.32M389.08 105.5h-14.32M389.08 120.28h-14.32M389.08 149.84h-14.32M389.08 164.62h-14.32M389.08 194.18h-14.32M389.08 208.96h-14.32M389.08 238.52h-14.32M389.08 253.3h-14.32M389.08 282.87h-14.32M389.08 297.65h-14.32"/><path class="cls-6" d="M306.85 148.58H142.16a8.7 8.7 0 0 0-8.7 8.71V322a8.7 8.7 0 0 0 8.7 8.71h164.69a8.71 8.71 0 0 0 8.71-8.71V157.29a8.71 8.71 0 0 0-8.71-8.71z"/><path class="cls-7" d="M189.4 270.86a51 51 0 0 0 4.85 5l-2 6.89 12.75 6.86 4.12-4.87a37.86 37.86 0 0 0 7.33 2L218 293l14.46-.39 1.13-5.86a50.45 50.45 0 0 0 7.67-2.12l4.24 4.47 12.34-7.62-1.93-5.64a53 53 0 0 0 5.35-5.71l6.07 1.81 6.86-12.73-4.65-4.35a34.93 34.93 0 0 0 1.6-7.2l6.76-1.69-.39-14.46-7.12-1.33a52.87 52.87 0 0 0-2-6.37l5.62-5.34-7.62-12.34-7.63 2.71a48.38 48.38 0 0 0-4.38-4l2.47-8.22-12.74-6.86-5.76 6.74a47.68 47.68 0 0 0-5.15-1.21l-2.23-9-14.6.43-1.72 9.18c-1.67.38-3.16.85-4.79 1.36l-6.62-6.84-12.39 7.58 3.05 8.72a41.45 41.45 0 0 0-3.52 3.49l-9-2.66-6.85 12.73 6.69 5.63a31.63 31.63 0 0 0-1.48 5.23l-8.56 2.11.39 14.46 7.75 1.43a46.19 46.19 0 0 0 1.47 6.09l-5.7 5.52 7.61 12.34zm11.25-29a24.36 24.36 0 1 1 25.16 23.62 24.37 24.37 0 0 1-25.16-23.63z"/><path class="cls-8" d="M438.31 112.64l-5.09 12.12h10.18l-5.09-12.12z"/><path class="cls-4" d="M443.39 124.76h-10.17l-9.44 22.47h29.05l-9.44-22.47z"/><path class="cls-8" d="M452.83 147.23h-29.05v176c8.19 9.87 20.88 9.87 29.08 0v-176z"/><path class="cls-9" d="M158.89 148.58h-16.73a8.7 8.7 0 0 0-8.7 8.71V322a8.7 8.7 0 0 0 8.7 8.71h164.69a8.7 8.7 0 0 0 8.69-8.51z"/></g></g></svg>