<?xml version="1.0" encoding="utf-8"?>
<svg id="master-artboard" viewBox="0 0 1400 1400" version="1.1" xmlns="http://www.w3.org/2000/svg" x="0px" y="0px" width="1400px" height="1400px" enable-background="new 0 0 1400 1400">
<g transform="matrix(1, 0, 0, 1, 1.4210854715202004e-14, 7.105427357601002e-15)">
		<g>
			<path d="M 1159.800048828125 857.5999755859375 L 1105.5 889.2000122070312 L 1050.800048828125 857.5999755859375 L 1105.0999755859375 826 Z" fill="#77D9DC"/>
		</g>
		<g>
			<path d="M 1159.800048828125 857.5999755859375 L 1159.300048828125 889.5999755859375 L 1104.9000244140625 921.2000122070312 L 1105.5 889.2000122070312 Z" fill="#4EAFAC"/>
		</g>
		<g>
			<path d="M 1105.5 889.2000122070312 L 1104.9000244140625 921.2000122070312 L 1050.199951171875 889.5999755859375 L 1050.800048828125 857.5999755859375 Z" fill="#58BFBF"/>
		</g>
	</g><g transform="matrix(1, 0, 0, 1, 2.842170943040401e-14, 1.4210854715202004e-14)">
			<path d="M 411.8999938964844 771.7000122070312 L 357.6000061035156 803.2999877929688 L 302.8999938964844 771.7000122070312 L 357.29998779296875 740.0999755859375 Z" fill="#FA6B5C"/>
		</g><path d="M 411.8999938964844 771.7000122070312 L 411.3999938964844 866.0999755859375 L 357.1000061035156 897.7000122070312 L 357.6000061035156 803.2999877929688 Z" fill="#D75D4C" transform="matrix(1, 0, 0, 1, 4.263256414560601e-14, 2.1316282072803006e-14)"/><path d="M 357.6000061035156 803.2999877929688 L 357.1000061035156 897.7000122070312 L 302.3999938964844 866.0999755859375 L 302.8999938964844 771.7000122070312 Z" fill="#BB5140" transform="matrix(1, 0, 0, 1, 4.263256414560601e-14, 2.1316282072803006e-14)"/><g transform="matrix(1, 0, 0, 1, 2.842170943040401e-14, 1.4210854715202004e-14)">
			<path d="M 417.5 1080.4000244140625 L 336 1127.699951171875 L 254.10000610351562 1080.4000244140625 L 335.5 1033.0999755859375 Z" fill="#FEDB59"/>
		</g><path d="M 417.5 1080.4000244140625 L 416.70001220703125 1104.0999755859375 L 335.20001220703125 1151.4000244140625 L 336 1127.699951171875 Z" fill="#B89030" transform="matrix(1, 0, 0, 1, 4.263256414560601e-14, 2.1316282072803006e-14)"/><path d="M 336 1127.699951171875 L 335.20001220703125 1151.4000244140625 L 253.3000030517578 1104.0999755859375 L 254.10000610351562 1080.4000244140625 Z" fill="#CBAF46" transform="matrix(1, 0, 0, 1, 4.263256414560601e-14, 2.1316282072803006e-14)"/><g transform="matrix(1, 0, 0, 1, 2.842170943040401e-14, 1.4210854715202004e-14)">
			<g>
				<g enable-background="new    ">
					<g>
						<path d="M 663.2000122070312 1109.9000244140625 L 573.2999877929688 1162.0999755859375 L 404 1064.4000244140625 L 493.8999938964844 1012.0999755859375 Z" fill="#F7F8F8"/>
					</g>
					<g>
						<path d="M 663.2000122070312 1109.9000244140625 L 663.2000122070312 1120.0999755859375 L 573.2999877929688 1172.300048828125 L 573.2999877929688 1162.0999755859375 Z" fill="#5678B5"/>
					</g>
					<g>
						<path d="M 573.2999877929688 1162.0999755859375 L 573.2999877929688 1172.300048828125 L 404 1074.5999755859375 L 404 1064.4000244140625 Z" fill="#91B9FF"/>
					</g>
				</g>
			</g>
			<g>
				<g>
					<path d="M 599.9000244140625 1093.5 L 596.4000244140625 1095.5 L 482.1000061035156 1029.5 L 485.70001220703125 1027.5 Z" fill="#91B9FF"/>
				</g>
				<g enable-background="new    ">
					<g>
						<path d="M 546.2999877929688 1085.4000244140625 L 542.7999877929688 1087.4000244140625 L 462.3999938964844 1041 L 465.8999938964844 1039 Z" fill="#91B9FF"/>
					</g>
					<g>
						<path d="M 607 1089.300048828125 L 603.5 1091.4000244140625 L 489.20001220703125 1025.4000244140625 L 492.70001220703125 1023.4000244140625 Z" fill="#91B9FF"/>
					</g>
					<g>
						<path d="M 539.2999877929688 1089.5 L 535.7999877929688 1091.5 L 455.3999938964844 1045.0999755859375 L 458.8999938964844 1043 Z" fill="#91B9FF"/>
					</g>
					<g>
						<path d="M 592.7999877929688 1097.5999755859375 L 589.2999877929688 1099.5999755859375 L 475 1033.699951171875 L 478.6000061035156 1031.5999755859375 Z" fill="#91B9FF"/>
					</g>
				</g>
			</g>
		</g><g enable-background="new    " transform="matrix(1, 0, 0, 1, 4.263256414560601e-14, 2.1316282072803006e-14)">
				<g>
					<path d="M 724.4000244140625 253.1999969482422 L 724.5 315.5 L 499.8999938964844 445.29998779296875 L 499.70001220703125 383 Z" fill="#F7F8F8"/>
				</g>
				<g>
					<path d="M 499.8999938964844 445.29998779296875 L 493.1000061035156 441.3999938964844 L 492.8999938964844 379.1000061035156 L 499.70001220703125 383 Z" fill="#FA6B5C"/>
				</g>
				<g>
					<path d="M 499.70001220703125 383 L 492.8999938964844 379.1000061035156 L 717.5999755859375 249.1999969482422 L 724.4000244140625 253.1999969482422 Z" fill="#FA6B5C"/>
				</g>
			</g><g transform="matrix(1, 0, 0, 1, 4.263256414560601e-14, 2.1316282072803006e-14)">
				<path d="M 706.5999755859375 297.79998779296875 L 706.5999755859375 303.20001220703125 L 517.7000122070312 412.20001220703125 L 517.7000122070312 406.79998779296875 Z" fill="#FA6B5C"/>
			</g><path d="M 706.5999755859375 310.79998779296875 L 706.5999755859375 316.20001220703125 L 517.7999877929688 425.20001220703125 L 517.7999877929688 419.79998779296875 Z" fill="#FA6B5C" transform="matrix(1, 0, 0, 1, 5.684341886080802e-14, 2.842170943040401e-14)"/><path d="M 706.5 275.3999938964844 L 706.5 284.79998779296875 L 517.7000122070312 393.79998779296875 L 517.7000122070312 384.3999938964844 Z" fill="#FA6B5C" transform="matrix(1, 0, 0, 1, 5.684341886080802e-14, 2.842170943040401e-14)"/><g enable-background="new    " transform="matrix(1, 0, 0, 1, 4.263256414560601e-14, 2.1316282072803006e-14)">
				<g>
					<path d="M 724.4000244140625 161.5 L 724.5 223.8000030517578 L 499.8999938964844 353.70001220703125 L 499.70001220703125 291.3999938964844 Z" fill="#F7F8F8"/>
				</g>
				<g>
					<path d="M 499.8999938964844 353.70001220703125 L 493.1000061035156 349.70001220703125 L 492.8999938964844 287.3999938964844 L 499.70001220703125 291.3999938964844 Z" fill="#FA6B5C"/>
				</g>
				<g>
					<path d="M 499.70001220703125 291.3999938964844 L 492.8999938964844 287.3999938964844 L 717.5999755859375 157.60000610351562 L 724.4000244140625 161.5 Z" fill="#FA6B5C"/>
				</g>
			</g><g transform="matrix(1, 0, 0, 1, 4.263256414560601e-14, 2.1316282072803006e-14)">
				<path d="M 706.5999755859375 206.10000610351562 L 706.5999755859375 211.5 L 517.7000122070312 320.5 L 517.7000122070312 315.1000061035156 Z" fill="#FA6B5C"/>
			</g><path d="M 706.5999755859375 219.1999969482422 L 706.5999755859375 224.60000610351562 L 517.7999877929688 333.6000061035156 L 517.7999877929688 328.20001220703125 Z" fill="#FA6B5C" transform="matrix(1, 0, 0, 1, 5.684341886080802e-14, 2.842170943040401e-14)"/><path d="M 706.5 183.6999969482422 L 706.5 193.10000610351562 L 517.7000122070312 302.1000061035156 L 517.7000122070312 292.79998779296875 Z" fill="#FA6B5C" transform="matrix(1, 0, 0, 1, 5.684341886080802e-14, 2.842170943040401e-14)"/><path fill="#325863" d="M431.7,597.6c0,0-6.8-0.7-11.8-2.5c-5-1.8-10.3-1.4-11.4,0c-1.1,1.4,5,11.1,14.3,13.2&#10;&#9;&#9;&#9;c9.3,2.1,9.3,2.1,9.3,2.1v2.9c0,0,4,1.1,8.4,0s5.8-5.4,5.8-5.4l1.2-5L431.7,597.6z" transform="matrix(1, 0, 0, 1, 2.842170943040401e-14, 1.4210854715202004e-14)"/><path d="M 656.9000244140625 542 L 656.0999755859375 827.2000122070312 L 571.7000122070312 778.5 L 572.5 493.20001220703125 Z" fill="#BB5140" transform="matrix(1, 0, 0, 1, 4.263256414560601e-14, 2.1316282072803006e-14)"/><path d="M 749.9000244140625 487.8999938964844 L 749.0999755859375 773.2000122070312 L 656.0999755859375 827.2000122070312 L 656.9000244140625 542 Z" fill="#D75D4C" transform="matrix(1, 0, 0, 1, 4.263256414560601e-14, 2.1316282072803006e-14)"/><path d="M 861.9000244140625 552.5999755859375 L 861.0999755859375 837.7999877929688 L 749.0999755859375 773.2000122070312 L 749.9000244140625 487.8999938964844 Z" fill="#BB5140" transform="matrix(1, 0, 0, 1, 4.263256414560601e-14, 2.1316282072803006e-14)"/><path d="M 937.2000122070312 606.5999755859375 L 853.2999877929688 655.4000244140625 L 852.5 940.5999755859375 L 936.4000244140625 891.9000244140625 L 1029.4000244140625 837.7999877929688 L 1030.199951171875 552.5999755859375 Z" fill="#D75D4C" transform="matrix(1, 0, 0, 1, 2.842170943040401e-14, 1.4210854715202004e-14)"/><path d="M 609.7000122070312 679.7000122070312 L 608.9000244140625 965 L 785.7999877929688 862.2000122070312 L 786.5999755859375 577 Z" fill="#B89030" transform="matrix(1, 0, 0, 1, 2.842170943040401e-14, 1.4210854715202004e-14)"/><path d="M 1030.199951171875 552.5999755859375 L 937.2000122070312 606.5999755859375 L 853.2999877929688 655.4000244140625 L 768.9000244140625 606.5999755859375 L 861.9000244140625 552.5999755859375 L 749.9000244140625 487.8999938964844 L 656.9000244140625 542 L 572.5 493.20001220703125 L 656.4000244140625 444.5 L 749.4000244140625 390.5 L 843 444.5 L 936.5999755859375 498.6000061035156 Z" fill="#FA6B5C" transform="matrix(1, 0, 0, 1, 4.263256414560601e-14, 2.1316282072803006e-14)"/><path d="M 853.2999877929688 655.4000244140625 L 852.5 940.5999755859375 L 768.0999755859375 891.9000244140625 L 768.9000244140625 606.5999755859375 Z" fill="#ED1C24" transform="matrix(1, 0, 0, 1, 4.263256414560601e-14, 2.1316282072803006e-14)"/><path d="M 786.5999755859375 577 L 609.7000122070312 679.7000122070312 L 525.2999877929688 631 L 431.70001220703125 577 L 515.5999755859375 528.2000122070312 L 618.4000244140625 587.5999755859375 L 711.4000244140625 533.5 Z" fill="#FEDB59" transform="matrix(1, 0, 0, 1, 4.263256414560601e-14, 2.1316282072803006e-14)"/><path d="M 525.2999877929688 631 L 431.70001220703125 577 L 430.8999938964844 862.2000122070312 L 524.5 916.2000122070312 L 608.9000244140625 965 L 609.7000122070312 679.7000122070312 Z" fill="#CBAF46" transform="matrix(1, 0, 0, 1, 2.842170943040401e-14, 1.4210854715202004e-14)"/><path d="M 853.2999877929688 655.4000244140625 L 769.5 704.0999755859375 L 685.0999755859375 655.4000244140625 L 768.9000244140625 606.5999755859375 Z" fill="#91B9FF" transform="matrix(1, 0, 0, 1, 4.263256414560601e-14, 2.1316282072803006e-14)"/><path d="M 853.2999877929688 655.4000244140625 L 852.5 940.5999755859375 L 768.7000122070312 989.2999877929688 L 769.5 704.0999755859375 Z" fill="#5678B5" transform="matrix(1, 0, 0, 1, 4.263256414560601e-14, 2.1316282072803006e-14)"/><path d="M 769.5 704.0999755859375 L 768.7000122070312 989.2999877929688 L 684.2999877929688 940.5999755859375 L 685.0999755859375 655.4000244140625 Z" fill="#668ED6" transform="matrix(1, 0, 0, 1, 4.263256414560601e-14, 2.1316282072803006e-14)"/><path fill="#F0C7AD" d="M501,808.7c0,0,3.2-4.3,4.9-7.7s2.7-5.1,3.4-4.8c0.7,0.3,0.7,2.4,0.7,2.4s2.2-1.9,3.4-3.3&#10;&#9;&#9;&#9;&#9;c1.2-1.4,2.4-2.8,2.4-2.8s1.9-0.5,3.9,3.9c2,4.4,1,9.1,0,10c-1,0.9-10.2,8.7-15.5,8.9C498.9,815.5,501,808.7,501,808.7z" transform="matrix(1, 0, 0, 1, 4.263256414560601e-14, 2.1316282072803006e-14)"/><path fill="#F0C7AD" d="M475.7,798.5c0,0,4.6-2.7,8.2-4c3.6-1.3,5.4-2.1,5.1-2.8s-2.3-1-2.3-1s2.2-2,3.7-3s3.1-2,3.1-2&#10;&#9;&#9;&#9;&#9;s0.7-1.8-3.4-4.4c-4.1-2.6-8.9-2.1-9.9-1.2s-9.9,9.1-10.7,14.3C468.7,799.6,475.7,798.5,475.7,798.5z" transform="matrix(1, 0, 0, 1, 4.263256414560601e-14, 2.1316282072803006e-14)"/><path fill="#7A4B20" d="M437.9,976c0,0,2.2,0.7,6.8-1c4.6-1.7,6.8-2.7,9.7-2.2c2.9,0.5,1.2,3.6,0,5.1c0,0-8,8.7-19.7,10.9&#10;&#9;&#9;&#9;&#9;c0,0,0.5,1-0.9,2.4c-1.4,1.4-14.1,3.7-14.8-2.6C420.1,988.8,436.7,981,437.9,976z" transform="matrix(1, 0, 0, 1, 4.263256414560601e-14, 2.1316282072803006e-14)"/><path fill="#7A4B20" d="M378.9,964.5c0,0,2.6-1.9,4.6-1.7c2,0.2,1.4,3.9,1.4,7.1s-4.9,9-7.7,11.1s-6.1,7.3-6.1,7.3&#10;&#9;&#9;&#9;&#9;s-5.4,6.8-10.5,2.9C360.5,991.2,378.5,971.8,378.9,964.5z" transform="matrix(1, 0, 0, 1, 4.263256414560601e-14, 2.1316282072803006e-14)"/><path fill="#4B4B4B" d="M440.1,926.4c-8.5-10.7-20.7-20.2-20.7-20.2l-4.3-1.2c0,0-12.7-1.8-16.5,2.4c-3.8-6.4-11.9-13.1-17.8-8.8&#10;&#9;&#9;&#9;&#9;c0,0-6.8,26.7-9.9,34.7s-11.1,39.5-11.7,41.8c-0.7,2.4-2.4,8.3-1.9,11.6s3.2,4.6,3.2,4.6s4.4-0.2,9.2-5.4&#10;&#9;&#9;&#9;&#9;c4.8-5.3,9.2-13.9,9.2-13.9s2.6-12.8,4.8-17.9c2-4.6,13.4-28,16.3-37.2c6.9,11.3,25.3,28.7,25.3,28.7c-5.1,17-6.3,43.2-6.3,43.2&#10;&#9;&#9;&#9;&#9;c13.6,3.1,20.9-7.8,20.9-7.8s1-13.6,2.7-20.1c1.7-6.5,5.6-19.7,5.6-19.7S448.6,937.1,440.1,926.4z" transform="matrix(1, 0, 0, 1, 4.263256414560601e-14, 2.1316282072803006e-14)"/><path fill="#6E6E6E" d="M454.2,809.7l23.2-11l-5.8-11.2l-18.9,7.8C452.7,795.2,445.3,802.2,454.2,809.7z" transform="matrix(1, 0, 0, 1, 4.263256414560601e-14, 2.1316282072803006e-14)"/><path fill="#4B4B4B" d="M429.2,803.9c0,0-4.3-0.1-8.5,2.5s-24.3,17.9-33.7,51.9c-9.4,34-6.3,40.1-6.3,40.1s7,6.1,13.3,11.1&#10;&#9;&#9;&#9;&#9;c6.3,4.9,8.8,5.6,8.8,5.6s11.1-4.4,16.5-9c0,0-0.7-22.6,1.9-29.4c2.6-6.8,9.9-16.5,15-29.1c5.1-12.6,3.7-23.6,3.7-23.6&#10;&#9;&#9;&#9;&#9;S429.5,811.6,429.2,803.9z" transform="matrix(1, 0, 0, 1, 4.263256414560601e-14, 2.1316282072803006e-14)"/><path fill="#6E6E6E" d="M436.7,828.9c0,0-5.4,0.2-8,6.8c-2.6,6.6,1,10.9,5.4,11.9c4.4,1,27-5.3,45.7-14.3&#10;&#9;&#9;&#9;&#9;c18.7-9,27.4-17.3,27.4-17.3l-5.6-10.9C501.6,805.1,463.2,826.6,436.7,828.9z" transform="matrix(1, 0, 0, 1, 4.263256414560601e-14, 2.1316282072803006e-14)"/><path fill="#F0C7AD" d="M459.1,791.6v16.5c0,0-1.4,9.4-12.5,9.1l-6.7,6.8c0,0-9-4.7-9.8-12.5c-0.8-7.8,10.3-19.4,10.3-19.4&#10;&#9;&#9;&#9;&#9;S455,785.1,459.1,791.6z" transform="matrix(1, 0, 0, 1, 4.263256414560601e-14, 2.1316282072803006e-14)"/><path fill="#4C3829" d="M430.1,811.6c-3.4-3.8-4.4-11.5-4-16.8s3.7-14.4,13.3-16.8c9.6-2.4,15.5,3.4,17.2,5.7&#10;&#9;&#9;&#9;&#9;c1.7,2.4,5.3,3,5.3,3c0.3,1.1,0.3,4.2-2.9,4.8c-3.2,0.6-7.8,4-7.8,4s-1.6,1.4-2.8,2.7c0,0-1.7,2.4-1.3,4.9&#10;&#9;&#9;&#9;&#9;C447.1,803.1,441.2,812,430.1,811.6z" transform="matrix(1, 0, 0, 1, 4.263256414560601e-14, 2.1316282072803006e-14)"/><path d="M 1074.0999755859375 914.5 L 1026 941.9000244140625 L 1026 932.0999755859375 L 1075 904.7000122070312 Z" fill="#EDA76A" transform="matrix(1, 0, 0, 1, 4.263256414560601e-14, 2.1316282072803006e-14)"/><path d="M 1031.9000244140625 783.9000244140625 L 983.7999877929688 811.2999877929688 L 983.7999877929688 801.5999755859375 L 1032.800048828125 774.0999755859375 Z" fill="#EDA76A" transform="matrix(1, 0, 0, 1, 4.263256414560601e-14, 2.1316282072803006e-14)"/><path d="M 1047.5 827.4000244140625 L 999.4000244140625 854.7999877929688 L 999.4000244140625 845.0999755859375 L 1048.4000244140625 817.5999755859375 Z" fill="#EDA76A" transform="matrix(1, 0, 0, 1, 4.263256414560601e-14, 2.1316282072803006e-14)"/><path d="M 1086.9000244140625 950.5 L 1038.9000244140625 977.9000244140625 L 1038.9000244140625 968.0999755859375 L 1087.9000244140625 940.5999755859375 Z" fill="#EDA76A" transform="matrix(1, 0, 0, 1, 4.263256414560601e-14, 2.1316282072803006e-14)"/><path d="M 997.5 665.4000244140625 L 949.4000244140625 692.7999877929688 L 949.4000244140625 683.0999755859375 L 998.4000244140625 655.5999755859375 Z" fill="#EDA76A" transform="matrix(1, 0, 0, 1, 4.263256414560601e-14, 2.1316282072803006e-14)"/><path d="M 1009.4000244140625 705.2000122070312 L 961.4000244140625 732.5999755859375 L 961.4000244140625 722.9000244140625 L 1010.4000244140625 695.4000244140625 Z" fill="#EDA76A" transform="matrix(1, 0, 0, 1, 4.263256414560601e-14, 2.1316282072803006e-14)"/><path d="M 1063.5 873.2999877929688 L 1015.4000244140625 900.7999877929688 L 1015.4000244140625 891 L 1064.4000244140625 863.5 Z" fill="#EDA76A" transform="matrix(1, 0, 0, 1, 4.263256414560601e-14, 2.1316282072803006e-14)"/><path d="M 982.9000244140625 582.5 L 976.5 578 L 967.5 583.2999877929688 L 973.9000244140625 587.7000122070312 Z" fill="#F7B07C" transform="matrix(1, 0, 0, 1, 5.684341886080802e-14, 2.842170943040401e-14)"/><path d="M 967.5 583.2999877929688 L 1088.0999755859375 968.9000244140625 L 1094.199951171875 971 L 989.0999755859375 620.5999755859375 L 973.9000244140625 587.7000122070312 Z" fill="#EDA76A" transform="matrix(1, 0, 0, 1, 5.684341886080802e-14, 2.842170943040401e-14)"/><path d="M 1094.199951171875 971 L 973.9000244140625 587.7000122070312 L 982.9000244140625 582.5 L 1103.199951171875 965.7999877929688 Z" fill="#AF7C44" transform="matrix(1, 0, 0, 1, 5.684341886080802e-14, 2.842170943040401e-14)"/><path d="M 1004.7000122070312 663.7000122070312 L 949.4000244140625 695.2999877929688 L 949.4000244140625 685.5999755859375 L 998.4000244140625 658.0999755859375 Z" fill="#AF7C44" transform="matrix(1, 0, 0, 1, 4.263256414560601e-14, 2.1316282072803006e-14)"/><path d="M 1016.7000122070312 703.5 L 961.4000244140625 735.0999755859375 L 961.4000244140625 725.4000244140625 L 1010.4000244140625 697.9000244140625 Z" fill="#AF7C44" transform="matrix(1, 0, 0, 1, 4.263256414560601e-14, 2.1316282072803006e-14)"/><path d="M 1019.7999877929688 742.4000244140625 L 971.7999877929688 769.9000244140625 L 971.7999877929688 760.0999755859375 L 1020.7999877929688 732.5999755859375 Z" fill="#EDA76A" transform="matrix(1, 0, 0, 1, 4.263256414560601e-14, 2.1316282072803006e-14)"/><path d="M 1027.0999755859375 740.7999877929688 L 971.7999877929688 772.4000244140625 L 971.7999877929688 762.5999755859375 L 1020.7999877929688 735.0999755859375 Z" fill="#AF7C44" transform="matrix(1, 0, 0, 1, 4.263256414560601e-14, 2.1316282072803006e-14)"/><path d="M 1039.0999755859375 782.2999877929688 L 983.7999877929688 813.9000244140625 L 983.7999877929688 804.0999755859375 L 1032.800048828125 776.5999755859375 Z" fill="#AF7C44" transform="matrix(1, 0, 0, 1, 4.263256414560601e-14, 2.1316282072803006e-14)"/><path d="M 1054.800048828125 825.7999877929688 L 999.4000244140625 857.4000244140625 L 999.4000244140625 847.5999755859375 L 1048.4000244140625 820.0999755859375 Z" fill="#AF7C44" transform="matrix(1, 0, 0, 1, 4.263256414560601e-14, 2.1316282072803006e-14)"/><path d="M 1070.800048828125 871.7000122070312 L 1015.4000244140625 903.2999877929688 L 1015.4000244140625 893.5 L 1064.4000244140625 866 Z" fill="#AF7C44" transform="matrix(1, 0, 0, 1, 4.263256414560601e-14, 2.1316282072803006e-14)"/><path d="M 1081.300048828125 912.7999877929688 L 1026 944.4000244140625 L 1026 934.7000122070312 L 1075 907.2000122070312 Z" fill="#AF7C44" transform="matrix(1, 0, 0, 1, 4.263256414560601e-14, 2.1316282072803006e-14)"/><path d="M 1094.199951171875 948.7999877929688 L 1038.9000244140625 980.4000244140625 L 1038.9000244140625 970.7000122070312 L 1087.9000244140625 943.2000122070312 Z" fill="#AF7C44" transform="matrix(1, 0, 0, 1, 4.263256414560601e-14, 2.1316282072803006e-14)"/><path d="M 929.9000244140625 611.7000122070312 L 923.5 607.2000122070312 L 914.5 612.5 L 920.9000244140625 616.9000244140625 Z" fill="#F7B07C" transform="matrix(1, 0, 0, 1, 5.684341886080802e-14, 2.842170943040401e-14)"/><path d="M 914.5 612.5 L 1035 998.0999755859375 L 1041.199951171875 1000.2999877929688 L 936.0999755859375 649.7999877929688 L 920.9000244140625 616.9000244140625 Z" fill="#EDA76A" transform="matrix(1, 0, 0, 1, 5.684341886080802e-14, 2.842170943040401e-14)"/><path d="M 1041.199951171875 1000.2999877929688 L 920.9000244140625 616.9000244140625 L 929.9000244140625 611.7000122070312 L 1050.199951171875 995.0999755859375 Z" fill="#AF7C44" transform="matrix(1, 0, 0, 1, 5.684341886080802e-14, 2.842170943040401e-14)"/><path fill="#DE600C" d="M1042.4,863.8c0,0,5.3,2.3,6.3,5.3s0.5,6.8-1.5,8.3s-7.3,2-11.3,4.5s-7.5,7.3-10.8,8&#10;&#9;&#9;&#9;&#9;c-3.3,0.8-9.8-1.8-8.3-5c1.5-3.3,10-10,10-10L1042.4,863.8z" transform="matrix(1, 0, 0, 1, 4.263256414560601e-14, 2.1316282072803006e-14)"/><path fill="#DE600C" d="M1073.3,920c0,0,0.3,3.5,0,7.5c-0.3,4-2.8,5-8,3.8c-5.3-1.3-5-6.5-10.8-8.8c-5.8-2.3-9-0.5-10.8-2.5&#10;&#9;&#9;&#9;&#9;c-1.8-2,0.8-4.5,5.5-6.3s13.5,0,13.5,0L1073.3,920z" transform="matrix(1, 0, 0, 1, 4.263256414560601e-14, 2.1316282072803006e-14)"/><path fill="#0F5B78" d="M1011,796.1c11.5,0,34.6,4,34.6,4l16.8,10.5l21.1-3.5c0,0-1.3,15.6-5,27.3c-3.8,11.8-2.5,30.4-2,35.1&#10;&#9;&#9;&#9;&#9;c0.5,4.8,0.3,37.9-3.3,50.4c0,0-6.3,3-11,0s-5.5-5-5.5-5s0.8-28.4,0-36.9c-0.6-6.6-4.7-27.9-5.9-42.6&#10;&#9;&#9;&#9;&#9;c-12.6,0.2-25.3-9.6-25.3-9.6s11.1,22.3,13.5,26.8c2.3,4.5,5.4,11.5,5.4,11.5s-9,9.6-18.8,10.9c0,0-10.8-24.6-16.8-35.4&#10;&#9;&#9;&#9;&#9;c-6-10.8-14.3-25.6-14.1-32.6C995,800.1,999.5,796.1,1011,796.1z" transform="matrix(1, 0, 0, 1, 4.263256414560601e-14, 2.1316282072803006e-14)"/><path fill="#F0C6AD" d="M1031.1,731.8l-2.4-2.5c0,0-8.2-0.7-11.1,0c-2.9,0.7-11.8,3.4-12,7.9s2.4,2.4,6.9,0s5.5-0.7,5.9,0&#10;&#9;&#9;&#9;&#9;c0.3,0.7,2.1,4.3,0,6.1c-2.1,1.8-2.8,1.1-3.7,3.6s2.7,0.8,6.2-2.7c3.6-3.4,7.8-6.3,7.8-6.3L1031.1,731.8z" transform="matrix(1, 0, 0, 1, 4.263256414560601e-14, 2.1316282072803006e-14)"/><path fill="#3CDE7A" d="M1048,724.3c0,0-16.6,2.3-19.6,4.5v9.8c0,0,15.4,0.8,19.6,3c4.2,2.3,7.2-8.7,7.2-8.7L1048,724.3z" transform="matrix(1, 0, 0, 1, 4.263256414560601e-14, 2.1316282072803006e-14)"/><path fill="#F0C6AD" d="M1049.7,702.4c0,0-7.2,4.1-8.7,7.2c-1.5,3,0,13.2,2.3,14.7c2.3,1.5,1.7,7.9,1.8,12.4c0,0,7.7,2.3,13.3,0&#10;&#9;&#9;&#9;&#9;c5.7-2.3,6.8-9.8,6.8-9.8L1049.7,702.4z" transform="matrix(1, 0, 0, 1, 4.263256414560601e-14, 2.1316282072803006e-14)"/><path fill="#3CDE7A" d="M1068.3,723.3c0,0,9,2,13.8,6.5c4.8,4.5,3.8,19.3,1.5,24.6c-2.3,5.3-1.3,47.9,0,52.7c0,0-4,10-12.8,13.3&#10;&#9;&#9;&#9;&#9;c-8.8,3.3-18.8,4-26.3,0s-8.3-10-8.3-10s1.8-17.1,1-27.9c-0.8-10.8-8.3-30.6,0.8-39.4c9-8.8,15.8-11.5,15.8-11.5&#10;&#9;&#9;&#9;&#9;S1063.7,731,1068.3,723.3z" transform="matrix(1, 0, 0, 1, 4.263256414560601e-14, 2.1316282072803006e-14)"/><path fill="#F0C6AD" d="M980.2,758.7l-1.5-5.5c0,0-1.5-5-4-6.8c-2.5-1.8-1.5,0.4-4.8,2.4c-3.3,1.9-8.3,2.9-11.5,1.4s-4.3,0-2.8,4&#10;&#9;&#9;&#9;&#9;c1.5,4,2.8,14.1,23.1,9L980.2,758.7z" transform="matrix(1, 0, 0, 1, 4.263256414560601e-14, 2.1316282072803006e-14)"/><path fill="#3CDE7A" d="M1036.9,750.4c0,0-2-3.8-9.3,0c-7.3,3.8-13,15.1-24.6,13.3c-11.5-1.8-24.3-10.5-24.3-10.5&#10;&#9;&#9;&#9;&#9;s-7.3,5.8-2.3,12.5c0,0,10,14.6,29.4,15.8C1025.1,782.8,1045.9,763.2,1036.9,750.4z" transform="matrix(1, 0, 0, 1, 4.263256414560601e-14, 2.1316282072803006e-14)"/><path fill="#4C3829" d="M1048.2,708.7c0,0-1.6-6.5,4.6-10c6.2-3.5,12.7,5.3,16.2,8c3.5,2.8,5.3,12.8,2.8,17.3&#10;&#9;&#9;&#9;&#9;c-2.5,4.5-5.3,7-11.3,7.5c-6,0.5-9.5-6.3-9.3-10.3C1051.4,717.3,1048.2,708.7,1048.2,708.7z" transform="matrix(1, 0, 0, 1, 4.263256414560601e-14, 2.1316282072803006e-14)"/><path fill="#4C3829" d="M479.8,454.4l-3-4.6c0,0-2.3,3.7-4.6-2c-2.3-5.6,1.9-7.9,4.6-11c2.7-3,17.5-12.2,24-8.8&#10;&#9;&#9;&#9;&#9;c6.5,3.4,10.3,10.7,9.9,16.4c-0.4,5.7-1.5,17.1-1.5,17.1l-7.6,5.7l-5.7-1.5L479.8,454.4z" transform="matrix(1, 0, 0, 1, 4.263256414560601e-14, 2.1316282072803006e-14)"/><path d="M 426.79998779296875 526.5 L 465.5 537.7999877929688 L 484.3999938964844 519.5 L 480.20001220703125 509.20001220703125 L 484.3999938964844 503.8999938964844 L 465.5 499.70001220703125 Z" fill="#4B4B4B" transform="matrix(1, 0, 0, 1, 4.263256414560601e-14, 2.1316282072803006e-14)"/><path d="M 465.5 461.6000061035156 L 426.79998779296875 488.6000061035156 L 426.79998779296875 526.5 L 465.5 499.70001220703125 Z" fill="#4B4B4B" transform="matrix(1, 0, 0, 1, 4.263256414560601e-14, 2.1316282072803006e-14)"/><path d="M 461.8999938964844 467.70001220703125 L 430.5 489.70001220703125 L 430.5 520.4000244140625 L 461.8999938964844 498.6000061035156 Z" fill="#4382E9" transform="matrix(1, 0, 0, 1, 4.263256414560601e-14, 2.1316282072803006e-14)"/><path fill="#325863" d="M490.5,528.3c0,0-26.7,10.3-37,6.9c0,0-9.1,0-14.1,8.4s-7.2,24.8-7.2,30.1c0,0.7,0,1.8-0.1,3.1l21.5-12.5&#10;&#9;&#9;&#9;&#9;c0.2-4.7,1.5-4.7,1.5-4.7s22.5,16.9,39.8,21.8l5.9-49.2L490.5,528.3z" transform="matrix(1, 0, 0, 1, 4.263256414560601e-14, 2.1316282072803006e-14)"/><path fill="#F0C7AD" d="M476.8,449.8c0,0,3,16,7.2,21.7s13.3,1.5,13.3,1.5v6.1l11.8-4.6v-13c0,0-9.1,3-12.6-1.5&#10;&#9;&#9;&#9;&#9;c-3.4-4.6-5.3-14.5-8.4-11.8c-3,2.7-2.3,5-2.3,5S479.8,454.4,476.8,449.8z" transform="matrix(1, 0, 0, 1, 4.263256414560601e-14, 2.1316282072803006e-14)"/><path fill="#F0C7AD" d="M480.2,506.5l-5-2.7c0,0-7.2-2.3-9.7-1.5c-2.5,0.8-8.6,2.3-5.9,4.2c2.7,1.9,3.8,0,5.9,0s1.4,4.2,4.1,5.1&#10;&#9;&#9;&#9;&#9;s4.9,2.5,7.2,0C479.1,509.2,480.2,506.5,480.2,506.5z" transform="matrix(1, 0, 0, 1, 4.263256414560601e-14, 2.1316282072803006e-14)"/><path fill="#F0C7AD" d="M449.8,530.2C449.8,530.2,449.8,530.2,449.8,530.2c-2.9,0-4.7-3.5-5.8-4.9c-0.5-0.2-1.1-0.3-1.7-0.3&#10;&#9;&#9;&#9;&#9;c-0.7,0.5-1.2,1.7-1.1,2.2c0.2,1-0.2,2.5-0.7,2.5c-0.5,0-2.3-0.4-2.3-0.4c-1.4-0.4-3.2-1.1-4.3-1.8c-1.9-1.3-3.4,0.6-3.4,0.6&#10;&#9;&#9;&#9;&#9;c0.5,7.9,4.7,8.9,4.7,8.9l0,0c0.9,0.5,2.1,1,3.7,1.5c7.6,2.4,15.6-1.6,15.6-1.6v-5.3C454.5,531.8,452,531.2,449.8,530.2z" transform="matrix(1, 0, 0, 1, 4.263256414560601e-14, 2.1316282072803006e-14)"/><path d="M 484.3999938964844 503.8999938964844 L 475.20001220703125 503.8999938964844 L 475.20001220703125 514.5 L 479.79998779296875 519.5 Z" fill="#4382E9" transform="matrix(1, 0, 0, 1, 4.263256414560601e-14, 2.1316282072803006e-14)"/><path fill="#4382E9" d="M501.9,474.5c0,0-9.9,4.2-14.5,12.2c-4.6,8-7.2,19.8-7.2,19.8l-8.7,20.6c0,0-18.4,0.4-22.6,0l-1.5,13.7&#10;&#9;&#9;&#9;&#9;c0,0,10.7,2.3,19,3.8s17.1-1.1,18.3-5c1.1-3.8,3-4.6,3-4.6s1.1,11.8-2.7,19c-3.8,7.2-3.8,12.2-3.8,12.2s4.2,13.7,18.3,16.4&#10;&#9;&#9;&#9;&#9;c14.1,2.7,32.4-10.3,32.4-10.3s1.1-34.3,1.5-47.2c0.4-13-0.8-41.9-5-48.4c-4.2-6.5-13-6.9-14.9-6.9&#10;&#9;&#9;&#9;&#9;C511.8,470,504.9,473,501.9,474.5z" transform="matrix(1, 0, 0, 1, 4.263256414560601e-14, 2.1316282072803006e-14)"/><path fill="#FCB794" d="M1045.4,1080.2c0,0-3.8,0.9-4.9,4.6c-1.1,3.7,1.4,6.5,1.9,7.6c0.6,1.1,2.6,1.4,3,2&#10;&#9;&#9;&#9;&#9;c0.4,0.6,2.7,1.7,4.1,1.4c1.4-0.3,3.4-6.8,2-11S1045.4,1080.2,1045.4,1080.2z" transform="matrix(1, 0, 0, 1, 4.263256414560601e-14, 2.1316282072803006e-14)"/><path fill="#4B4B4B" d="M1102.2,1103.2c2.1-9.5,0.6-30,0.6-30s-12.9-2.5-18.3,10c-6.6-3.5-28.2-1.4-28.2-1.4s-7,23.5-8.1,33.9&#10;&#9;&#9;&#9;&#9;c-1.2,10.4,2.3,23.8,6.4,33.6c4,9.8,7.9,38.6,8.2,40.4c0.3,1.8,0,5,0,5l10.7-12.8c0,0-0.9-19.6-2.1-30.6s-2.5-22.3-2.5-22.3&#10;&#9;&#9;&#9;&#9;s6-19,10.3-25l2-3.3c0,0,0.3-0.4,0.7-1c-0.8,20.5,2.3,41.5,2.6,46.8c0.3,5.9,0,35.9,0,35.9l8.3,3c0,0,0-4.8,2.7-18.1&#10;&#9;&#9;&#9;&#9;s4.2-46.6,4.5-52.6C1100.1,1108.8,1100.1,1112.7,1102.2,1103.2z" transform="matrix(1, 0, 0, 1, 4.263256414560601e-14, 2.1316282072803006e-14)"/><path fill="#FCB794" d="M1064.4,984.2l0.2-2.1c0,0-2.4-4.7-4.7-6.7c-2.2-2.1-9.6-6.4-11.1-7.1s-3.6-1.9-5.5-1.9&#10;&#9;&#9;&#9;&#9;c-1.9,0-0.6,3,2.9,5.2c3.5,2.2,5.2,3.7,5.2,3.7s0.6,2.5-0.7,2.5s-1.9,1.5-1.9,1.5s0.6,3.7,1.9,4.9s4.7,4.2,4.7,4.2l11.1,5.6&#10;&#9;&#9;&#9;&#9;L1064.4,984.2z" transform="matrix(1, 0, 0, 1, 4.263256414560601e-14, 2.1316282072803006e-14)"/><path fill="#FEDB59" d="M1068.3,1018.1c0,0-9.6-19.6-10.8-22.6c-1.2-3.1-3.1-7.5-3.1-7.5l10-6.9c0,0,13,14.5,13.7,14.9&#10;&#9;&#9;&#9;&#9;c0.6,0.4,7.5,14.7,7.5,15.5s-3.2,10.4-3.2,10.4L1068.3,1018.1z" transform="matrix(1, 0, 0, 1, 4.263256414560601e-14, 2.1316282072803006e-14)"/><path fill="#FCB794" d="M1070.4,1011.8c0-3.1,0-6.6,0-6.6c-5-4.6-3.9-11.2-3.9-11.2l-0.1-3.2c0,0,3.5,5.1,5.8,7&#10;&#9;&#9;&#9;&#9;c2.3,1.9,3,8.6,10.3,9.6c0,0,3.3,9.6-4,8.2C1071.3,1014.2,1070.4,1011.8,1070.4,1011.8z" transform="matrix(1, 0, 0, 1, 4.263256414560601e-14, 2.1316282072803006e-14)"/><path fill="#432312" d="M1068.5,996.9c-0.3-0.6-2.1-6.1-2.1-6.1s-1.2-2.3,0-7.5c1.2-5.1,6.8-8.9,12.8-8.4&#10;&#9;&#9;&#9;&#9;c6.1,0.5,16.6,4.7,15.7,15.9c0,0,3.7,2.3,5.4,11c1.6,8.6-2.1,13.8-5.8,17.3c-3.7,3.5-4.4,9.1-4.4,9.1s-8.9-6.3-7.5-20.8&#10;&#9;&#9;&#9;&#9;C1082.6,1007.4,1073.9,1008.8,1068.5,996.9z" transform="matrix(1, 0, 0, 1, 4.263256414560601e-14, 2.1316282072803006e-14)"/><path fill="#FEDB59" d="M1098.7,1009.5c12.9,8.4,2.6,22-0.2,30.4c-2.8,8.4-1.9,19.2,2.3,23.4s4.3,10.8,4.3,10.8&#10;&#9;&#9;&#9;&#9;c-1.2,3-12.4,20.3-31.6,18s-20.3-12.4-20.3-12.4s0.5-7.5,4.3-15.4c3.8-7.9,1.4-15.9,0.4-25c-0.9-9.1,0-18.2,0-18.2&#10;&#9;&#9;&#9;&#9;c11.9-11.5,27.3-14.3,27.3-14.3L1098.7,1009.5z" transform="matrix(1, 0, 0, 1, 4.263256414560601e-14, 2.1316282072803006e-14)"/><path fill="#FEDB59" d="M1053.1,1026.4c0,0,2.9-6.8,7.3-4.6c4.4,2.2,7.6,4,8.2,8.1c0.6,4.1-2.7,20.6-2.2,24.7&#10;&#9;&#9;&#9;&#9;c0.4,4.1-2.8,11.8-4.8,15.6c-2.1,3.8-9.7,18.2-9.7,18.2l-8.2-6.2c0,0,5.9-18.7,6.4-22.3c0.6-3.5,3-19.1,3-19.1V1026.4z" transform="matrix(1, 0, 0, 1, 4.263256414560601e-14, 2.1316282072803006e-14)"/><path fill="#35190D" d="M1090,1028.2c0,0,0.7-5.6,4.4-9.1s7.5-8.6,5.8-17.3c-1.6-8.6-5.4-11-5.4-11s-9.1-0.2-12.4,16.6&#10;&#9;&#9;&#9;&#9;C1081.2,1021.9,1090,1028.2,1090,1028.2z" transform="matrix(1, 0, 0, 1, 4.263256414560601e-14, 2.1316282072803006e-14)"/><path fill="#343254" d="M1086.5,1191.9c0,0,2.1-0.3,4,2.7c1.9,3.1,1.6,5,1.6,5h3.1c0,0,1-7.5-0.7-10.2S1087,1188.7,1086.5,1191.9&#10;&#9;&#9;&#9;&#9;z" transform="matrix(1, 0, 0, 1, 4.263256414560601e-14, 2.1316282072803006e-14)"/><path fill="#6E6E6E" d="M1087.8,1181.9c0,0-2.1-0.8-3.5,0.6c-1.4,1.4-1,7.3-6.1,8.6s-1.4,8.1-1.4,8.1s4.2,1.1,6.6,0&#10;&#9;&#9;&#9;&#9;s2.8-10.3,11.2-9.7C1094.6,1189.5,1096.4,1180.3,1087.8,1181.9z" transform="matrix(1, 0, 0, 1, 4.263256414560601e-14, 2.1316282072803006e-14)"/><path fill="#343254" d="M1070.2,1195.6c0,0,3.4,2.4,3.1,5.8c-0.3,3.4,0,5.8,0,5.8h4.8c0,0,0.6-10.7-1-14.9&#10;&#9;&#9;&#9;&#9;C1075.4,1188.2,1070.2,1195.6,1070.2,1195.6z" transform="matrix(1, 0, 0, 1, 4.263256414560601e-14, 2.1316282072803006e-14)"/><path fill="#6E6E6E" d="M1071.2,1182.6c0,0-3.3,1.4-5.4,6c-2.1,4.6-3.9,7.3-6.6,7.6c-2.7,0.3-5.2,0.6-7,2.1c0,0-1.2,3.4,0.6,6&#10;&#9;&#9;&#9;&#9;c1.8,2.5,5.9,3.6,8.7,2.5c2.8-1,5.9-8.7,9.7-11.2s6.1-2.1,6.6-1.9c0.4,0.1,1.6-9.4-4.5-11.8L1071.2,1182.6z" transform="matrix(1, 0, 0, 1, 4.263256414560601e-14, 2.1316282072803006e-14)"/><path d="M 445.3999938964844 993.2999877929688 L 477.79998779296875 1010.9000244140625 L 441.79998779296875 1038.5999755859375 L 409.29998779296875 1021 Z" fill="#E5E5E5" transform="matrix(1, 0, 0, 1, 4.263256414560601e-14, 2.1316282072803006e-14)"/><path fill="#E9B488" d="M447.2,1041.5c0,0,5-0.9,7.9-1.9c2.8-1.1,7.5-5.1,8.1-6.7c0.5-1.6,1.2-8.1,0-9.5&#10;&#9;&#9;&#9;&#9;c-1.2-1.4-5.8,3.5-7.6,5.1c-1.8,1.6-1.8,1.6-1.8,1.6s1.4-4.2,1.1-5.3c-0.4-1.1-2.5-1.2-4.9,1.4c-2.5,2.6-8.9,8.4-8.9,8.4&#10;&#9;&#9;&#9;&#9;L447.2,1041.5z" transform="matrix(1, 0, 0, 1, 4.263256414560601e-14, 2.1316282072803006e-14)"/><path fill="#031E6C" d="M404.5,1211.2l1.7,1.1c0,0,4,0.6,8.5-0.6c4.6-1.1,9.7-0.9,8.8,3.4c-0.9,4.3-8.2,7.7-11.4,9.1&#10;&#9;&#9;&#9;&#9;c-3.1,1.4-9.4,3.4-10.2,4.6c-0.9,1.1-2.3,2.8-7.1,1.7c-4.8-1.1-5-3.1-5-3.1v-17.6L404.5,1211.2z" transform="matrix(1, 0, 0, 1, 4.263256414560601e-14, 2.1316282072803006e-14)"/><path fill="#031E6C" d="M376.6,1197.8c0,0,5.7-2.8,7.7-2.6c2,0.3,4.3,3.4,0,8s-6,6.5-7.7,10c-1.7,3.4-2.8,6-6.8,5.7&#10;&#9;&#9;&#9;&#9;c-1.2-0.1-2.3-0.4-3.3-0.8c-2.5-1-4.1-3.4-4.1-6.1v-9.1l12.2-5.7L376.6,1197.8z" transform="matrix(1, 0, 0, 1, 4.263256414560601e-14, 2.1316282072803006e-14)"/><path fill="#A78264" d="M415.9,1101.7l1.3,4.3c0,0-0.5,25.3-4.4,43.5c-4,18.2-6.5,62.9-6.5,62.9s-0.9,4.3-6.3,4.6&#10;&#9;&#9;&#9;&#9;s-10.8-3.1-10.8-3.1s-0.9-26.5,0-42.1c0.9-15.6,1.8-25-0.4-33c0,0-1.9,17.4-4.7,27.9c-2.8,10.5-5.4,29-6.5,37&#10;&#9;&#9;&#9;&#9;c0,0-1.1,5.1-5.4,5.1s-5.7-0.9-8.5-4.3c0,0-1.4-25.3-1.1-36.4c0.3-11.1,6.3-26.5,6.3-26.5s-1.4-40.1-0.9-50.9&#10;&#9;&#9;&#9;&#9;c0.6-10.8,19.6-18.5,19.6-18.5L415.9,1101.7z" transform="matrix(1, 0, 0, 1, 4.263256414560601e-14, 2.1316282072803006e-14)"/><path fill="#E9B488" d="M410.5,963.5v20.8c0,0,0.3,7.1-2.6,8.2c-2.8,1.1-6.3,0-6.3,0v6.3c0,0-8.2,1.7-14.8-3.1v-6.5l10.2-21&#10;&#9;&#9;&#9;&#9;C397.1,968,407.6,961.5,410.5,963.5z" transform="matrix(1, 0, 0, 1, 4.263256414560601e-14, 2.1316282072803006e-14)"/><path fill="#656356" d="M401.6,998.7c0,0,9.1,3.4,14.5,8.5s4.8,14.8,5.4,22.5c0.6,7.7,1.7,12.8,1.7,12.8s14.8-8.8,16.5-9.4&#10;&#9;&#9;&#9;&#9;c0,0,9.4,2,7.1,11.1c0,0-11.4,8-17.6,12.2c-6.3,4.3-11.9,8-15.9,8c0,0,1.4,8,4,17.6c2.6,9.7,1.7,23,1.7,23s-10.2,5.7-19.3,4.8&#10;&#9;&#9;&#9;&#9;c-9.1-0.9-12.8-3.7-12.8-3.7l-4.3-17.1v14.2c0,0-10.5-5.1-14.8-12.8c0,0,0.6-15.9,1.7-21.3c1.1-5.4-6.5-25.6-8.8-33.6&#10;&#9;&#9;&#9;&#9;c-2.3-8,3.1-33.3,5.4-38.4s11.4-10,20.8-5.4L401.6,998.7z" transform="matrix(1, 0, 0, 1, 4.263256414560601e-14, 2.1316282072803006e-14)"/><path fill="#713D23" d="M410.5,963.5c0,0,0.6-4.8-4-7.7c-4.6-2.8-12.8-3.1-18.5,0s-10,7.7-9.4,17.4c0.6,9.7,8.2,17.4,8.2,17.4&#10;&#9;&#9;&#9;&#9;s3.1,0.9,9.7-6c6.5-6.8,8.1-15.7,9.7-18.5C407.8,963.2,410.5,963.5,410.5,963.5z" transform="matrix(1, 0, 0, 1, 4.263256414560601e-14, 2.1316282072803006e-14)"/><g transform="matrix(1, 0, 0, 1, 4.263256414560601e-14, 2.1316282072803006e-14)">
				<g>
					<path fill="#EFC100" d="M689.2,1012.7c0,0.1,0,0.3,0,0.4c0,0.1,0,0.2,0,0.4c0,0.1,0,0.3-0.1,0.4c0,0.1,0,0.2-0.1,0.4&#10;&#9;&#9;&#9;&#9;&#9;&#9;c0,0.1-0.1,0.3-0.1,0.4c0,0.1-0.1,0.2-0.1,0.4c0,0.1-0.1,0.3-0.1,0.4c0,0.1-0.1,0.2-0.1,0.3c-0.1,0.1-0.1,0.3-0.2,0.4&#10;&#9;&#9;&#9;&#9;&#9;&#9;c-0.1,0.1-0.1,0.2-0.2,0.3c-0.1,0.1-0.1,0.3-0.2,0.4c-0.1,0.1-0.1,0.2-0.2,0.3c-0.1,0.2-0.2,0.3-0.3,0.5&#10;&#9;&#9;&#9;&#9;&#9;&#9;c-0.1,0.1-0.1,0.2-0.2,0.3c-0.1,0.2-0.2,0.3-0.4,0.5c-0.1,0.1-0.1,0.2-0.2,0.2c-0.2,0.3-0.5,0.5-0.7,0.8&#10;&#9;&#9;&#9;&#9;&#9;&#9;c-0.1,0.1-0.1,0.1-0.2,0.2c-0.2,0.2-0.4,0.4-0.6,0.6c-0.1,0.1-0.2,0.2-0.3,0.3c-0.1,0.1-0.3,0.2-0.4,0.3&#10;&#9;&#9;&#9;&#9;&#9;&#9;c-0.1,0.1-0.2,0.2-0.4,0.3c-0.1,0.1-0.3,0.2-0.4,0.3c-0.1,0.1-0.3,0.2-0.4,0.3c-0.1,0.1-0.3,0.2-0.5,0.3&#10;&#9;&#9;&#9;&#9;&#9;&#9;c-0.1,0.1-0.3,0.2-0.4,0.3c-0.2,0.1-0.3,0.2-0.5,0.3c-0.2,0.1-0.4,0.3-0.6,0.4c-0.6,0.3-1.2,0.7-1.8,1&#10;&#9;&#9;&#9;&#9;&#9;&#9;c-0.2,0.1-0.3,0.2-0.5,0.2c-0.6,0.3-1.1,0.5-1.7,0.7c-0.1,0-0.2,0.1-0.2,0.1c-0.6,0.2-1.3,0.5-1.9,0.7&#10;&#9;&#9;&#9;&#9;&#9;&#9;c-0.5,0.1-0.9,0.3-1.4,0.4c-0.4,0.1-0.7,0.2-1.1,0.3c-0.5,0.1-1,0.2-1.5,0.3c-0.4,0.1-0.7,0.2-1.1,0.2c-0.2,0-0.3,0-0.5,0.1&#10;&#9;&#9;&#9;&#9;&#9;&#9;c-0.6,0.1-1.2,0.2-1.9,0.3c-0.2,0-0.4,0-0.6,0.1c-0.4,0-0.7,0.1-1.1,0.1c-0.6,0.1-1.2,0.1-1.8,0.1c-0.4,0-0.8,0-1.2,0&#10;&#9;&#9;&#9;&#9;&#9;&#9;c-0.5,0-1,0-1.5,0c-0.4,0-0.8,0-1.2,0c-0.5,0-0.9,0-1.4-0.1c-0.4,0-0.8-0.1-1.3-0.1c-0.5,0-0.9-0.1-1.3-0.2&#10;&#9;&#9;&#9;&#9;&#9;&#9;c-0.4-0.1-0.8-0.1-1.2-0.2c-0.5-0.1-1-0.2-1.4-0.2c-0.4-0.1-0.8-0.1-1.1-0.2c-0.6-0.1-1.1-0.3-1.7-0.4&#10;&#9;&#9;&#9;&#9;&#9;&#9;c-0.4-0.1-0.7-0.2-1.1-0.3c-0.2-0.1-0.4-0.1-0.6-0.2c-0.6-0.2-1.1-0.4-1.6-0.6c-0.2-0.1-0.3-0.1-0.5-0.2&#10;&#9;&#9;&#9;&#9;&#9;&#9;c-0.5-0.2-1-0.4-1.4-0.6c-0.2-0.1-0.5-0.2-0.7-0.3c-0.7-0.3-1.3-0.7-2-1c-3.7-2.1-6.1-4.7-7.2-7.4c-0.5-1.2-0.8-2.5-0.8-3.8&#10;&#9;&#9;&#9;&#9;&#9;&#9;l0,7.6c0,4,2.7,8.1,8,11.2c0.6,0.4,1.3,0.7,2,1c0.2,0.1,0.5,0.2,0.7,0.3c0.4,0.2,0.8,0.4,1.2,0.5c0.1,0,0.1,0.1,0.2,0.1&#10;&#9;&#9;&#9;&#9;&#9;&#9;c0.2,0.1,0.3,0.1,0.5,0.2c0.5,0.2,1.1,0.4,1.6,0.6c0.2,0.1,0.4,0.1,0.6,0.2c0.1,0,0.3,0.1,0.4,0.1c0.2,0.1,0.5,0.1,0.7,0.2&#10;&#9;&#9;&#9;&#9;&#9;&#9;c0.6,0.1,1.1,0.3,1.7,0.4c0.2,0,0.3,0.1,0.4,0.1c0.2,0,0.5,0.1,0.7,0.1c0.5,0.1,1,0.2,1.4,0.2c0.2,0,0.4,0.1,0.6,0.1&#10;&#9;&#9;&#9;&#9;&#9;&#9;c0.2,0,0.4,0,0.6,0.1c0.4,0.1,0.9,0.1,1.3,0.2c0.2,0,0.4,0.1,0.6,0.1c0.2,0,0.4,0,0.6,0c0.5,0,0.9,0.1,1.4,0.1&#10;&#9;&#9;&#9;&#9;&#9;&#9;c0.2,0,0.5,0,0.7,0c0.2,0,0.4,0,0.6,0c0.5,0,1,0,1.5,0c0.2,0,0.5,0,0.7,0c0.1,0,0.3,0,0.4,0c0.6,0,1.2-0.1,1.8-0.1&#10;&#9;&#9;&#9;&#9;&#9;&#9;c0.2,0,0.5,0,0.7,0c0.1,0,0.2,0,0.4,0c0.2,0,0.4,0,0.5-0.1c0.6-0.1,1.3-0.2,1.9-0.3c0.2,0,0.3,0,0.5-0.1c0.1,0,0.1,0,0.2,0&#10;&#9;&#9;&#9;&#9;&#9;&#9;c0.3-0.1,0.6-0.1,0.9-0.2c0.5-0.1,1-0.2,1.5-0.3c0.4-0.1,0.7-0.2,1.1-0.3c0.5-0.1,0.9-0.3,1.4-0.4c0.1,0,0.2-0.1,0.3-0.1&#10;&#9;&#9;&#9;&#9;&#9;&#9;c0.6-0.2,1.1-0.4,1.6-0.6c0.1,0,0.2-0.1,0.2-0.1c0.6-0.2,1.2-0.5,1.7-0.7c0.2-0.1,0.3-0.2,0.5-0.2c0.6-0.3,1.2-0.6,1.8-1&#10;&#9;&#9;&#9;&#9;&#9;&#9;c0.1-0.1,0.2-0.1,0.3-0.2c0.1-0.1,0.2-0.1,0.3-0.2c0.2-0.1,0.3-0.2,0.5-0.3c0.1-0.1,0.3-0.2,0.4-0.3c0.2-0.1,0.3-0.2,0.5-0.3&#10;&#9;&#9;&#9;&#9;&#9;&#9;c0.1-0.1,0.3-0.2,0.4-0.3c0.1-0.1,0.3-0.2,0.4-0.3c0.1-0.1,0.3-0.2,0.4-0.3c0.1-0.1,0.3-0.2,0.4-0.3c0.1,0,0.1-0.1,0.2-0.1&#10;&#9;&#9;&#9;&#9;&#9;&#9;c0,0,0.1-0.1,0.1-0.1c0.2-0.2,0.4-0.4,0.6-0.6c0.1-0.1,0.1-0.1,0.2-0.2c0.2-0.3,0.5-0.5,0.7-0.8c0,0,0,0,0,0&#10;&#9;&#9;&#9;&#9;&#9;&#9;c0.1-0.1,0.1-0.1,0.1-0.2c0.1-0.2,0.3-0.3,0.4-0.5c0.1-0.1,0.1-0.2,0.2-0.3c0.1-0.2,0.2-0.3,0.3-0.5c0,0,0.1-0.1,0.1-0.1&#10;&#9;&#9;&#9;&#9;&#9;&#9;c0-0.1,0.1-0.1,0.1-0.2c0.1-0.1,0.1-0.3,0.2-0.4c0.1-0.1,0.1-0.2,0.2-0.3c0.1-0.1,0.1-0.3,0.2-0.4c0-0.1,0.1-0.1,0.1-0.2&#10;&#9;&#9;&#9;&#9;&#9;&#9;c0-0.1,0-0.1,0.1-0.2c0-0.1,0.1-0.3,0.1-0.4c0-0.1,0.1-0.2,0.1-0.4c0-0.1,0.1-0.3,0.1-0.4c0-0.1,0-0.1,0.1-0.2c0,0,0-0.1,0-0.1&#10;&#9;&#9;&#9;&#9;&#9;&#9;c0-0.1,0-0.3,0.1-0.4c0-0.1,0-0.2,0-0.4c0-0.1,0-0.3,0-0.4c0-0.1,0-0.2,0-0.2c0-0.1,0-0.2,0-0.2l0-7.6&#10;&#9;&#9;&#9;&#9;&#9;&#9;C689.3,1012.4,689.2,1012.6,689.2,1012.7z"/>
					<g>
						<path fill="#FDD400" d="M681.3,1001.1c10.6,6.1,10.6,16,0.1,22.2c-10.5,6.1-27.7,6.1-38.3,0c-10.6-6.1-10.7-16-0.1-22.2&#10;&#9;&#9;&#9;&#9;&#9;&#9;&#9;C653.5,995,670.7,995,681.3,1001.1z"/>
					</g>
					<g>
						<path fill="#EC8659" d="M671,1010.6c2.3,1.3,2.7,3.4,0.2,5.5l2.7,1.5l-2.6,1.5l-2.5-1.4c-1.8,1-4,1.7-5.5,1.9l-2.3-2.2&#10;&#9;&#9;&#9;&#9;&#9;&#9;&#9;c1.7-0.3,3.7-0.9,5.4-1.8c1.5-0.9,1.9-1.8,0.9-2.4c-1-0.6-2.5-0.5-5,0.3c-3.7,1.1-6.9,1.4-9.5,0c-2.3-1.3-2.5-3.3-0.3-5.2&#10;&#9;&#9;&#9;&#9;&#9;&#9;&#9;l-2.5-1.4l2.6-1.5l2.3,1.3c1.8-1,3.4-1.4,4.6-1.7l2.2,2.2c-1,0.2-2.8,0.6-4.6,1.7c-1.7,1-1.5,1.7-0.8,2.1&#10;&#9;&#9;&#9;&#9;&#9;&#9;&#9;c0.9,0.5,2.3,0.3,5.4-0.5C666,1009.1,668.7,1009.2,671,1010.6z"/>
					</g>
				</g>
			</g><g transform="matrix(1, 0, 0, 1, 5.684341886080802e-14, 2.842170943040401e-14)">
					<path fill="#EFC100" d="M689.2,1000.4c0,0.1,0,0.3,0,0.4c0,0.1,0,0.2,0,0.4c0,0.1,0,0.3-0.1,0.4c0,0.1,0,0.2-0.1,0.4&#10;&#9;&#9;&#9;&#9;&#9;&#9;c0,0.1-0.1,0.3-0.1,0.4c0,0.1-0.1,0.2-0.1,0.4c0,0.1-0.1,0.3-0.1,0.4c0,0.1-0.1,0.2-0.1,0.3c-0.1,0.1-0.1,0.3-0.2,0.4&#10;&#9;&#9;&#9;&#9;&#9;&#9;c-0.1,0.1-0.1,0.2-0.2,0.3c-0.1,0.1-0.1,0.3-0.2,0.4c-0.1,0.1-0.1,0.2-0.2,0.3c-0.1,0.2-0.2,0.3-0.3,0.5&#10;&#9;&#9;&#9;&#9;&#9;&#9;c-0.1,0.1-0.1,0.2-0.2,0.3c-0.1,0.2-0.2,0.3-0.4,0.5c-0.1,0.1-0.1,0.2-0.2,0.2c-0.2,0.3-0.5,0.5-0.7,0.8&#10;&#9;&#9;&#9;&#9;&#9;&#9;c-0.1,0.1-0.1,0.1-0.2,0.2c-0.2,0.2-0.4,0.4-0.6,0.6c-0.1,0.1-0.2,0.2-0.3,0.3c-0.1,0.1-0.3,0.2-0.4,0.3&#10;&#9;&#9;&#9;&#9;&#9;&#9;c-0.1,0.1-0.2,0.2-0.4,0.3c-0.1,0.1-0.3,0.2-0.4,0.3c-0.1,0.1-0.3,0.2-0.4,0.3c-0.1,0.1-0.3,0.2-0.5,0.3&#10;&#9;&#9;&#9;&#9;&#9;&#9;c-0.1,0.1-0.3,0.2-0.4,0.3c-0.2,0.1-0.3,0.2-0.5,0.3c-0.2,0.1-0.4,0.3-0.6,0.4c-0.6,0.3-1.2,0.7-1.8,1&#10;&#9;&#9;&#9;&#9;&#9;&#9;c-0.2,0.1-0.3,0.2-0.5,0.2c-0.6,0.3-1.1,0.5-1.7,0.7c-0.1,0-0.2,0.1-0.2,0.1c-0.6,0.2-1.3,0.5-1.9,0.7&#10;&#9;&#9;&#9;&#9;&#9;&#9;c-0.5,0.1-0.9,0.3-1.4,0.4c-0.4,0.1-0.7,0.2-1.1,0.3c-0.5,0.1-1,0.2-1.5,0.3c-0.4,0.1-0.7,0.2-1.1,0.2c-0.2,0-0.3,0-0.5,0.1&#10;&#9;&#9;&#9;&#9;&#9;&#9;c-0.6,0.1-1.2,0.2-1.9,0.3c-0.2,0-0.4,0-0.6,0.1c-0.4,0-0.7,0.1-1.1,0.1c-0.6,0.1-1.2,0.1-1.8,0.1c-0.4,0-0.8,0-1.2,0&#10;&#9;&#9;&#9;&#9;&#9;&#9;c-0.5,0-1,0-1.5,0c-0.4,0-0.8,0-1.2,0c-0.5,0-0.9,0-1.4-0.1c-0.4,0-0.8-0.1-1.3-0.1c-0.5,0-0.9-0.1-1.3-0.2&#10;&#9;&#9;&#9;&#9;&#9;&#9;c-0.4-0.1-0.8-0.1-1.2-0.2c-0.5-0.1-1-0.2-1.4-0.2c-0.4-0.1-0.8-0.1-1.1-0.2c-0.6-0.1-1.1-0.3-1.7-0.4&#10;&#9;&#9;&#9;&#9;&#9;&#9;c-0.4-0.1-0.7-0.2-1.1-0.3c-0.2-0.1-0.4-0.1-0.6-0.2c-0.6-0.2-1.1-0.4-1.6-0.6c-0.2-0.1-0.3-0.1-0.5-0.2&#10;&#9;&#9;&#9;&#9;&#9;&#9;c-0.5-0.2-1-0.4-1.4-0.6c-0.2-0.1-0.5-0.2-0.7-0.3c-0.7-0.3-1.3-0.7-2-1c-3.7-2.1-6.1-4.7-7.2-7.4c-0.5-1.2-0.8-2.5-0.8-3.8&#10;&#9;&#9;&#9;&#9;&#9;&#9;l0,7.6c0,4,2.7,8.1,8,11.2c0.6,0.4,1.3,0.7,2,1c0.2,0.1,0.5,0.2,0.7,0.3c0.4,0.2,0.8,0.4,1.2,0.5c0.1,0,0.1,0.1,0.2,0.1&#10;&#9;&#9;&#9;&#9;&#9;&#9;c0.2,0.1,0.3,0.1,0.5,0.2c0.5,0.2,1.1,0.4,1.6,0.6c0.2,0.1,0.4,0.1,0.6,0.2c0.1,0,0.3,0.1,0.4,0.1c0.2,0.1,0.5,0.1,0.7,0.2&#10;&#9;&#9;&#9;&#9;&#9;&#9;c0.6,0.1,1.1,0.3,1.7,0.4c0.2,0,0.3,0.1,0.4,0.1c0.2,0,0.5,0.1,0.7,0.1c0.5,0.1,1,0.2,1.4,0.2c0.2,0,0.4,0.1,0.6,0.1&#10;&#9;&#9;&#9;&#9;&#9;&#9;c0.2,0,0.4,0,0.6,0.1c0.4,0.1,0.9,0.1,1.3,0.2c0.2,0,0.4,0.1,0.6,0.1c0.2,0,0.4,0,0.6,0c0.5,0,0.9,0.1,1.4,0.1&#10;&#9;&#9;&#9;&#9;&#9;&#9;c0.2,0,0.5,0,0.7,0c0.2,0,0.4,0,0.6,0c0.5,0,1,0,1.5,0c0.2,0,0.5,0,0.7,0c0.1,0,0.3,0,0.4,0c0.6,0,1.2-0.1,1.8-0.1&#10;&#9;&#9;&#9;&#9;&#9;&#9;c0.2,0,0.5,0,0.7,0c0.1,0,0.2,0,0.4,0c0.2,0,0.4,0,0.5-0.1c0.6-0.1,1.3-0.2,1.9-0.3c0.2,0,0.3,0,0.5-0.1c0.1,0,0.1,0,0.2,0&#10;&#9;&#9;&#9;&#9;&#9;&#9;c0.3-0.1,0.6-0.1,0.9-0.2c0.5-0.1,1-0.2,1.5-0.3c0.4-0.1,0.7-0.2,1.1-0.3c0.5-0.1,0.9-0.3,1.4-0.4c0.1,0,0.2-0.1,0.3-0.1&#10;&#9;&#9;&#9;&#9;&#9;&#9;c0.6-0.2,1.1-0.4,1.6-0.6c0.1,0,0.2-0.1,0.2-0.1c0.6-0.2,1.2-0.5,1.7-0.7c0.2-0.1,0.3-0.2,0.5-0.2c0.6-0.3,1.2-0.6,1.8-1&#10;&#9;&#9;&#9;&#9;&#9;&#9;c0.1-0.1,0.2-0.1,0.3-0.2c0.1-0.1,0.2-0.1,0.3-0.2c0.2-0.1,0.3-0.2,0.5-0.3c0.1-0.1,0.3-0.2,0.4-0.3c0.2-0.1,0.3-0.2,0.5-0.3&#10;&#9;&#9;&#9;&#9;&#9;&#9;c0.1-0.1,0.3-0.2,0.4-0.3c0.1-0.1,0.3-0.2,0.4-0.3c0.1-0.1,0.3-0.2,0.4-0.3c0.1-0.1,0.3-0.2,0.4-0.3c0.1,0,0.1-0.1,0.2-0.1&#10;&#9;&#9;&#9;&#9;&#9;&#9;c0,0,0.1-0.1,0.1-0.1c0.2-0.2,0.4-0.4,0.6-0.6c0.1-0.1,0.1-0.1,0.2-0.2c0.2-0.3,0.5-0.5,0.7-0.8c0,0,0,0,0,0&#10;&#9;&#9;&#9;&#9;&#9;&#9;c0.1-0.1,0.1-0.1,0.1-0.2c0.1-0.2,0.3-0.3,0.4-0.5c0.1-0.1,0.1-0.2,0.2-0.3c0.1-0.2,0.2-0.3,0.3-0.5c0,0,0.1-0.1,0.1-0.1&#10;&#9;&#9;&#9;&#9;&#9;&#9;c0-0.1,0.1-0.1,0.1-0.2c0.1-0.1,0.1-0.3,0.2-0.4c0.1-0.1,0.1-0.2,0.2-0.3c0.1-0.1,0.1-0.3,0.2-0.4c0-0.1,0.1-0.1,0.1-0.2&#10;&#9;&#9;&#9;&#9;&#9;&#9;c0-0.1,0-0.1,0.1-0.2c0-0.1,0.1-0.3,0.1-0.4c0-0.1,0.1-0.2,0.1-0.4c0-0.1,0.1-0.3,0.1-0.4c0-0.1,0-0.1,0.1-0.2c0,0,0-0.1,0-0.1&#10;&#9;&#9;&#9;&#9;&#9;&#9;c0-0.1,0-0.3,0.1-0.4c0-0.1,0-0.2,0-0.4c0-0.1,0-0.3,0-0.4c0-0.1,0-0.2,0-0.2c0-0.1,0-0.2,0-0.2l0-7.6&#10;&#9;&#9;&#9;&#9;&#9;&#9;C689.3,1000.1,689.2,1000.3,689.2,1000.4z"/>
					<g>
						<path fill="#FDD400" d="M681.3,988.8c10.6,6.1,10.6,16,0.1,22.2c-10.5,6.1-27.7,6.1-38.3,0c-10.6-6.1-10.7-16-0.1-22.2&#10;&#9;&#9;&#9;&#9;&#9;&#9;&#9;C653.5,982.7,670.7,982.7,681.3,988.8z"/>
					</g>
					<g>
						<path fill="#EC8659" d="M671,998.3c2.3,1.3,2.7,3.4,0.2,5.5l2.7,1.5l-2.6,1.5l-2.5-1.4c-1.8,1-4,1.7-5.5,1.9l-2.3-2.2&#10;&#9;&#9;&#9;&#9;&#9;&#9;&#9;c1.7-0.3,3.7-0.9,5.4-1.8c1.5-0.9,1.9-1.8,0.9-2.4c-1-0.6-2.5-0.5-5,0.3c-3.7,1.1-6.9,1.4-9.5,0c-2.3-1.3-2.5-3.3-0.3-5.2&#10;&#9;&#9;&#9;&#9;&#9;&#9;&#9;l-2.5-1.4l2.6-1.5l2.3,1.3c1.8-1,3.4-1.4,4.6-1.7l2.2,2.2c-1,0.2-2.8,0.6-4.6,1.7c-1.7,1-1.5,1.7-0.8,2.1&#10;&#9;&#9;&#9;&#9;&#9;&#9;&#9;c0.9,0.5,2.3,0.3,5.4-0.5C666,996.8,668.7,996.9,671,998.3z"/>
					</g>
				</g><g transform="matrix(1, 0, 0, 1, 5.684341886080802e-14, 2.842170943040401e-14)">
					<path fill="#EFC100" d="M683.5,989.3c0,0.1,0,0.3,0,0.4c0,0.1,0,0.2,0,0.4c0,0.1,0,0.3-0.1,0.4c0,0.1,0,0.2-0.1,0.4&#10;&#9;&#9;&#9;&#9;&#9;&#9;c0,0.1-0.1,0.3-0.1,0.4c0,0.1-0.1,0.2-0.1,0.4c0,0.1-0.1,0.3-0.1,0.4c0,0.1-0.1,0.2-0.1,0.3c-0.1,0.1-0.1,0.3-0.2,0.4&#10;&#9;&#9;&#9;&#9;&#9;&#9;c-0.1,0.1-0.1,0.2-0.2,0.3c-0.1,0.1-0.1,0.3-0.2,0.4c-0.1,0.1-0.1,0.2-0.2,0.3c-0.1,0.2-0.2,0.3-0.3,0.5&#10;&#9;&#9;&#9;&#9;&#9;&#9;c-0.1,0.1-0.1,0.2-0.2,0.3c-0.1,0.2-0.2,0.3-0.4,0.5c-0.1,0.1-0.1,0.2-0.2,0.2c-0.2,0.3-0.5,0.5-0.7,0.8&#10;&#9;&#9;&#9;&#9;&#9;&#9;c-0.1,0.1-0.1,0.1-0.2,0.2c-0.2,0.2-0.4,0.4-0.6,0.6c-0.1,0.1-0.2,0.2-0.3,0.3c-0.1,0.1-0.3,0.2-0.4,0.3&#10;&#9;&#9;&#9;&#9;&#9;&#9;c-0.1,0.1-0.2,0.2-0.4,0.3c-0.1,0.1-0.3,0.2-0.4,0.3c-0.1,0.1-0.3,0.2-0.4,0.3c-0.1,0.1-0.3,0.2-0.5,0.3&#10;&#9;&#9;&#9;&#9;&#9;&#9;c-0.1,0.1-0.3,0.2-0.4,0.3c-0.2,0.1-0.3,0.2-0.5,0.3c-0.2,0.1-0.4,0.3-0.6,0.4c-0.6,0.3-1.2,0.7-1.8,1&#10;&#9;&#9;&#9;&#9;&#9;&#9;c-0.2,0.1-0.3,0.2-0.5,0.2c-0.6,0.3-1.1,0.5-1.7,0.7c-0.1,0-0.2,0.1-0.2,0.1c-0.6,0.2-1.3,0.5-1.9,0.7&#10;&#9;&#9;&#9;&#9;&#9;&#9;c-0.5,0.1-0.9,0.3-1.4,0.4c-0.4,0.1-0.7,0.2-1.1,0.3c-0.5,0.1-1,0.2-1.5,0.3c-0.4,0.1-0.7,0.2-1.1,0.2c-0.2,0-0.3,0-0.5,0.1&#10;&#9;&#9;&#9;&#9;&#9;&#9;c-0.6,0.1-1.2,0.2-1.9,0.3c-0.2,0-0.4,0-0.6,0.1c-0.4,0-0.7,0.1-1.1,0.1c-0.6,0.1-1.2,0.1-1.8,0.1c-0.4,0-0.8,0-1.2,0&#10;&#9;&#9;&#9;&#9;&#9;&#9;c-0.5,0-1,0-1.5,0c-0.4,0-0.8,0-1.2,0c-0.5,0-0.9,0-1.4-0.1c-0.4,0-0.8-0.1-1.3-0.1c-0.5,0-0.9-0.1-1.3-0.2&#10;&#9;&#9;&#9;&#9;&#9;&#9;c-0.4-0.1-0.8-0.1-1.2-0.2c-0.5-0.1-1-0.2-1.4-0.2c-0.4-0.1-0.8-0.1-1.1-0.2c-0.6-0.1-1.1-0.3-1.7-0.4&#10;&#9;&#9;&#9;&#9;&#9;&#9;c-0.4-0.1-0.7-0.2-1.1-0.3c-0.2-0.1-0.4-0.1-0.6-0.2c-0.6-0.2-1.1-0.4-1.6-0.6c-0.2-0.1-0.3-0.1-0.5-0.2&#10;&#9;&#9;&#9;&#9;&#9;&#9;c-0.5-0.2-1-0.4-1.4-0.6c-0.2-0.1-0.5-0.2-0.7-0.3c-0.7-0.3-1.3-0.7-2-1c-3.7-2.1-6.1-4.7-7.2-7.4c-0.5-1.2-0.8-2.5-0.8-3.8&#10;&#9;&#9;&#9;&#9;&#9;&#9;l0,7.6c0,4,2.7,8.1,8,11.2c0.6,0.4,1.3,0.7,2,1c0.2,0.1,0.5,0.2,0.7,0.3c0.4,0.2,0.8,0.4,1.2,0.5c0.1,0,0.1,0.1,0.2,0.1&#10;&#9;&#9;&#9;&#9;&#9;&#9;c0.2,0.1,0.3,0.1,0.5,0.2c0.5,0.2,1.1,0.4,1.6,0.6c0.2,0.1,0.4,0.1,0.6,0.2c0.1,0,0.3,0.1,0.4,0.1c0.2,0.1,0.5,0.1,0.7,0.2&#10;&#9;&#9;&#9;&#9;&#9;&#9;c0.6,0.1,1.1,0.3,1.7,0.4c0.2,0,0.3,0.1,0.4,0.1c0.2,0,0.5,0.1,0.7,0.1c0.5,0.1,1,0.2,1.4,0.2c0.2,0,0.4,0.1,0.6,0.1&#10;&#9;&#9;&#9;&#9;&#9;&#9;c0.2,0,0.4,0,0.6,0.1c0.4,0.1,0.9,0.1,1.3,0.2c0.2,0,0.4,0.1,0.6,0.1c0.2,0,0.4,0,0.6,0c0.5,0,0.9,0.1,1.4,0.1&#10;&#9;&#9;&#9;&#9;&#9;&#9;c0.2,0,0.5,0,0.7,0c0.2,0,0.4,0,0.6,0c0.5,0,1,0,1.5,0c0.2,0,0.5,0,0.7,0c0.1,0,0.3,0,0.4,0c0.6,0,1.2-0.1,1.8-0.1&#10;&#9;&#9;&#9;&#9;&#9;&#9;c0.2,0,0.5,0,0.7,0c0.1,0,0.2,0,0.4,0c0.2,0,0.4,0,0.5-0.1c0.6-0.1,1.3-0.2,1.9-0.3c0.2,0,0.3,0,0.5-0.1c0.1,0,0.1,0,0.2,0&#10;&#9;&#9;&#9;&#9;&#9;&#9;c0.3-0.1,0.6-0.1,0.9-0.2c0.5-0.1,1-0.2,1.5-0.3c0.4-0.1,0.7-0.2,1.1-0.3c0.5-0.1,0.9-0.3,1.4-0.4c0.1,0,0.2-0.1,0.3-0.1&#10;&#9;&#9;&#9;&#9;&#9;&#9;c0.6-0.2,1.1-0.4,1.6-0.6c0.1,0,0.2-0.1,0.2-0.1c0.6-0.2,1.2-0.5,1.7-0.7c0.2-0.1,0.3-0.2,0.5-0.2c0.6-0.3,1.2-0.6,1.8-1&#10;&#9;&#9;&#9;&#9;&#9;&#9;c0.1-0.1,0.2-0.1,0.3-0.2c0.1-0.1,0.2-0.1,0.3-0.2c0.2-0.1,0.3-0.2,0.5-0.3c0.1-0.1,0.3-0.2,0.4-0.3c0.2-0.1,0.3-0.2,0.5-0.3&#10;&#9;&#9;&#9;&#9;&#9;&#9;c0.1-0.1,0.3-0.2,0.4-0.3c0.1-0.1,0.3-0.2,0.4-0.3c0.1-0.1,0.3-0.2,0.4-0.3c0.1-0.1,0.3-0.2,0.4-0.3c0.1,0,0.1-0.1,0.2-0.1&#10;&#9;&#9;&#9;&#9;&#9;&#9;c0,0,0.1-0.1,0.1-0.1c0.2-0.2,0.4-0.4,0.6-0.6c0.1-0.1,0.1-0.1,0.2-0.2c0.2-0.3,0.5-0.5,0.7-0.8c0,0,0,0,0,0&#10;&#9;&#9;&#9;&#9;&#9;&#9;c0.1-0.1,0.1-0.1,0.1-0.2c0.1-0.2,0.3-0.3,0.4-0.5c0.1-0.1,0.1-0.2,0.2-0.3c0.1-0.2,0.2-0.3,0.3-0.5c0,0,0.1-0.1,0.1-0.1&#10;&#9;&#9;&#9;&#9;&#9;&#9;c0-0.1,0.1-0.1,0.1-0.2c0.1-0.1,0.1-0.3,0.2-0.4c0.1-0.1,0.1-0.2,0.2-0.3c0.1-0.1,0.1-0.3,0.2-0.4c0-0.1,0.1-0.1,0.1-0.2&#10;&#9;&#9;&#9;&#9;&#9;&#9;c0-0.1,0-0.1,0.1-0.2c0-0.1,0.1-0.3,0.1-0.4c0-0.1,0.1-0.2,0.1-0.4c0-0.1,0.1-0.3,0.1-0.4c0-0.1,0-0.1,0.1-0.2c0,0,0-0.1,0-0.1&#10;&#9;&#9;&#9;&#9;&#9;&#9;c0-0.1,0-0.3,0.1-0.4c0-0.1,0-0.2,0-0.4c0-0.1,0-0.3,0-0.4c0-0.1,0-0.2,0-0.2c0-0.1,0-0.2,0-0.2l0-7.6&#10;&#9;&#9;&#9;&#9;&#9;&#9;C683.6,989,683.5,989.1,683.5,989.3z"/>
					<g>
						<path fill="#FDD400" d="M675.6,977.6c10.6,6.1,10.6,16,0.1,22.2c-10.5,6.1-27.7,6.1-38.3,0c-10.6-6.1-10.7-16-0.1-22.2&#10;&#9;&#9;&#9;&#9;&#9;&#9;&#9;C647.8,971.5,665,971.5,675.6,977.6z"/>
					</g>
					<g>
						<path fill="#EC8659" d="M665.3,987.1c2.3,1.3,2.7,3.4,0.2,5.5l2.7,1.5l-2.6,1.5l-2.5-1.4c-1.8,1-4,1.7-5.5,1.9l-2.3-2.2&#10;&#9;&#9;&#9;&#9;&#9;&#9;&#9;c1.7-0.3,3.7-0.9,5.4-1.8c1.5-0.9,1.9-1.8,0.9-2.4c-1-0.6-2.5-0.5-5,0.3c-3.7,1.1-6.9,1.4-9.5,0c-2.3-1.3-2.5-3.3-0.3-5.2&#10;&#9;&#9;&#9;&#9;&#9;&#9;&#9;l-2.5-1.4l2.6-1.5l2.3,1.3c1.8-1,3.4-1.4,4.6-1.7l2.2,2.2c-1,0.2-2.8,0.6-4.6,1.7c-1.7,1-1.5,1.7-0.8,2.1&#10;&#9;&#9;&#9;&#9;&#9;&#9;&#9;c0.9,0.5,2.3,0.3,5.4-0.5C660.3,985.6,663,985.7,665.3,987.1z"/>
					</g>
				</g><g transform="matrix(1, 0, 0, 1, 5.684341886080802e-14, 2.842170943040401e-14)">
					<path fill="#EFC100" d="M676.2,975.4c0,0.1,0,0.3,0,0.4c0,0.1,0,0.2,0,0.4c0,0.1,0,0.3-0.1,0.4c0,0.1,0,0.2-0.1,0.4&#10;&#9;&#9;&#9;&#9;&#9;&#9;c0,0.1-0.1,0.3-0.1,0.4c0,0.1-0.1,0.2-0.1,0.4c0,0.1-0.1,0.3-0.1,0.4c0,0.1-0.1,0.2-0.1,0.3c-0.1,0.1-0.1,0.3-0.2,0.4&#10;&#9;&#9;&#9;&#9;&#9;&#9;c-0.1,0.1-0.1,0.2-0.2,0.3c-0.1,0.1-0.1,0.3-0.2,0.4c-0.1,0.1-0.1,0.2-0.2,0.3c-0.1,0.2-0.2,0.3-0.3,0.5&#10;&#9;&#9;&#9;&#9;&#9;&#9;c-0.1,0.1-0.1,0.2-0.2,0.3c-0.1,0.2-0.2,0.3-0.4,0.5c-0.1,0.1-0.1,0.2-0.2,0.2c-0.2,0.3-0.5,0.5-0.7,0.8&#10;&#9;&#9;&#9;&#9;&#9;&#9;c-0.1,0.1-0.1,0.1-0.2,0.2c-0.2,0.2-0.4,0.4-0.6,0.6c-0.1,0.1-0.2,0.2-0.3,0.3c-0.1,0.1-0.3,0.2-0.4,0.3&#10;&#9;&#9;&#9;&#9;&#9;&#9;c-0.1,0.1-0.2,0.2-0.4,0.3c-0.1,0.1-0.3,0.2-0.4,0.3c-0.1,0.1-0.3,0.2-0.4,0.3c-0.1,0.1-0.3,0.2-0.5,0.3&#10;&#9;&#9;&#9;&#9;&#9;&#9;c-0.1,0.1-0.3,0.2-0.4,0.3c-0.2,0.1-0.3,0.2-0.5,0.3c-0.2,0.1-0.4,0.3-0.6,0.4c-0.6,0.3-1.2,0.7-1.8,1&#10;&#9;&#9;&#9;&#9;&#9;&#9;c-0.2,0.1-0.3,0.2-0.5,0.2c-0.6,0.3-1.1,0.5-1.7,0.7c-0.1,0-0.2,0.1-0.2,0.1c-0.6,0.2-1.3,0.5-1.9,0.7&#10;&#9;&#9;&#9;&#9;&#9;&#9;c-0.5,0.1-0.9,0.3-1.4,0.4c-0.4,0.1-0.7,0.2-1.1,0.3c-0.5,0.1-1,0.2-1.5,0.3c-0.4,0.1-0.7,0.2-1.1,0.2c-0.2,0-0.3,0-0.5,0.1&#10;&#9;&#9;&#9;&#9;&#9;&#9;c-0.6,0.1-1.2,0.2-1.9,0.3c-0.2,0-0.4,0-0.6,0.1c-0.4,0-0.7,0.1-1.1,0.1c-0.6,0.1-1.2,0.1-1.8,0.1c-0.4,0-0.8,0-1.2,0&#10;&#9;&#9;&#9;&#9;&#9;&#9;c-0.5,0-1,0-1.5,0c-0.4,0-0.8,0-1.2,0c-0.5,0-0.9,0-1.4-0.1c-0.4,0-0.8-0.1-1.3-0.1c-0.5,0-0.9-0.1-1.3-0.2&#10;&#9;&#9;&#9;&#9;&#9;&#9;c-0.4-0.1-0.8-0.1-1.2-0.2c-0.5-0.1-1-0.2-1.4-0.2c-0.4-0.1-0.8-0.1-1.1-0.2c-0.6-0.1-1.1-0.3-1.7-0.4&#10;&#9;&#9;&#9;&#9;&#9;&#9;c-0.4-0.1-0.7-0.2-1.1-0.3c-0.2-0.1-0.4-0.1-0.6-0.2c-0.6-0.2-1.1-0.4-1.6-0.6c-0.2-0.1-0.3-0.1-0.5-0.2&#10;&#9;&#9;&#9;&#9;&#9;&#9;c-0.5-0.2-1-0.4-1.4-0.6c-0.2-0.1-0.5-0.2-0.7-0.3c-0.7-0.3-1.3-0.7-2-1c-3.7-2.1-6.1-4.7-7.2-7.4c-0.5-1.2-0.8-2.5-0.8-3.8&#10;&#9;&#9;&#9;&#9;&#9;&#9;l0,7.6c0,4,2.7,8.1,8,11.2c0.6,0.4,1.3,0.7,2,1c0.2,0.1,0.5,0.2,0.7,0.3c0.4,0.2,0.8,0.4,1.2,0.5c0.1,0,0.1,0.1,0.2,0.1&#10;&#9;&#9;&#9;&#9;&#9;&#9;c0.2,0.1,0.3,0.1,0.5,0.2c0.5,0.2,1.1,0.4,1.6,0.6c0.2,0.1,0.4,0.1,0.6,0.2c0.1,0,0.3,0.1,0.4,0.1c0.2,0.1,0.5,0.1,0.7,0.2&#10;&#9;&#9;&#9;&#9;&#9;&#9;c0.6,0.1,1.1,0.3,1.7,0.4c0.2,0,0.3,0.1,0.4,0.1c0.2,0,0.5,0.1,0.7,0.1c0.5,0.1,1,0.2,1.4,0.2c0.2,0,0.4,0.1,0.6,0.1&#10;&#9;&#9;&#9;&#9;&#9;&#9;c0.2,0,0.4,0,0.6,0.1c0.4,0.1,0.9,0.1,1.3,0.2c0.2,0,0.4,0.1,0.6,0.1c0.2,0,0.4,0,0.6,0c0.5,0,0.9,0.1,1.4,0.1&#10;&#9;&#9;&#9;&#9;&#9;&#9;c0.2,0,0.5,0,0.7,0c0.2,0,0.4,0,0.6,0c0.5,0,1,0,1.5,0c0.2,0,0.5,0,0.7,0c0.1,0,0.3,0,0.4,0c0.6,0,1.2-0.1,1.8-0.1&#10;&#9;&#9;&#9;&#9;&#9;&#9;c0.2,0,0.5,0,0.7,0c0.1,0,0.2,0,0.4,0c0.2,0,0.4,0,0.5-0.1c0.6-0.1,1.3-0.2,1.9-0.3c0.2,0,0.3,0,0.5-0.1c0.1,0,0.1,0,0.2,0&#10;&#9;&#9;&#9;&#9;&#9;&#9;c0.3-0.1,0.6-0.1,0.9-0.2c0.5-0.1,1-0.2,1.5-0.3c0.4-0.1,0.7-0.2,1.1-0.3c0.5-0.1,0.9-0.3,1.4-0.4c0.1,0,0.2-0.1,0.3-0.1&#10;&#9;&#9;&#9;&#9;&#9;&#9;c0.6-0.2,1.1-0.4,1.6-0.6c0.1,0,0.2-0.1,0.2-0.1c0.6-0.2,1.2-0.5,1.7-0.7c0.2-0.1,0.3-0.2,0.5-0.2c0.6-0.3,1.2-0.6,1.8-1&#10;&#9;&#9;&#9;&#9;&#9;&#9;c0.1-0.1,0.2-0.1,0.3-0.2c0.1-0.1,0.2-0.1,0.3-0.2c0.2-0.1,0.3-0.2,0.5-0.3c0.1-0.1,0.3-0.2,0.4-0.3c0.2-0.1,0.3-0.2,0.5-0.3&#10;&#9;&#9;&#9;&#9;&#9;&#9;c0.1-0.1,0.3-0.2,0.4-0.3c0.1-0.1,0.3-0.2,0.4-0.3c0.1-0.1,0.3-0.2,0.4-0.3c0.1-0.1,0.3-0.2,0.4-0.3c0.1,0,0.1-0.1,0.2-0.1&#10;&#9;&#9;&#9;&#9;&#9;&#9;c0,0,0.1-0.1,0.1-0.1c0.2-0.2,0.4-0.4,0.6-0.6c0.1-0.1,0.1-0.1,0.2-0.2c0.2-0.3,0.5-0.5,0.7-0.8c0,0,0,0,0,0&#10;&#9;&#9;&#9;&#9;&#9;&#9;c0.1-0.1,0.1-0.1,0.1-0.2c0.1-0.2,0.3-0.3,0.4-0.5c0.1-0.1,0.1-0.2,0.2-0.3c0.1-0.2,0.2-0.3,0.3-0.5c0,0,0.1-0.1,0.1-0.1&#10;&#9;&#9;&#9;&#9;&#9;&#9;c0-0.1,0.1-0.1,0.1-0.2c0.1-0.1,0.1-0.3,0.2-0.4c0.1-0.1,0.1-0.2,0.2-0.3c0.1-0.1,0.1-0.3,0.2-0.4c0-0.1,0.1-0.1,0.1-0.2&#10;&#9;&#9;&#9;&#9;&#9;&#9;c0-0.1,0-0.1,0.1-0.2c0-0.1,0.1-0.3,0.1-0.4c0-0.1,0.1-0.2,0.1-0.4c0-0.1,0.1-0.3,0.1-0.4c0-0.1,0-0.1,0.1-0.2c0,0,0-0.1,0-0.1&#10;&#9;&#9;&#9;&#9;&#9;&#9;c0-0.1,0-0.3,0.1-0.4c0-0.1,0-0.2,0-0.4c0-0.1,0-0.3,0-0.4c0-0.1,0-0.2,0-0.2c0-0.1,0-0.2,0-0.2l0-7.6&#10;&#9;&#9;&#9;&#9;&#9;&#9;C676.2,975.1,676.2,975.2,676.2,975.4z"/>
					<g>
						<path fill="#FDD400" d="M668.2,963.8c10.6,6.1,10.6,16,0.1,22.2c-10.5,6.1-27.7,6.1-38.3,0c-10.6-6.1-10.7-16-0.1-22.2&#10;&#9;&#9;&#9;&#9;&#9;&#9;&#9;C640.5,957.6,657.6,957.6,668.2,963.8z"/>
					</g>
					<g>
						<path fill="#EC8659" d="M658,973.2c2.3,1.3,2.7,3.4,0.2,5.5l2.7,1.5l-2.6,1.5l-2.5-1.4c-1.8,1-4,1.7-5.5,1.9L648,980&#10;&#9;&#9;&#9;&#9;&#9;&#9;&#9;c1.7-0.3,3.7-0.9,5.4-1.8c1.5-0.9,1.9-1.8,0.9-2.4c-1-0.6-2.5-0.5-5,0.3c-3.7,1.1-6.9,1.4-9.5,0c-2.3-1.3-2.5-3.3-0.3-5.2&#10;&#9;&#9;&#9;&#9;&#9;&#9;&#9;l-2.5-1.4l2.6-1.5l2.3,1.3c1.8-1,3.4-1.4,4.6-1.7l2.2,2.2c-1,0.2-2.8,0.6-4.6,1.7c-1.7,1-1.5,1.7-0.8,2.1&#10;&#9;&#9;&#9;&#9;&#9;&#9;&#9;c0.9,0.5,2.3,0.3,5.4-0.5C653,971.8,655.6,971.9,658,973.2z"/>
					</g>
				</g><g transform="matrix(1, 0, 0, 1, 5.684341886080802e-14, 2.842170943040401e-14)">
					<path fill="#EFC100" d="M691.2,967.1c0,0.1,0,0.3,0,0.4c0,0.1,0,0.2,0,0.4c0,0.1,0,0.3-0.1,0.4c0,0.1,0,0.2-0.1,0.4&#10;&#9;&#9;&#9;&#9;&#9;&#9;c0,0.1-0.1,0.3-0.1,0.4c0,0.1-0.1,0.2-0.1,0.4c0,0.1-0.1,0.3-0.1,0.4c0,0.1-0.1,0.2-0.1,0.3c-0.1,0.1-0.1,0.3-0.2,0.4&#10;&#9;&#9;&#9;&#9;&#9;&#9;c-0.1,0.1-0.1,0.2-0.2,0.3c-0.1,0.1-0.1,0.3-0.2,0.4c-0.1,0.1-0.1,0.2-0.2,0.3c-0.1,0.2-0.2,0.3-0.3,0.5&#10;&#9;&#9;&#9;&#9;&#9;&#9;c-0.1,0.1-0.1,0.2-0.2,0.3c-0.1,0.2-0.2,0.3-0.4,0.5c-0.1,0.1-0.1,0.2-0.2,0.2c-0.2,0.3-0.5,0.5-0.7,0.8&#10;&#9;&#9;&#9;&#9;&#9;&#9;c-0.1,0.1-0.1,0.1-0.2,0.2c-0.2,0.2-0.4,0.4-0.6,0.6c-0.1,0.1-0.2,0.2-0.3,0.3c-0.1,0.1-0.3,0.2-0.4,0.3&#10;&#9;&#9;&#9;&#9;&#9;&#9;c-0.1,0.1-0.2,0.2-0.4,0.3c-0.1,0.1-0.3,0.2-0.4,0.3c-0.1,0.1-0.3,0.2-0.4,0.3c-0.1,0.1-0.3,0.2-0.5,0.3&#10;&#9;&#9;&#9;&#9;&#9;&#9;c-0.1,0.1-0.3,0.2-0.4,0.3c-0.2,0.1-0.3,0.2-0.5,0.3c-0.2,0.1-0.4,0.3-0.6,0.4c-0.6,0.3-1.2,0.7-1.8,1&#10;&#9;&#9;&#9;&#9;&#9;&#9;c-0.2,0.1-0.3,0.2-0.5,0.2c-0.6,0.3-1.1,0.5-1.7,0.7c-0.1,0-0.2,0.1-0.2,0.1c-0.6,0.2-1.3,0.5-1.9,0.7&#10;&#9;&#9;&#9;&#9;&#9;&#9;c-0.5,0.1-0.9,0.3-1.4,0.4c-0.4,0.1-0.7,0.2-1.1,0.3c-0.5,0.1-1,0.2-1.5,0.3c-0.4,0.1-0.7,0.2-1.1,0.2c-0.2,0-0.3,0-0.5,0.1&#10;&#9;&#9;&#9;&#9;&#9;&#9;c-0.6,0.1-1.2,0.2-1.9,0.3c-0.2,0-0.4,0-0.6,0.1c-0.4,0-0.7,0.1-1.1,0.1c-0.6,0.1-1.2,0.1-1.8,0.1c-0.4,0-0.8,0-1.2,0&#10;&#9;&#9;&#9;&#9;&#9;&#9;c-0.5,0-1,0-1.5,0c-0.4,0-0.8,0-1.2,0c-0.5,0-0.9,0-1.4-0.1c-0.4,0-0.8-0.1-1.3-0.1c-0.5,0-0.9-0.1-1.3-0.2&#10;&#9;&#9;&#9;&#9;&#9;&#9;c-0.4-0.1-0.8-0.1-1.2-0.2c-0.5-0.1-1-0.2-1.4-0.2c-0.4-0.1-0.8-0.1-1.1-0.2c-0.6-0.1-1.1-0.3-1.7-0.4&#10;&#9;&#9;&#9;&#9;&#9;&#9;c-0.4-0.1-0.7-0.2-1.1-0.3c-0.2-0.1-0.4-0.1-0.6-0.2c-0.6-0.2-1.1-0.4-1.6-0.6c-0.2-0.1-0.3-0.1-0.5-0.2&#10;&#9;&#9;&#9;&#9;&#9;&#9;c-0.5-0.2-1-0.4-1.4-0.6c-0.2-0.1-0.5-0.2-0.7-0.3c-0.7-0.3-1.3-0.7-2-1c-3.7-2.1-6.1-4.7-7.2-7.4c-0.5-1.2-0.8-2.5-0.8-3.8&#10;&#9;&#9;&#9;&#9;&#9;&#9;l0,7.6c0,4,2.7,8.1,8,11.2c0.6,0.4,1.3,0.7,2,1c0.2,0.1,0.5,0.2,0.7,0.3c0.4,0.2,0.8,0.4,1.2,0.5c0.1,0,0.1,0.1,0.2,0.1&#10;&#9;&#9;&#9;&#9;&#9;&#9;c0.2,0.1,0.3,0.1,0.5,0.2c0.5,0.2,1.1,0.4,1.6,0.6c0.2,0.1,0.4,0.1,0.6,0.2c0.1,0,0.3,0.1,0.4,0.1c0.2,0.1,0.5,0.1,0.7,0.2&#10;&#9;&#9;&#9;&#9;&#9;&#9;c0.6,0.1,1.1,0.3,1.7,0.4c0.2,0,0.3,0.1,0.4,0.1c0.2,0,0.5,0.1,0.7,0.1c0.5,0.1,1,0.2,1.4,0.2c0.2,0,0.4,0.1,0.6,0.1&#10;&#9;&#9;&#9;&#9;&#9;&#9;c0.2,0,0.4,0,0.6,0.1c0.4,0.1,0.9,0.1,1.3,0.2c0.2,0,0.4,0.1,0.6,0.1c0.2,0,0.4,0,0.6,0c0.5,0,0.9,0.1,1.4,0.1&#10;&#9;&#9;&#9;&#9;&#9;&#9;c0.2,0,0.5,0,0.7,0c0.2,0,0.4,0,0.6,0c0.5,0,1,0,1.5,0c0.2,0,0.5,0,0.7,0c0.1,0,0.3,0,0.4,0c0.6,0,1.2-0.1,1.8-0.1&#10;&#9;&#9;&#9;&#9;&#9;&#9;c0.2,0,0.5,0,0.7,0c0.1,0,0.2,0,0.4,0c0.2,0,0.4,0,0.5-0.1c0.6-0.1,1.3-0.2,1.9-0.3c0.2,0,0.3,0,0.5-0.1c0.1,0,0.1,0,0.2,0&#10;&#9;&#9;&#9;&#9;&#9;&#9;c0.3-0.1,0.6-0.1,0.9-0.2c0.5-0.1,1-0.2,1.5-0.3c0.4-0.1,0.7-0.2,1.1-0.3c0.5-0.1,0.9-0.3,1.4-0.4c0.1,0,0.2-0.1,0.3-0.1&#10;&#9;&#9;&#9;&#9;&#9;&#9;c0.6-0.2,1.1-0.4,1.6-0.6c0.1,0,0.2-0.1,0.2-0.1c0.6-0.2,1.2-0.5,1.7-0.7c0.2-0.1,0.3-0.2,0.5-0.2c0.6-0.3,1.2-0.6,1.8-1&#10;&#9;&#9;&#9;&#9;&#9;&#9;c0.1-0.1,0.2-0.1,0.3-0.2c0.1-0.1,0.2-0.1,0.3-0.2c0.2-0.1,0.3-0.2,0.5-0.3c0.1-0.1,0.3-0.2,0.4-0.3c0.2-0.1,0.3-0.2,0.5-0.3&#10;&#9;&#9;&#9;&#9;&#9;&#9;c0.1-0.1,0.3-0.2,0.4-0.3c0.1-0.1,0.3-0.2,0.4-0.3c0.1-0.1,0.3-0.2,0.4-0.3c0.1-0.1,0.3-0.2,0.4-0.3c0.1,0,0.1-0.1,0.2-0.1&#10;&#9;&#9;&#9;&#9;&#9;&#9;c0,0,0.1-0.1,0.1-0.1c0.2-0.2,0.4-0.4,0.6-0.6c0.1-0.1,0.1-0.1,0.2-0.2c0.2-0.3,0.5-0.5,0.7-0.8c0,0,0,0,0,0&#10;&#9;&#9;&#9;&#9;&#9;&#9;c0.1-0.1,0.1-0.1,0.1-0.2c0.1-0.2,0.3-0.3,0.4-0.5c0.1-0.1,0.1-0.2,0.2-0.3c0.1-0.2,0.2-0.3,0.3-0.5c0,0,0.1-0.1,0.1-0.1&#10;&#9;&#9;&#9;&#9;&#9;&#9;c0-0.1,0.1-0.1,0.1-0.2c0.1-0.1,0.1-0.3,0.2-0.4c0.1-0.1,0.1-0.2,0.2-0.3c0.1-0.1,0.1-0.3,0.2-0.4c0-0.1,0.1-0.1,0.1-0.2&#10;&#9;&#9;&#9;&#9;&#9;&#9;c0-0.1,0-0.1,0.1-0.2c0-0.1,0.1-0.3,0.1-0.4c0-0.1,0.1-0.2,0.1-0.4c0-0.1,0.1-0.3,0.1-0.4c0-0.1,0-0.1,0.1-0.2c0,0,0-0.1,0-0.1&#10;&#9;&#9;&#9;&#9;&#9;&#9;c0-0.1,0-0.3,0.1-0.4c0-0.1,0-0.2,0-0.4c0-0.1,0-0.3,0-0.4c0-0.1,0-0.2,0-0.2c0-0.1,0-0.2,0-0.2l0-7.6&#10;&#9;&#9;&#9;&#9;&#9;&#9;C691.2,966.8,691.2,966.9,691.2,967.1z"/>
					<g>
						<path fill="#FDD400" d="M683.3,955.5c10.6,6.1,10.6,16,0.1,22.2c-10.5,6.1-27.7,6.1-38.3,0c-10.6-6.1-10.7-16-0.1-22.2&#10;&#9;&#9;&#9;&#9;&#9;&#9;&#9;C655.5,949.4,672.7,949.4,683.3,955.5z"/>
					</g>
					<g>
						<path fill="#EC8659" d="M673,964.9c2.3,1.3,2.7,3.4,0.2,5.5l2.7,1.5l-2.6,1.5l-2.5-1.4c-1.8,1-4,1.7-5.5,1.9l-2.3-2.2&#10;&#9;&#9;&#9;&#9;&#9;&#9;&#9;c1.7-0.3,3.7-0.9,5.4-1.8c1.5-0.9,1.9-1.8,0.9-2.4c-1-0.6-2.5-0.5-5,0.3c-3.7,1.1-6.9,1.4-9.5,0c-2.3-1.3-2.5-3.3-0.3-5.2&#10;&#9;&#9;&#9;&#9;&#9;&#9;&#9;l-2.5-1.4l2.6-1.5l2.3,1.3c1.8-1,3.4-1.4,4.6-1.7l2.2,2.2c-1,0.2-2.8,0.6-4.6,1.7c-1.7,1-1.5,1.7-0.8,2.1&#10;&#9;&#9;&#9;&#9;&#9;&#9;&#9;c0.9,0.5,2.3,0.3,5.4-0.5C668,963.5,670.7,963.6,673,964.9z"/>
					</g>
				</g><g transform="matrix(1, 0, 0, 1, 5.684341886080802e-14, 2.842170943040401e-14)">
					<path fill="#EFC100" d="M683.6,956.6c0,0.1,0,0.3,0,0.4c0,0.1,0,0.2,0,0.4c0,0.1,0,0.3-0.1,0.4c0,0.1,0,0.2-0.1,0.4&#10;&#9;&#9;&#9;&#9;&#9;&#9;c0,0.1-0.1,0.3-0.1,0.4c0,0.1-0.1,0.2-0.1,0.4c0,0.1-0.1,0.3-0.1,0.4c0,0.1-0.1,0.2-0.1,0.3c-0.1,0.1-0.1,0.3-0.2,0.4&#10;&#9;&#9;&#9;&#9;&#9;&#9;c-0.1,0.1-0.1,0.2-0.2,0.3c-0.1,0.1-0.1,0.3-0.2,0.4c-0.1,0.1-0.1,0.2-0.2,0.3c-0.1,0.2-0.2,0.3-0.3,0.5&#10;&#9;&#9;&#9;&#9;&#9;&#9;c-0.1,0.1-0.1,0.2-0.2,0.3c-0.1,0.2-0.2,0.3-0.4,0.5c-0.1,0.1-0.1,0.2-0.2,0.2c-0.2,0.3-0.5,0.5-0.7,0.8&#10;&#9;&#9;&#9;&#9;&#9;&#9;c-0.1,0.1-0.1,0.1-0.2,0.2c-0.2,0.2-0.4,0.4-0.6,0.6c-0.1,0.1-0.2,0.2-0.3,0.3c-0.1,0.1-0.3,0.2-0.4,0.3&#10;&#9;&#9;&#9;&#9;&#9;&#9;c-0.1,0.1-0.2,0.2-0.4,0.3c-0.1,0.1-0.3,0.2-0.4,0.3c-0.1,0.1-0.3,0.2-0.4,0.3c-0.1,0.1-0.3,0.2-0.5,0.3&#10;&#9;&#9;&#9;&#9;&#9;&#9;c-0.1,0.1-0.3,0.2-0.4,0.3c-0.2,0.1-0.3,0.2-0.5,0.3c-0.2,0.1-0.4,0.3-0.6,0.4c-0.6,0.3-1.2,0.7-1.8,1&#10;&#9;&#9;&#9;&#9;&#9;&#9;c-0.2,0.1-0.3,0.2-0.5,0.2c-0.6,0.3-1.1,0.5-1.7,0.7c-0.1,0-0.2,0.1-0.2,0.1c-0.6,0.2-1.3,0.5-1.9,0.7&#10;&#9;&#9;&#9;&#9;&#9;&#9;c-0.5,0.1-0.9,0.3-1.4,0.4c-0.4,0.1-0.7,0.2-1.1,0.3c-0.5,0.1-1,0.2-1.5,0.3c-0.4,0.1-0.7,0.2-1.1,0.2c-0.2,0-0.3,0-0.5,0.1&#10;&#9;&#9;&#9;&#9;&#9;&#9;c-0.6,0.1-1.2,0.2-1.9,0.3c-0.2,0-0.4,0-0.6,0.1c-0.4,0-0.7,0.1-1.1,0.1c-0.6,0.1-1.2,0.1-1.8,0.1c-0.4,0-0.8,0-1.2,0&#10;&#9;&#9;&#9;&#9;&#9;&#9;c-0.5,0-1,0-1.5,0c-0.4,0-0.8,0-1.2,0c-0.5,0-0.9,0-1.4-0.1c-0.4,0-0.8-0.1-1.3-0.1c-0.5,0-0.9-0.1-1.3-0.2&#10;&#9;&#9;&#9;&#9;&#9;&#9;c-0.4-0.1-0.8-0.1-1.2-0.2c-0.5-0.1-1-0.2-1.4-0.2c-0.4-0.1-0.8-0.1-1.1-0.2c-0.6-0.1-1.1-0.3-1.7-0.4&#10;&#9;&#9;&#9;&#9;&#9;&#9;c-0.4-0.1-0.7-0.2-1.1-0.3c-0.2-0.1-0.4-0.1-0.6-0.2c-0.6-0.2-1.1-0.4-1.6-0.6c-0.2-0.1-0.3-0.1-0.5-0.2&#10;&#9;&#9;&#9;&#9;&#9;&#9;c-0.5-0.2-1-0.4-1.4-0.6c-0.2-0.1-0.5-0.2-0.7-0.3c-0.7-0.3-1.3-0.7-2-1c-3.7-2.1-6.1-4.7-7.2-7.4c-0.5-1.2-0.8-2.5-0.8-3.8&#10;&#9;&#9;&#9;&#9;&#9;&#9;l0,7.6c0,4,2.7,8.1,8,11.2c0.6,0.4,1.3,0.7,2,1c0.2,0.1,0.5,0.2,0.7,0.3c0.4,0.2,0.8,0.4,1.2,0.5c0.1,0,0.1,0.1,0.2,0.1&#10;&#9;&#9;&#9;&#9;&#9;&#9;c0.2,0.1,0.3,0.1,0.5,0.2c0.5,0.2,1.1,0.4,1.6,0.6c0.2,0.1,0.4,0.1,0.6,0.2c0.1,0,0.3,0.1,0.4,0.1c0.2,0.1,0.5,0.1,0.7,0.2&#10;&#9;&#9;&#9;&#9;&#9;&#9;c0.6,0.1,1.1,0.3,1.7,0.4c0.2,0,0.3,0.1,0.4,0.1c0.2,0,0.5,0.1,0.7,0.1c0.5,0.1,1,0.2,1.4,0.2c0.2,0,0.4,0.1,0.6,0.1&#10;&#9;&#9;&#9;&#9;&#9;&#9;c0.2,0,0.4,0,0.6,0.1c0.4,0.1,0.9,0.1,1.3,0.2c0.2,0,0.4,0.1,0.6,0.1c0.2,0,0.4,0,0.6,0c0.5,0,0.9,0.1,1.4,0.1&#10;&#9;&#9;&#9;&#9;&#9;&#9;c0.2,0,0.5,0,0.7,0c0.2,0,0.4,0,0.6,0c0.5,0,1,0,1.5,0c0.2,0,0.5,0,0.7,0c0.1,0,0.3,0,0.4,0c0.6,0,1.2-0.1,1.8-0.1&#10;&#9;&#9;&#9;&#9;&#9;&#9;c0.2,0,0.5,0,0.7,0c0.1,0,0.2,0,0.4,0c0.2,0,0.4,0,0.5-0.1c0.6-0.1,1.3-0.2,1.9-0.3c0.2,0,0.3,0,0.5-0.1c0.1,0,0.1,0,0.2,0&#10;&#9;&#9;&#9;&#9;&#9;&#9;c0.3-0.1,0.6-0.1,0.9-0.2c0.5-0.1,1-0.2,1.5-0.3c0.4-0.1,0.7-0.2,1.1-0.3c0.5-0.1,0.9-0.3,1.4-0.4c0.1,0,0.2-0.1,0.3-0.1&#10;&#9;&#9;&#9;&#9;&#9;&#9;c0.6-0.2,1.1-0.4,1.6-0.6c0.1,0,0.2-0.1,0.2-0.1c0.6-0.2,1.2-0.5,1.7-0.7c0.2-0.1,0.3-0.2,0.5-0.2c0.6-0.3,1.2-0.6,1.8-1&#10;&#9;&#9;&#9;&#9;&#9;&#9;c0.1-0.1,0.2-0.1,0.3-0.2c0.1-0.1,0.2-0.1,0.3-0.2c0.2-0.1,0.3-0.2,0.5-0.3c0.1-0.1,0.3-0.2,0.4-0.3c0.2-0.1,0.3-0.2,0.5-0.3&#10;&#9;&#9;&#9;&#9;&#9;&#9;c0.1-0.1,0.3-0.2,0.4-0.3c0.1-0.1,0.3-0.2,0.4-0.3c0.1-0.1,0.3-0.2,0.4-0.3c0.1-0.1,0.3-0.2,0.4-0.3c0.1,0,0.1-0.1,0.2-0.1&#10;&#9;&#9;&#9;&#9;&#9;&#9;c0,0,0.1-0.1,0.1-0.1c0.2-0.2,0.4-0.4,0.6-0.6c0.1-0.1,0.1-0.1,0.2-0.2c0.2-0.3,0.5-0.5,0.7-0.8c0,0,0,0,0,0&#10;&#9;&#9;&#9;&#9;&#9;&#9;c0.1-0.1,0.1-0.1,0.1-0.2c0.1-0.2,0.3-0.3,0.4-0.5c0.1-0.1,0.1-0.2,0.2-0.3c0.1-0.2,0.2-0.3,0.3-0.5c0,0,0.1-0.1,0.1-0.1&#10;&#9;&#9;&#9;&#9;&#9;&#9;c0-0.1,0.1-0.1,0.1-0.2c0.1-0.1,0.1-0.3,0.2-0.4c0.1-0.1,0.1-0.2,0.2-0.3c0.1-0.1,0.1-0.3,0.2-0.4c0-0.1,0.1-0.1,0.1-0.2&#10;&#9;&#9;&#9;&#9;&#9;&#9;c0-0.1,0-0.1,0.1-0.2c0-0.1,0.1-0.3,0.1-0.4c0-0.1,0.1-0.2,0.1-0.4c0-0.1,0.1-0.3,0.1-0.4c0-0.1,0-0.1,0.1-0.2c0,0,0-0.1,0-0.1&#10;&#9;&#9;&#9;&#9;&#9;&#9;c0-0.1,0-0.3,0.1-0.4c0-0.1,0-0.2,0-0.4c0-0.1,0-0.3,0-0.4c0-0.1,0-0.2,0-0.2c0-0.1,0-0.2,0-0.2l0-7.6&#10;&#9;&#9;&#9;&#9;&#9;&#9;C683.6,956.3,683.6,956.4,683.6,956.6z"/>
					<g>
						<path fill="#FDD400" d="M675.6,944.9c10.6,6.1,10.6,16,0.1,22.2c-10.5,6.1-27.7,6.1-38.3,0c-10.6-6.1-10.7-16-0.1-22.2&#10;&#9;&#9;&#9;&#9;&#9;&#9;&#9;C647.9,938.8,665,938.8,675.6,944.9z"/>
					</g>
					<g>
						<path fill="#EC8659" d="M665.4,954.4c2.3,1.3,2.7,3.4,0.2,5.5l2.7,1.5l-2.6,1.5l-2.5-1.4c-1.8,1-4,1.7-5.5,1.9l-2.3-2.2&#10;&#9;&#9;&#9;&#9;&#9;&#9;&#9;c1.7-0.3,3.7-0.9,5.4-1.8c1.5-0.9,1.9-1.8,0.9-2.4c-1-0.6-2.5-0.5-5,0.3c-3.7,1.1-6.9,1.4-9.5,0c-2.3-1.3-2.5-3.3-0.3-5.2&#10;&#9;&#9;&#9;&#9;&#9;&#9;&#9;l-2.5-1.4l2.6-1.5l2.3,1.3c1.8-1,3.4-1.4,4.6-1.7l2.2,2.2c-1,0.2-2.8,0.6-4.6,1.7c-1.7,1-1.5,1.7-0.8,2.1&#10;&#9;&#9;&#9;&#9;&#9;&#9;&#9;c0.9,0.5,2.3,0.3,5.4-0.5C660.3,952.9,663,953,665.4,954.4z"/>
					</g>
				</g><g transform="matrix(1, 0, 0, 1, 5.684341886080802e-14, 2.842170943040401e-14)">
					<path fill="#EFC100" d="M752.9,1019.9c0,0.1,0,0.3,0,0.4c0,0.1,0,0.2,0,0.4c0,0.1,0,0.3-0.1,0.4c0,0.1,0,0.2-0.1,0.4&#10;&#9;&#9;&#9;&#9;&#9;&#9;c0,0.1-0.1,0.3-0.1,0.4c0,0.1-0.1,0.2-0.1,0.4c0,0.1-0.1,0.3-0.1,0.4c0,0.1-0.1,0.2-0.1,0.3c-0.1,0.1-0.1,0.3-0.2,0.4&#10;&#9;&#9;&#9;&#9;&#9;&#9;c-0.1,0.1-0.1,0.2-0.2,0.3c-0.1,0.1-0.1,0.3-0.2,0.4c-0.1,0.1-0.1,0.2-0.2,0.3c-0.1,0.2-0.2,0.3-0.3,0.5&#10;&#9;&#9;&#9;&#9;&#9;&#9;c-0.1,0.1-0.1,0.2-0.2,0.3c-0.1,0.2-0.2,0.3-0.4,0.5c-0.1,0.1-0.1,0.2-0.2,0.2c-0.2,0.3-0.5,0.5-0.7,0.8&#10;&#9;&#9;&#9;&#9;&#9;&#9;c-0.1,0.1-0.1,0.1-0.2,0.2c-0.2,0.2-0.4,0.4-0.6,0.6c-0.1,0.1-0.2,0.2-0.3,0.3c-0.1,0.1-0.3,0.2-0.4,0.3&#10;&#9;&#9;&#9;&#9;&#9;&#9;c-0.1,0.1-0.2,0.2-0.4,0.3c-0.1,0.1-0.3,0.2-0.4,0.3c-0.1,0.1-0.3,0.2-0.4,0.3c-0.1,0.1-0.3,0.2-0.5,0.3&#10;&#9;&#9;&#9;&#9;&#9;&#9;c-0.1,0.1-0.3,0.2-0.4,0.3c-0.2,0.1-0.3,0.2-0.5,0.3c-0.2,0.1-0.4,0.3-0.6,0.4c-0.6,0.3-1.2,0.7-1.8,1&#10;&#9;&#9;&#9;&#9;&#9;&#9;c-0.2,0.1-0.3,0.2-0.5,0.2c-0.6,0.3-1.1,0.5-1.7,0.7c-0.1,0-0.2,0.1-0.2,0.1c-0.6,0.2-1.3,0.5-1.9,0.7&#10;&#9;&#9;&#9;&#9;&#9;&#9;c-0.5,0.1-0.9,0.3-1.4,0.4c-0.4,0.1-0.7,0.2-1.1,0.3c-0.5,0.1-1,0.2-1.5,0.3c-0.4,0.1-0.7,0.2-1.1,0.2c-0.2,0-0.3,0-0.5,0.1&#10;&#9;&#9;&#9;&#9;&#9;&#9;c-0.6,0.1-1.2,0.2-1.9,0.3c-0.2,0-0.4,0-0.6,0.1c-0.4,0-0.7,0.1-1.1,0.1c-0.6,0.1-1.2,0.1-1.8,0.1c-0.4,0-0.8,0-1.2,0&#10;&#9;&#9;&#9;&#9;&#9;&#9;c-0.5,0-1,0-1.5,0c-0.4,0-0.8,0-1.2,0c-0.5,0-0.9,0-1.4-0.1c-0.4,0-0.8-0.1-1.3-0.1c-0.5,0-0.9-0.1-1.3-0.2&#10;&#9;&#9;&#9;&#9;&#9;&#9;c-0.4-0.1-0.8-0.1-1.2-0.2c-0.5-0.1-1-0.2-1.4-0.2c-0.4-0.1-0.8-0.1-1.1-0.2c-0.6-0.1-1.1-0.3-1.7-0.4&#10;&#9;&#9;&#9;&#9;&#9;&#9;c-0.4-0.1-0.7-0.2-1.1-0.3c-0.2-0.1-0.4-0.1-0.6-0.2c-0.6-0.2-1.1-0.4-1.6-0.6c-0.2-0.1-0.3-0.1-0.5-0.2&#10;&#9;&#9;&#9;&#9;&#9;&#9;c-0.5-0.2-1-0.4-1.4-0.6c-0.2-0.1-0.5-0.2-0.7-0.3c-0.7-0.3-1.3-0.7-2-1c-3.7-2.1-6.1-4.7-7.2-7.4c-0.5-1.2-0.8-2.5-0.8-3.8&#10;&#9;&#9;&#9;&#9;&#9;&#9;l0,7.6c0,4,2.7,8.1,8,11.2c0.6,0.4,1.3,0.7,2,1c0.2,0.1,0.5,0.2,0.7,0.3c0.4,0.2,0.8,0.4,1.2,0.5c0.1,0,0.1,0.1,0.2,0.1&#10;&#9;&#9;&#9;&#9;&#9;&#9;c0.2,0.1,0.3,0.1,0.5,0.2c0.5,0.2,1.1,0.4,1.6,0.6c0.2,0.1,0.4,0.1,0.6,0.2c0.1,0,0.3,0.1,0.4,0.1c0.2,0.1,0.5,0.1,0.7,0.2&#10;&#9;&#9;&#9;&#9;&#9;&#9;c0.6,0.1,1.1,0.3,1.7,0.4c0.2,0,0.3,0.1,0.4,0.1c0.2,0,0.5,0.1,0.7,0.1c0.5,0.1,1,0.2,1.4,0.2c0.2,0,0.4,0.1,0.6,0.1&#10;&#9;&#9;&#9;&#9;&#9;&#9;c0.2,0,0.4,0,0.6,0.1c0.4,0.1,0.9,0.1,1.3,0.2c0.2,0,0.4,0.1,0.6,0.1c0.2,0,0.4,0,0.6,0c0.5,0,0.9,0.1,1.4,0.1&#10;&#9;&#9;&#9;&#9;&#9;&#9;c0.2,0,0.5,0,0.7,0c0.2,0,0.4,0,0.6,0c0.5,0,1,0,1.5,0c0.2,0,0.5,0,0.7,0c0.1,0,0.3,0,0.4,0c0.6,0,1.2-0.1,1.8-0.1&#10;&#9;&#9;&#9;&#9;&#9;&#9;c0.2,0,0.5,0,0.7,0c0.1,0,0.2,0,0.4,0c0.2,0,0.4,0,0.5-0.1c0.6-0.1,1.3-0.2,1.9-0.3c0.2,0,0.3,0,0.5-0.1c0.1,0,0.1,0,0.2,0&#10;&#9;&#9;&#9;&#9;&#9;&#9;c0.3-0.1,0.6-0.1,0.9-0.2c0.5-0.1,1-0.2,1.5-0.3c0.4-0.1,0.7-0.2,1.1-0.3c0.5-0.1,0.9-0.3,1.4-0.4c0.1,0,0.2-0.1,0.3-0.1&#10;&#9;&#9;&#9;&#9;&#9;&#9;c0.6-0.2,1.1-0.4,1.6-0.6c0.1,0,0.2-0.1,0.2-0.1c0.6-0.2,1.2-0.5,1.7-0.7c0.2-0.1,0.3-0.2,0.5-0.2c0.6-0.3,1.2-0.6,1.8-1&#10;&#9;&#9;&#9;&#9;&#9;&#9;c0.1-0.1,0.2-0.1,0.3-0.2c0.1-0.1,0.2-0.1,0.3-0.2c0.2-0.1,0.3-0.2,0.5-0.3c0.1-0.1,0.3-0.2,0.4-0.3c0.2-0.1,0.3-0.2,0.5-0.3&#10;&#9;&#9;&#9;&#9;&#9;&#9;c0.1-0.1,0.3-0.2,0.4-0.3c0.1-0.1,0.3-0.2,0.4-0.3c0.1-0.1,0.3-0.2,0.4-0.3c0.1-0.1,0.3-0.2,0.4-0.3c0.1,0,0.1-0.1,0.2-0.1&#10;&#9;&#9;&#9;&#9;&#9;&#9;c0,0,0.1-0.1,0.1-0.1c0.2-0.2,0.4-0.4,0.6-0.6c0.1-0.1,0.1-0.1,0.2-0.2c0.2-0.3,0.5-0.5,0.7-0.8c0,0,0,0,0,0&#10;&#9;&#9;&#9;&#9;&#9;&#9;c0.1-0.1,0.1-0.1,0.1-0.2c0.1-0.2,0.3-0.3,0.4-0.5c0.1-0.1,0.1-0.2,0.2-0.3c0.1-0.2,0.2-0.3,0.3-0.5c0,0,0.1-0.1,0.1-0.1&#10;&#9;&#9;&#9;&#9;&#9;&#9;c0-0.1,0.1-0.1,0.1-0.2c0.1-0.1,0.1-0.3,0.2-0.4c0.1-0.1,0.1-0.2,0.2-0.3c0.1-0.1,0.1-0.3,0.2-0.4c0-0.1,0.1-0.1,0.1-0.2&#10;&#9;&#9;&#9;&#9;&#9;&#9;c0-0.1,0-0.1,0.1-0.2c0-0.1,0.1-0.3,0.1-0.4c0-0.1,0.1-0.2,0.1-0.4c0-0.1,0.1-0.3,0.1-0.4c0-0.1,0-0.1,0.1-0.2c0,0,0-0.1,0-0.1&#10;&#9;&#9;&#9;&#9;&#9;&#9;c0-0.1,0-0.3,0.1-0.4c0-0.1,0-0.2,0-0.4c0-0.1,0-0.3,0-0.4c0-0.1,0-0.2,0-0.2c0-0.1,0-0.2,0-0.2l0-7.6&#10;&#9;&#9;&#9;&#9;&#9;&#9;C752.9,1019.6,752.9,1019.7,752.9,1019.9z"/>
					<g>
						<path fill="#FDD400" d="M744.9,1008.3c10.6,6.1,10.6,16,0.1,22.2s-27.7,6.1-38.3,0c-10.6-6.1-10.7-16-0.1-22.2&#10;&#9;&#9;&#9;&#9;&#9;&#9;&#9;C717.2,1002.2,734.3,1002.2,744.9,1008.3z"/>
					</g>
					<g>
						<path fill="#EC8659" d="M734.7,1017.7c2.3,1.3,2.7,3.4,0.2,5.5l2.7,1.5l-2.6,1.5l-2.5-1.4c-1.8,1-4,1.7-5.5,1.9l-2.3-2.2&#10;&#9;&#9;&#9;&#9;&#9;&#9;&#9;c1.7-0.3,3.7-0.9,5.4-1.8c1.5-0.9,1.9-1.8,0.9-2.4c-1-0.6-2.5-0.5-5,0.3c-3.7,1.1-6.9,1.4-9.5,0c-2.3-1.3-2.5-3.3-0.3-5.2&#10;&#9;&#9;&#9;&#9;&#9;&#9;&#9;l-2.5-1.4l2.6-1.5l2.3,1.3c1.8-1,3.4-1.4,4.6-1.7l2.2,2.2c-1,0.2-2.8,0.6-4.6,1.7c-1.7,1-1.5,1.7-0.8,2.1&#10;&#9;&#9;&#9;&#9;&#9;&#9;&#9;c0.9,0.5,2.3,0.3,5.4-0.5C729.6,1016.3,732.3,1016.4,734.7,1017.7z"/>
					</g>
				</g><g transform="matrix(1, 0, 0, 1, 5.684341886080802e-14, 2.842170943040401e-14)">
					<path fill="#EFC100" d="M710.6,1051.7c0,0.1,0,0.3,0,0.4c0,0.1,0,0.2,0,0.4c0,0.1,0,0.3-0.1,0.4c0,0.1,0,0.2-0.1,0.4&#10;&#9;&#9;&#9;&#9;&#9;&#9;c0,0.1-0.1,0.3-0.1,0.4c0,0.1-0.1,0.2-0.1,0.4c0,0.1-0.1,0.3-0.1,0.4c0,0.1-0.1,0.2-0.1,0.3c-0.1,0.1-0.1,0.3-0.2,0.4&#10;&#9;&#9;&#9;&#9;&#9;&#9;c-0.1,0.1-0.1,0.2-0.2,0.3c-0.1,0.1-0.1,0.3-0.2,0.4c-0.1,0.1-0.1,0.2-0.2,0.3c-0.1,0.2-0.2,0.3-0.3,0.5&#10;&#9;&#9;&#9;&#9;&#9;&#9;c-0.1,0.1-0.1,0.2-0.2,0.3c-0.1,0.2-0.2,0.3-0.4,0.5c-0.1,0.1-0.1,0.2-0.2,0.2c-0.2,0.3-0.5,0.5-0.7,0.8&#10;&#9;&#9;&#9;&#9;&#9;&#9;c-0.1,0.1-0.1,0.1-0.2,0.2c-0.2,0.2-0.4,0.4-0.6,0.6c-0.1,0.1-0.2,0.2-0.3,0.3c-0.1,0.1-0.3,0.2-0.4,0.3&#10;&#9;&#9;&#9;&#9;&#9;&#9;c-0.1,0.1-0.2,0.2-0.4,0.3c-0.1,0.1-0.3,0.2-0.4,0.3c-0.1,0.1-0.3,0.2-0.4,0.3c-0.1,0.1-0.3,0.2-0.5,0.3&#10;&#9;&#9;&#9;&#9;&#9;&#9;c-0.1,0.1-0.3,0.2-0.4,0.3c-0.2,0.1-0.3,0.2-0.5,0.3c-0.2,0.1-0.4,0.3-0.6,0.4c-0.6,0.3-1.2,0.7-1.8,1&#10;&#9;&#9;&#9;&#9;&#9;&#9;c-0.2,0.1-0.3,0.2-0.5,0.2c-0.6,0.3-1.1,0.5-1.7,0.7c-0.1,0-0.2,0.1-0.2,0.1c-0.6,0.2-1.3,0.5-1.9,0.7&#10;&#9;&#9;&#9;&#9;&#9;&#9;c-0.5,0.1-0.9,0.3-1.4,0.4c-0.4,0.1-0.7,0.2-1.1,0.3c-0.5,0.1-1,0.2-1.5,0.3c-0.4,0.1-0.7,0.2-1.1,0.2c-0.2,0-0.3,0-0.5,0.1&#10;&#9;&#9;&#9;&#9;&#9;&#9;c-0.6,0.1-1.2,0.2-1.9,0.3c-0.2,0-0.4,0-0.6,0.1c-0.4,0-0.7,0.1-1.1,0.1c-0.6,0.1-1.2,0.1-1.8,0.1c-0.4,0-0.8,0-1.2,0&#10;&#9;&#9;&#9;&#9;&#9;&#9;c-0.5,0-1,0-1.5,0c-0.4,0-0.8,0-1.2,0c-0.5,0-0.9,0-1.4-0.1c-0.4,0-0.8-0.1-1.3-0.1c-0.5,0-0.9-0.1-1.3-0.2&#10;&#9;&#9;&#9;&#9;&#9;&#9;c-0.4-0.1-0.8-0.1-1.2-0.2c-0.5-0.1-1-0.2-1.4-0.2c-0.4-0.1-0.8-0.1-1.1-0.2c-0.6-0.1-1.1-0.3-1.7-0.4&#10;&#9;&#9;&#9;&#9;&#9;&#9;c-0.4-0.1-0.7-0.2-1.1-0.3c-0.2-0.1-0.4-0.1-0.6-0.2c-0.6-0.2-1.1-0.4-1.6-0.6c-0.2-0.1-0.3-0.1-0.5-0.2&#10;&#9;&#9;&#9;&#9;&#9;&#9;c-0.5-0.2-1-0.4-1.4-0.6c-0.2-0.1-0.5-0.2-0.7-0.3c-0.7-0.3-1.3-0.7-2-1c-3.7-2.1-6.1-4.7-7.2-7.4c-0.5-1.2-0.8-2.5-0.8-3.8&#10;&#9;&#9;&#9;&#9;&#9;&#9;l0,7.6c0,4,2.7,8.1,8,11.2c0.6,0.4,1.3,0.7,2,1c0.2,0.1,0.5,0.2,0.7,0.3c0.4,0.2,0.8,0.4,1.2,0.5c0.1,0,0.1,0.1,0.2,0.1&#10;&#9;&#9;&#9;&#9;&#9;&#9;c0.2,0.1,0.3,0.1,0.5,0.2c0.5,0.2,1.1,0.4,1.6,0.6c0.2,0.1,0.4,0.1,0.6,0.2c0.1,0,0.3,0.1,0.4,0.1c0.2,0.1,0.5,0.1,0.7,0.2&#10;&#9;&#9;&#9;&#9;&#9;&#9;c0.6,0.1,1.1,0.3,1.7,0.4c0.2,0,0.3,0.1,0.4,0.1c0.2,0,0.5,0.1,0.7,0.1c0.5,0.1,1,0.2,1.4,0.2c0.2,0,0.4,0.1,0.6,0.1&#10;&#9;&#9;&#9;&#9;&#9;&#9;c0.2,0,0.4,0,0.6,0.1c0.4,0.1,0.9,0.1,1.3,0.2c0.2,0,0.4,0.1,0.6,0.1c0.2,0,0.4,0,0.6,0c0.5,0,0.9,0.1,1.4,0.1&#10;&#9;&#9;&#9;&#9;&#9;&#9;c0.2,0,0.5,0,0.7,0c0.2,0,0.4,0,0.6,0c0.5,0,1,0,1.5,0c0.2,0,0.5,0,0.7,0c0.1,0,0.3,0,0.4,0c0.6,0,1.2-0.1,1.8-0.1&#10;&#9;&#9;&#9;&#9;&#9;&#9;c0.2,0,0.5,0,0.7,0c0.1,0,0.2,0,0.4,0c0.2,0,0.4,0,0.5-0.1c0.6-0.1,1.3-0.2,1.9-0.3c0.2,0,0.3,0,0.5-0.1c0.1,0,0.1,0,0.2,0&#10;&#9;&#9;&#9;&#9;&#9;&#9;c0.3-0.1,0.6-0.1,0.9-0.2c0.5-0.1,1-0.2,1.5-0.3c0.4-0.1,0.7-0.2,1.1-0.3c0.5-0.1,0.9-0.3,1.4-0.4c0.1,0,0.2-0.1,0.3-0.1&#10;&#9;&#9;&#9;&#9;&#9;&#9;c0.6-0.2,1.1-0.4,1.6-0.6c0.1,0,0.2-0.1,0.2-0.1c0.6-0.2,1.2-0.5,1.7-0.7c0.2-0.1,0.3-0.2,0.5-0.2c0.6-0.3,1.2-0.6,1.8-1&#10;&#9;&#9;&#9;&#9;&#9;&#9;c0.1-0.1,0.2-0.1,0.3-0.2c0.1-0.1,0.2-0.1,0.3-0.2c0.2-0.1,0.3-0.2,0.5-0.3c0.1-0.1,0.3-0.2,0.4-0.3c0.2-0.1,0.3-0.2,0.5-0.3&#10;&#9;&#9;&#9;&#9;&#9;&#9;c0.1-0.1,0.3-0.2,0.4-0.3c0.1-0.1,0.3-0.2,0.4-0.3c0.1-0.1,0.3-0.2,0.4-0.3c0.1-0.1,0.3-0.2,0.4-0.3c0.1,0,0.1-0.1,0.2-0.1&#10;&#9;&#9;&#9;&#9;&#9;&#9;c0,0,0.1-0.1,0.1-0.1c0.2-0.2,0.4-0.4,0.6-0.6c0.1-0.1,0.1-0.1,0.2-0.2c0.2-0.3,0.5-0.5,0.7-0.8c0,0,0,0,0,0&#10;&#9;&#9;&#9;&#9;&#9;&#9;c0.1-0.1,0.1-0.1,0.1-0.2c0.1-0.2,0.3-0.3,0.4-0.5c0.1-0.1,0.1-0.2,0.2-0.3c0.1-0.2,0.2-0.3,0.3-0.5c0,0,0.1-0.1,0.1-0.1&#10;&#9;&#9;&#9;&#9;&#9;&#9;c0-0.1,0.1-0.1,0.1-0.2c0.1-0.1,0.1-0.3,0.2-0.4c0.1-0.1,0.1-0.2,0.2-0.3c0.1-0.1,0.1-0.3,0.2-0.4c0-0.1,0.1-0.1,0.1-0.2&#10;&#9;&#9;&#9;&#9;&#9;&#9;c0-0.1,0-0.1,0.1-0.2c0-0.1,0.1-0.3,0.1-0.4c0-0.1,0.1-0.2,0.1-0.4c0-0.1,0.1-0.3,0.1-0.4c0-0.1,0-0.1,0.1-0.2c0,0,0-0.1,0-0.1&#10;&#9;&#9;&#9;&#9;&#9;&#9;c0-0.1,0-0.3,0.1-0.4c0-0.1,0-0.2,0-0.4c0-0.1,0-0.3,0-0.4c0-0.1,0-0.2,0-0.2c0-0.1,0-0.2,0-0.2l0-7.6&#10;&#9;&#9;&#9;&#9;&#9;&#9;C710.6,1051.4,710.6,1051.5,710.6,1051.7z"/>
					<g>
						<path fill="#FDD400" d="M702.6,1040c10.6,6.1,10.6,16,0.1,22.2s-27.7,6.1-38.3,0c-10.6-6.1-10.7-16-0.1-22.2&#10;&#9;&#9;&#9;&#9;&#9;&#9;&#9;C674.9,1033.9,692,1033.9,702.6,1040z"/>
					</g>
					<g>
						<path fill="#EC8659" d="M692.4,1049.5c2.3,1.3,2.7,3.4,0.2,5.5l2.7,1.5l-2.6,1.5l-2.5-1.4c-1.8,1-4,1.7-5.5,1.9l-2.3-2.2&#10;&#9;&#9;&#9;&#9;&#9;&#9;&#9;c1.7-0.3,3.7-0.9,5.4-1.8c1.5-0.9,1.9-1.8,0.9-2.4c-1-0.6-2.5-0.5-5,0.3c-3.7,1.1-6.9,1.4-9.5,0c-2.3-1.3-2.5-3.3-0.3-5.2&#10;&#9;&#9;&#9;&#9;&#9;&#9;&#9;l-2.5-1.4l2.6-1.5l2.3,1.3c1.8-1,3.4-1.4,4.6-1.7l2.2,2.2c-1,0.2-2.8,0.6-4.6,1.7c-1.7,1-1.5,1.7-0.8,2.1&#10;&#9;&#9;&#9;&#9;&#9;&#9;&#9;c0.9,0.5,2.3,0.3,5.4-0.5C687.4,1048,690.1,1048.1,692.4,1049.5z"/>
					</g>
				</g><g transform="matrix(1, 0, 0, 1, 5.684341886080802e-14, 2.842170943040401e-14)">
					<path fill="#EFC100" d="M759.4,1012.1c0,0.1,0,0.3,0,0.4c0,0.1,0,0.2,0,0.4c0,0.1,0,0.3-0.1,0.4c0,0.1,0,0.2-0.1,0.4&#10;&#9;&#9;&#9;&#9;&#9;&#9;c0,0.1-0.1,0.3-0.1,0.4c0,0.1-0.1,0.2-0.1,0.4c0,0.1-0.1,0.3-0.1,0.4c0,0.1-0.1,0.2-0.1,0.3c-0.1,0.1-0.1,0.3-0.2,0.4&#10;&#9;&#9;&#9;&#9;&#9;&#9;c-0.1,0.1-0.1,0.2-0.2,0.3c-0.1,0.1-0.1,0.3-0.2,0.4c-0.1,0.1-0.1,0.2-0.2,0.3c-0.1,0.2-0.2,0.3-0.3,0.5&#10;&#9;&#9;&#9;&#9;&#9;&#9;c-0.1,0.1-0.1,0.2-0.2,0.3c-0.1,0.2-0.2,0.3-0.4,0.5c-0.1,0.1-0.1,0.2-0.2,0.2c-0.2,0.3-0.5,0.5-0.7,0.8&#10;&#9;&#9;&#9;&#9;&#9;&#9;c-0.1,0.1-0.1,0.1-0.2,0.2c-0.2,0.2-0.4,0.4-0.6,0.6c-0.1,0.1-0.2,0.2-0.3,0.3c-0.1,0.1-0.3,0.2-0.4,0.3&#10;&#9;&#9;&#9;&#9;&#9;&#9;c-0.1,0.1-0.2,0.2-0.4,0.3c-0.1,0.1-0.3,0.2-0.4,0.3c-0.1,0.1-0.3,0.2-0.4,0.3c-0.1,0.1-0.3,0.2-0.5,0.3&#10;&#9;&#9;&#9;&#9;&#9;&#9;c-0.1,0.1-0.3,0.2-0.4,0.3c-0.2,0.1-0.3,0.2-0.5,0.3c-0.2,0.1-0.4,0.3-0.6,0.4c-0.6,0.3-1.2,0.7-1.8,1&#10;&#9;&#9;&#9;&#9;&#9;&#9;c-0.2,0.1-0.3,0.2-0.5,0.2c-0.6,0.3-1.1,0.5-1.7,0.7c-0.1,0-0.2,0.1-0.2,0.1c-0.6,0.2-1.3,0.5-1.9,0.7&#10;&#9;&#9;&#9;&#9;&#9;&#9;c-0.5,0.1-0.9,0.3-1.4,0.4c-0.4,0.1-0.7,0.2-1.1,0.3c-0.5,0.1-1,0.2-1.5,0.3c-0.4,0.1-0.7,0.2-1.1,0.2c-0.2,0-0.3,0-0.5,0.1&#10;&#9;&#9;&#9;&#9;&#9;&#9;c-0.6,0.1-1.2,0.2-1.9,0.3c-0.2,0-0.4,0-0.6,0.1c-0.4,0-0.7,0.1-1.1,0.1c-0.6,0.1-1.2,0.1-1.8,0.1c-0.4,0-0.8,0-1.2,0&#10;&#9;&#9;&#9;&#9;&#9;&#9;c-0.5,0-1,0-1.5,0c-0.4,0-0.8,0-1.2,0c-0.5,0-0.9,0-1.4-0.1c-0.4,0-0.8-0.1-1.3-0.1c-0.5,0-0.9-0.1-1.3-0.2&#10;&#9;&#9;&#9;&#9;&#9;&#9;c-0.4-0.1-0.8-0.1-1.2-0.2c-0.5-0.1-1-0.2-1.4-0.2c-0.4-0.1-0.8-0.1-1.1-0.2c-0.6-0.1-1.1-0.3-1.7-0.4&#10;&#9;&#9;&#9;&#9;&#9;&#9;c-0.4-0.1-0.7-0.2-1.1-0.3c-0.2-0.1-0.4-0.1-0.6-0.2c-0.6-0.2-1.1-0.4-1.6-0.6c-0.2-0.1-0.3-0.1-0.5-0.2&#10;&#9;&#9;&#9;&#9;&#9;&#9;c-0.5-0.2-1-0.4-1.4-0.6c-0.2-0.1-0.5-0.2-0.7-0.3c-0.7-0.3-1.3-0.7-2-1c-3.7-2.1-6.1-4.7-7.2-7.4c-0.5-1.2-0.8-2.5-0.8-3.8&#10;&#9;&#9;&#9;&#9;&#9;&#9;l0,7.6c0,4,2.7,8.1,8,11.2c0.6,0.4,1.3,0.7,2,1c0.2,0.1,0.5,0.2,0.7,0.3c0.4,0.2,0.8,0.4,1.2,0.5c0.1,0,0.1,0.1,0.2,0.1&#10;&#9;&#9;&#9;&#9;&#9;&#9;c0.2,0.1,0.3,0.1,0.5,0.2c0.5,0.2,1.1,0.4,1.6,0.6c0.2,0.1,0.4,0.1,0.6,0.2c0.1,0,0.3,0.1,0.4,0.1c0.2,0.1,0.5,0.1,0.7,0.2&#10;&#9;&#9;&#9;&#9;&#9;&#9;c0.6,0.1,1.1,0.3,1.7,0.4c0.2,0,0.3,0.1,0.4,0.1c0.2,0,0.5,0.1,0.7,0.1c0.5,0.1,1,0.2,1.4,0.2c0.2,0,0.4,0.1,0.6,0.1&#10;&#9;&#9;&#9;&#9;&#9;&#9;c0.2,0,0.4,0,0.6,0.1c0.4,0.1,0.9,0.1,1.3,0.2c0.2,0,0.4,0.1,0.6,0.1c0.2,0,0.4,0,0.6,0c0.5,0,0.9,0.1,1.4,0.1&#10;&#9;&#9;&#9;&#9;&#9;&#9;c0.2,0,0.5,0,0.7,0c0.2,0,0.4,0,0.6,0c0.5,0,1,0,1.5,0c0.2,0,0.5,0,0.7,0c0.1,0,0.3,0,0.4,0c0.6,0,1.2-0.1,1.8-0.1&#10;&#9;&#9;&#9;&#9;&#9;&#9;c0.2,0,0.5,0,0.7,0c0.1,0,0.2,0,0.4,0c0.2,0,0.4,0,0.5-0.1c0.6-0.1,1.3-0.2,1.9-0.3c0.2,0,0.3,0,0.5-0.1c0.1,0,0.1,0,0.2,0&#10;&#9;&#9;&#9;&#9;&#9;&#9;c0.3-0.1,0.6-0.1,0.9-0.2c0.5-0.1,1-0.2,1.5-0.3c0.4-0.1,0.7-0.2,1.1-0.3c0.5-0.1,0.9-0.3,1.4-0.4c0.1,0,0.2-0.1,0.3-0.1&#10;&#9;&#9;&#9;&#9;&#9;&#9;c0.6-0.2,1.1-0.4,1.6-0.6c0.1,0,0.2-0.1,0.2-0.1c0.6-0.2,1.2-0.5,1.7-0.7c0.2-0.1,0.3-0.2,0.5-0.2c0.6-0.3,1.2-0.6,1.8-1&#10;&#9;&#9;&#9;&#9;&#9;&#9;c0.1-0.1,0.2-0.1,0.3-0.2c0.1-0.1,0.2-0.1,0.3-0.2c0.2-0.1,0.3-0.2,0.5-0.3c0.1-0.1,0.3-0.2,0.4-0.3c0.2-0.1,0.3-0.2,0.5-0.3&#10;&#9;&#9;&#9;&#9;&#9;&#9;c0.1-0.1,0.3-0.2,0.4-0.3c0.1-0.1,0.3-0.2,0.4-0.3c0.1-0.1,0.3-0.2,0.4-0.3c0.1-0.1,0.3-0.2,0.4-0.3c0.1,0,0.1-0.1,0.2-0.1&#10;&#9;&#9;&#9;&#9;&#9;&#9;c0,0,0.1-0.1,0.1-0.1c0.2-0.2,0.4-0.4,0.6-0.6c0.1-0.1,0.1-0.1,0.2-0.2c0.2-0.3,0.5-0.5,0.7-0.8c0,0,0,0,0,0&#10;&#9;&#9;&#9;&#9;&#9;&#9;c0.1-0.1,0.1-0.1,0.1-0.2c0.1-0.2,0.3-0.3,0.4-0.5c0.1-0.1,0.1-0.2,0.2-0.3c0.1-0.2,0.2-0.3,0.3-0.5c0,0,0.1-0.1,0.1-0.1&#10;&#9;&#9;&#9;&#9;&#9;&#9;c0-0.1,0.1-0.1,0.1-0.2c0.1-0.1,0.1-0.3,0.2-0.4c0.1-0.1,0.1-0.2,0.2-0.3c0.1-0.1,0.1-0.3,0.2-0.4c0-0.1,0.1-0.1,0.1-0.2&#10;&#9;&#9;&#9;&#9;&#9;&#9;c0-0.1,0-0.1,0.1-0.2c0-0.1,0.1-0.3,0.1-0.4c0-0.1,0.1-0.2,0.1-0.4c0-0.1,0.1-0.3,0.1-0.4c0-0.1,0-0.1,0.1-0.2c0,0,0-0.1,0-0.1&#10;&#9;&#9;&#9;&#9;&#9;&#9;c0-0.1,0-0.3,0.1-0.4c0-0.1,0-0.2,0-0.4c0-0.1,0-0.3,0-0.4c0-0.1,0-0.2,0-0.2c0-0.1,0-0.2,0-0.2l0-7.6&#10;&#9;&#9;&#9;&#9;&#9;&#9;C759.4,1011.8,759.4,1011.9,759.4,1012.1z"/>
					<g>
						<path fill="#FDD400" d="M751.4,1000.5c10.6,6.1,10.6,16,0.1,22.2c-10.5,6.1-27.7,6.1-38.3,0c-10.6-6.1-10.7-16-0.1-22.2&#10;&#9;&#9;&#9;&#9;&#9;&#9;&#9;C723.7,994.3,740.8,994.3,751.4,1000.5z"/>
					</g>
					<g>
						<path fill="#EC8659" d="M741.2,1009.9c2.3,1.3,2.7,3.4,0.2,5.5l2.7,1.5l-2.6,1.5l-2.5-1.4c-1.8,1-4,1.7-5.5,1.9l-2.3-2.2&#10;&#9;&#9;&#9;&#9;&#9;&#9;&#9;c1.7-0.3,3.7-0.9,5.4-1.8c1.5-0.9,1.9-1.8,0.9-2.4c-1-0.6-2.5-0.5-5,0.3c-3.7,1.1-6.9,1.4-9.5,0c-2.3-1.3-2.5-3.3-0.3-5.2&#10;&#9;&#9;&#9;&#9;&#9;&#9;&#9;l-2.5-1.4l2.6-1.5l2.3,1.3c1.8-1,3.4-1.4,4.6-1.7l2.2,2.2c-1,0.2-2.8,0.6-4.6,1.7c-1.7,1-1.5,1.7-0.8,2.1&#10;&#9;&#9;&#9;&#9;&#9;&#9;&#9;c0.9,0.5,2.3,0.3,5.4-0.5C736.2,1008.5,738.8,1008.6,741.2,1009.9z"/>
					</g>
				</g><g transform="matrix(1, 0, 0, 1, 4.263256414560601e-14, 2.1316282072803006e-14)">
				<path d="M 970.2999877929688 963.0999755859375 L 960.7000122070312 968.7000122070312 L 960.5999755859375 997.4000244140625 L 970.2999877929688 991.7999877929688 Z" fill="#58BFBF"/>
				<path d="M 849 968.7000122070312 L 839.2999877929688 963.0999755859375 L 839.2000122070312 991.7999877929688 L 849 997.4000244140625 Z" fill="#58BFBF"/>
				<path fill="#58BFBF" d="M877,1017c0-0.1,0-0.2,0-0.4c0-0.1,0-0.3,0.1-0.4c0-0.1,0-0.2,0.1-0.4c0-0.1,0.1-0.3,0.1-0.4&#10;&#9;&#9;&#9;&#9;&#9;c0-0.1,0.1-0.2,0.1-0.4c0-0.1,0.1-0.3,0.1-0.4c0-0.1,0.1-0.2,0.1-0.4c0.1-0.1,0.1-0.3,0.2-0.4c0.1-0.1,0.1-0.2,0.2-0.4&#10;&#9;&#9;&#9;&#9;&#9;c0.1-0.1,0.1-0.3,0.2-0.4c0.1-0.1,0.1-0.2,0.2-0.3c0.1-0.2,0.2-0.3,0.3-0.5c0.1-0.1,0.1-0.2,0.2-0.3c0.1-0.2,0.3-0.4,0.4-0.5&#10;&#9;&#9;&#9;&#9;&#9;c0.1-0.1,0.1-0.2,0.2-0.2c0.2-0.3,0.5-0.6,0.7-0.8c0.1-0.1,0.1-0.1,0.2-0.2c0.2-0.2,0.4-0.4,0.6-0.6c0.1-0.1,0.2-0.2,0.3-0.3&#10;&#9;&#9;&#9;&#9;&#9;c0.1-0.1,0.3-0.2,0.4-0.4c0.1-0.1,0.3-0.2,0.4-0.3c0.1-0.1,0.3-0.2,0.4-0.3c0.1-0.1,0.3-0.2,0.4-0.3c0.2-0.1,0.3-0.2,0.5-0.3&#10;&#9;&#9;&#9;&#9;&#9;c0.1-0.1,0.3-0.2,0.4-0.3c0.2-0.1,0.3-0.2,0.5-0.3c0.2-0.1,0.4-0.3,0.6-0.4c0.4-0.2,0.8-0.5,1.3-0.7c0.1-0.1,0.3-0.1,0.4-0.2&#10;&#9;&#9;&#9;&#9;&#9;c0.3-0.2,0.7-0.3,1-0.5c0.1-0.1,0.2-0.1,0.4-0.2c0.5-0.2,0.9-0.4,1.4-0.6c0.1,0,0.2-0.1,0.3-0.1c0.4-0.1,0.8-0.3,1.2-0.4&#10;&#9;&#9;&#9;&#9;&#9;c0.2-0.1,0.3-0.1,0.5-0.2c0.2-0.1,0.5-0.1,0.7-0.2c0.2-0.1,0.4-0.1,0.6-0.2c0.2-0.1,0.5-0.1,0.7-0.2c0.2-0.1,0.4-0.1,0.6-0.1&#10;&#9;&#9;&#9;&#9;&#9;c0.2-0.1,0.5-0.1,0.7-0.2c0.2,0,0.4-0.1,0.6-0.1c0.2-0.1,0.5-0.1,0.7-0.1c0.2,0,0.4-0.1,0.6-0.1c0.5-0.1,1.1-0.2,1.6-0.3&#10;&#9;&#9;&#9;&#9;&#9;c0.1,0,0.1,0,0.2,0c0.5-0.1,0.9-0.1,1.4-0.2c0.2,0,0.4,0,0.5-0.1c0.3,0,0.6-0.1,0.9-0.1c0.2,0,0.4,0,0.6,0c0.3,0,0.6,0,0.9,0&#10;&#9;&#9;&#9;&#9;&#9;c0.2,0,0.4,0,0.5,0c0.3,0,0.5,0,0.8,0c0.2,0,0.4,0,0.6,0c0.3,0,0.6,0,0.9,0c0.2,0,0.3,0,0.5,0c0.9,0,1.8,0.1,2.7,0.1&#10;&#9;&#9;&#9;&#9;&#9;c0,0,0,0,0.1,0c0.9,0.1,1.8,0.2,2.7,0.3c0.1,0,0.1,0,0.2,0c0.4,0.1,0.8,0.1,1.1,0.2c0.2,0,0.3,0.1,0.5,0.1&#10;&#9;&#9;&#9;&#9;&#9;c0.3,0.1,0.6,0.1,0.9,0.2c0.2,0,0.3,0.1,0.4,0.1c0.3,0.1,0.6,0.1,0.9,0.2c0.2,0,0.3,0.1,0.5,0.1c0.3,0.1,0.6,0.1,0.8,0.2&#10;&#9;&#9;&#9;&#9;&#9;c0.2,0,0.3,0.1,0.5,0.1c0.4,0.1,0.9,0.3,1.3,0.4c0.1,0,0.2,0,0.2,0.1c0.5,0.2,1,0.4,1.5,0.5c0.1,0,0.2,0.1,0.3,0.1&#10;&#9;&#9;&#9;&#9;&#9;c0.6,0.3,1.3,0.5,1.9,0.8c0.1,0,0.1,0.1,0.2,0.1c0.6,0.3,1.2,0.6,1.8,1c5.5,3.2,8.3,7.4,8.3,11.5l0.1-28.7&#10;&#9;&#9;&#9;&#9;&#9;c0-4.2-2.7-8.4-8.3-11.5c-0.6-0.3-1.2-0.7-1.8-1c-0.1,0-0.1-0.1-0.2-0.1c-0.6-0.3-1.2-0.6-1.9-0.8c-0.1,0-0.1,0-0.2-0.1&#10;&#9;&#9;&#9;&#9;&#9;c0,0-0.1,0-0.1-0.1c-0.5-0.2-1-0.4-1.5-0.5c-0.1,0-0.2,0-0.2-0.1c-0.4-0.1-0.9-0.3-1.3-0.4c-0.1,0-0.1,0-0.2-0.1&#10;&#9;&#9;&#9;&#9;&#9;c-0.1,0-0.2,0-0.3-0.1c-0.3-0.1-0.6-0.2-0.8-0.2c-0.2,0-0.3-0.1-0.5-0.1c-0.3-0.1-0.6-0.1-0.9-0.2c-0.1,0-0.2-0.1-0.4-0.1&#10;&#9;&#9;&#9;&#9;&#9;c0,0-0.1,0-0.1,0c-0.3-0.1-0.6-0.1-0.9-0.2c-0.2,0-0.3-0.1-0.5-0.1c-0.4-0.1-0.7-0.1-1.1-0.2c-0.1,0-0.1,0-0.2,0c0,0,0,0,0,0&#10;&#9;&#9;&#9;&#9;&#9;c-0.9-0.1-1.8-0.2-2.7-0.3c0,0,0,0,0,0c0,0,0,0,0,0c-0.9-0.1-1.8-0.1-2.7-0.1c0,0,0,0,0,0c-0.1,0-0.3,0-0.4,0&#10;&#9;&#9;&#9;&#9;&#9;c-0.3,0-0.6,0-0.9,0c-0.2,0-0.4,0-0.6,0c-0.3,0-0.5,0-0.8,0c-0.1,0-0.1,0-0.2,0c-0.1,0-0.3,0-0.4,0c-0.3,0-0.6,0-0.9,0&#10;&#9;&#9;&#9;&#9;&#9;c-0.2,0-0.4,0-0.6,0c-0.3,0-0.6,0-0.9,0.1c-0.1,0-0.2,0-0.3,0c-0.1,0-0.1,0-0.2,0c-0.5,0-0.9,0.1-1.4,0.2c-0.1,0-0.1,0-0.2,0&#10;&#9;&#9;&#9;&#9;&#9;c-0.5,0.1-1.1,0.2-1.6,0.3c0,0-0.1,0-0.1,0c-0.1,0-0.3,0.1-0.4,0.1c-0.2,0-0.5,0.1-0.7,0.1c-0.2,0-0.4,0.1-0.6,0.1&#10;&#9;&#9;&#9;&#9;&#9;c-0.2,0.1-0.5,0.1-0.7,0.2c-0.2,0-0.4,0.1-0.6,0.1c-0.2,0.1-0.5,0.1-0.7,0.2c-0.2,0.1-0.4,0.1-0.6,0.2c-0.2,0.1-0.5,0.1-0.7,0.2&#10;&#9;&#9;&#9;&#9;&#9;c-0.1,0-0.2,0.1-0.3,0.1c-0.1,0-0.1,0-0.2,0.1c-0.2,0.1-0.5,0.2-0.7,0.2l0.1-23.6l0-7.9l-0.1,28.7l0,2.8&#10;&#9;&#9;&#9;&#9;&#9;c-0.2,0.1-0.3,0.1-0.5,0.2c-0.1,0-0.2,0.1-0.3,0.1c-0.5,0.2-0.9,0.4-1.4,0.6c-0.1,0.1-0.2,0.1-0.4,0.2c-0.4,0.2-0.7,0.3-1,0.5&#10;&#9;&#9;&#9;&#9;&#9;c-0.1,0.1-0.3,0.1-0.4,0.2c-0.4,0.2-0.9,0.5-1.3,0.7c-0.1,0.1-0.2,0.1-0.3,0.2c-0.1,0.1-0.2,0.1-0.3,0.2&#10;&#9;&#9;&#9;&#9;&#9;c-0.2,0.1-0.3,0.2-0.5,0.3c-0.2,0.1-0.3,0.2-0.4,0.3c-0.2,0.1-0.3,0.2-0.5,0.3c-0.1,0.1-0.3,0.2-0.4,0.3&#10;&#9;&#9;&#9;&#9;&#9;c-0.1,0.1-0.3,0.2-0.4,0.3c-0.1,0.1-0.3,0.2-0.4,0.3c-0.1,0.1-0.3,0.2-0.4,0.4c-0.1,0-0.1,0.1-0.2,0.1c0,0-0.1,0.1-0.1,0.1&#10;&#9;&#9;&#9;&#9;&#9;c-0.2,0.2-0.4,0.4-0.6,0.6c-0.1,0.1-0.1,0.1-0.2,0.2c-0.3,0.3-0.5,0.6-0.7,0.8c0,0,0,0,0,0c-0.1,0.1-0.1,0.1-0.1,0.2&#10;&#9;&#9;&#9;&#9;&#9;c-0.1,0.2-0.3,0.4-0.4,0.5c-0.1,0.1-0.1,0.2-0.2,0.3c-0.1,0.2-0.2,0.3-0.3,0.5c0,0-0.1,0.1-0.1,0.1c0,0.1-0.1,0.1-0.1,0.2&#10;&#9;&#9;&#9;&#9;&#9;c-0.1,0.1-0.1,0.3-0.2,0.4c-0.1,0.1-0.1,0.2-0.2,0.4c-0.1,0.1-0.1,0.3-0.2,0.4c0,0.1-0.1,0.1-0.1,0.2c0,0.1,0,0.1-0.1,0.2&#10;&#9;&#9;&#9;&#9;&#9;c0,0.1-0.1,0.3-0.1,0.4c0,0.1-0.1,0.2-0.1,0.4c0,0.1-0.1,0.3-0.1,0.4c0,0.1,0,0.1-0.1,0.2c0,0,0,0.1,0,0.1c0,0.1,0,0.3-0.1,0.4&#10;&#9;&#9;&#9;&#9;&#9;c0,0.1,0,0.2,0,0.4c0,0.1,0,0.3,0,0.4c0,0.1,0,0.2,0,0.2c0,0.1,0,0.2,0,0.2l-0.1,28.7c0-0.2,0-0.3,0-0.5&#10;&#9;&#9;&#9;&#9;&#9;C876.9,1017.3,877,1017.2,877,1017z"/>
				<path fill="#58BFBF" d="M983.3,997.6l-13.7,0c-0.2,0.5-0.4,1-0.6,1.5c0,0.1-0.1,0.2-0.1,0.2c-0.2,0.5-0.4,0.9-0.7,1.4&#10;&#9;&#9;&#9;&#9;&#9;c0,0.1-0.1,0.2-0.1,0.3c-0.3,0.5-0.5,0.9-0.8,1.4c0,0,0,0,0,0.1c-0.3,0.5-0.6,0.9-0.9,1.3c-0.1,0.1-0.1,0.2-0.2,0.3&#10;&#9;&#9;&#9;&#9;&#9;c-0.3,0.4-0.6,0.9-1,1.3c-0.1,0.1-0.2,0.2-0.2,0.3c-0.3,0.4-0.6,0.7-0.9,1.1c-0.1,0.1-0.2,0.3-0.4,0.4c-0.3,0.4-0.7,0.7-1,1.1&#10;&#9;&#9;&#9;&#9;&#9;c-0.1,0.1-0.2,0.2-0.3,0.3c-0.5,0.5-0.9,0.9-1.4,1.4l0,11.3l-10.5,6.1l-9.7-5.6c-1,0.4-2.1,0.7-3.2,1.1c-0.3,0.1-0.7,0.2-1,0.3&#10;&#9;&#9;&#9;&#9;&#9;c-0.6,0.2-1.1,0.4-1.7,0.5c-0.4,0.1-0.7,0.2-1.1,0.3c-0.6,0.2-1.2,0.3-1.8,0.5c-0.4,0.1-0.7,0.2-1.1,0.3&#10;&#9;&#9;&#9;&#9;&#9;c-0.7,0.2-1.4,0.3-2.1,0.5c-0.3,0.1-0.5,0.1-0.8,0.2c-1,0.2-2,0.4-2.9,0.6c-0.6,0.1-1.2,0.2-1.8,0.3c-0.3,0-0.6,0.1-0.9,0.2&#10;&#9;&#9;&#9;&#9;&#9;c-0.9,0.1-1.8,0.3-2.7,0.4l0,7.9l-28.6,0l0-7.9c-0.7-0.1-1.4-0.2-2-0.3c-0.7-0.1-1.3-0.2-2-0.3c-0.4-0.1-0.7-0.1-1.1-0.2&#10;&#9;&#9;&#9;&#9;&#9;c-0.8-0.1-1.5-0.3-2.3-0.4c-0.2,0-0.5-0.1-0.7-0.1c-1.1-0.2-2.1-0.5-3.2-0.7c-0.3-0.1-0.6-0.1-0.8-0.2c-0.8-0.2-1.5-0.4-2.3-0.6&#10;&#9;&#9;&#9;&#9;&#9;c-0.3-0.1-0.7-0.2-1-0.3c-0.7-0.2-1.4-0.4-2.1-0.6c-0.3-0.1-0.6-0.2-0.9-0.3c-1-0.3-1.9-0.6-2.9-1l-9.6,5.6l-10.7-6.2l0-11.2&#10;&#9;&#9;&#9;&#9;&#9;c-3.2-2.9-5.6-5.9-7.4-9.1c-0.6-1.1-1.1-2.1-1.5-3.2h0l0,0l0,0l-13.7,0l-0.1-16.6l-0.1,28.7l0.1,16.6l13,0l-0.1,17.9l20.3,11.7&#10;&#9;&#9;&#9;&#9;&#9;l9.6-5.6c0.9,0.3,1.9,0.7,2.9,1c0.3,0.1,0.6,0.2,0.9,0.3c0.7,0.2,1.4,0.4,2,0.6c0.2,0,0.3,0.1,0.5,0.2c0.2,0,0.3,0.1,0.5,0.1&#10;&#9;&#9;&#9;&#9;&#9;c0.8,0.2,1.5,0.4,2.3,0.6c0.3,0.1,0.6,0.1,0.8,0.2c1,0.3,2.1,0.5,3.2,0.7c0,0,0.1,0,0.1,0c0.2,0,0.4,0.1,0.6,0.1&#10;&#9;&#9;&#9;&#9;&#9;c0.8,0.2,1.5,0.3,2.3,0.4c0.4,0.1,0.7,0.1,1.1,0.2c0.7,0.1,1.3,0.2,2,0.3c0.2,0,0.4,0.1,0.5,0.1c0.5,0.1,1,0.1,1.5,0.2l0,7.9&#10;&#9;&#9;&#9;&#9;&#9;l28.7,0l0-7.9c0.9-0.1,1.8-0.2,2.7-0.4c0.3,0,0.6-0.1,0.9-0.2c0.6-0.1,1.2-0.2,1.7-0.3c0,0,0,0,0.1,0c1-0.2,2-0.4,2.9-0.6&#10;&#9;&#9;&#9;&#9;&#9;c0.3-0.1,0.5-0.1,0.8-0.2c0.7-0.2,1.4-0.3,2.1-0.5c0.4-0.1,0.7-0.2,1.1-0.3c0.6-0.2,1.2-0.3,1.8-0.5c0.4-0.1,0.7-0.2,1.1-0.3&#10;&#9;&#9;&#9;&#9;&#9;c0.6-0.2,1.2-0.3,1.7-0.5c0.2-0.1,0.4-0.1,0.6-0.2c0.1,0,0.3-0.1,0.4-0.1c1.1-0.4,2.1-0.7,3.2-1.1l9.7,5.6l20.2-11.7l0.1-17.9&#10;&#9;&#9;&#9;&#9;&#9;l12.7,0L983.3,997.6z"/>
			</g><path fill="#77D9DC" d="M969.6,997.6l13.7,0l-0.1-16.6l-13.7,0c-1.7-4.3-4.6-8.5-8.9-12.3l9.6-5.6L950,951.4l-9.6,5.6&#10;&#9;&#9;&#9;&#9;c-6.6-2.4-13.8-4.1-21.3-5.1l0-7.9l-28.7,0l0,7.9c-7.4,0.9-14.6,2.6-21.2,5.1l-9.7-5.6l-20.2,11.7l9.7,5.6&#10;&#9;&#9;&#9;&#9;c-4.2,3.8-7.1,8-8.7,12.3l-13.7,0l0.1,16.6l13.7,0c1.7,4.3,4.6,8.5,8.9,12.3l-9.6,5.6l20.3,11.7l9.6-5.6&#10;&#9;&#9;&#9;&#9;c6.6,2.4,13.8,4.1,21.3,5.1l0,7.9l28.7,0l0-7.9c7.4-0.9,14.6-2.6,21.2-5.1l9.7,5.6l20.2-11.7l-9.7-5.6&#10;&#9;&#9;&#9;&#9;C965.1,1006.1,968,1001.9,969.6,997.6z M924.8,1000.8c-10.9,6.3-28.6,6.3-39.6,0c-11-6.3-11-16.6-0.1-22.9&#10;&#9;&#9;&#9;&#9;c10.9-6.3,28.6-6.3,39.6,0C935.7,984.2,935.7,994.5,924.8,1000.8z" transform="matrix(1, 0, 0, 1, 4.263256414560601e-14, 2.1316282072803006e-14)"/><path d="M 691.9000244140625 773.2999877929688 L 692.4000244140625 920.0999755859375 L 881.2000122070312 811 L 880.7999877929688 664.2999877929688 Z" fill="#E8F9FF" transform="matrix(1, 0, 0, 1, 4.263256414560601e-14, 2.1316282072803006e-14)"/><path d="M 880.9000244140625 705 L 692.0999755859375 814.0999755859375 L 691.9000244140625 773.2999877929688 L 880.7999877929688 664.2999877929688 Z" fill="#73D9FE" transform="matrix(1, 0, 0, 1, 2.842170943040401e-14, 1.4210854715202004e-14)"/><path d="M 793.4000244140625 783.9000244140625 L 793.4000244140625 790.7000122070312 L 712.7999877929688 837.2999877929688 L 712.7999877929688 830.5 Z" fill="#DCDCDB" transform="matrix(1, 0, 0, 1, 4.263256414560601e-14, 2.1316282072803006e-14)"/><path d="M 793.4000244140625 799.2999877929688 L 793.4000244140625 806.2000122070312 L 712.7999877929688 852.7000122070312 L 712.7999877929688 845.9000244140625 Z" fill="#DCDCDB" transform="matrix(1, 0, 0, 1, 4.263256414560601e-14, 2.1316282072803006e-14)"/><path d="M 793.4000244140625 814.7000122070312 L 793.4000244140625 821.5999755859375 L 712.7999877929688 868.0999755859375 L 712.7999877929688 861.2999877929688 Z" fill="#DCDCDB" transform="matrix(1, 0, 0, 1, 4.263256414560601e-14, 2.1316282072803006e-14)"/><path d="M 793.4000244140625 830.2000122070312 L 793.4000244140625 837 L 712.7999877929688 883.5 L 712.7999877929688 876.7000122070312 Z" fill="#DCDCDB" transform="matrix(1, 0, 0, 1, 4.263256414560601e-14, 2.1316282072803006e-14)"/><g transform="matrix(1, 0, 0, 1, 4.263256414560601e-14, 2.1316282072803006e-14)">
				<path d="M 829.2000122070312 778.5 L 829.4000244140625 815.0999755859375 L 822.7000122070312 818.9000244140625 L 822.5 782.2999877929688 Z" fill="#FA6B5C"/>
			</g><path d="M 840.5999755859375 744.7999877929688 L 840.7999877929688 808.4000244140625 L 834.5 812.0999755859375 L 834.2999877929688 748.4000244140625 Z" fill="#FED22C" transform="matrix(1, 0, 0, 1, 5.684341886080802e-14, 2.842170943040401e-14)"/><path d="M 854.5999755859375 746.4000244140625 L 854.7999877929688 800.4000244140625 L 847.4000244140625 804.5999755859375 L 847.2000122070312 750.7000122070312 Z" fill="#EFA6FF" transform="matrix(1, 0, 0, 1, 5.684341886080802e-14, 2.842170943040401e-14)"/><path d="M 865.7000122070312 774.2999877929688 L 865.7000122070312 794 L 859 797.9000244140625 L 859 778.0999755859375 Z" fill="#4367C7" transform="matrix(1, 0, 0, 1, 5.684341886080802e-14, 2.842170943040401e-14)"/><g enable-background="new    " transform="matrix(1, 0, 0, 1, 4.263256414560601e-14, 2.1316282072803006e-14)">
				<g>
					<path d="M 1054.0999755859375 316.29998779296875 L 1053.4000244140625 531.9000244140625 L 758.7999877929688 361.79998779296875 L 759.4000244140625 146.1999969482422 Z" fill="#F7F8F8"/>
				</g>
				<g>
					<path d="M 1054.0999755859375 316.29998779296875 L 1064.199951171875 310.3999938964844 L 1063.5999755859375 526 L 1053.4000244140625 531.9000244140625 Z" fill="#FEDB59"/>
				</g>
				<g>
					<path d="M 759.4000244140625 146.1999969482422 L 769.5999755859375 140.3000030517578 L 1064.199951171875 310.3999938964844 L 1054.0999755859375 316.29998779296875 Z" fill="#FEDB59"/>
				</g>
			</g><g enable-background="new    " transform="matrix(1, 0, 0, 1, 4.263256414560601e-14, 2.1316282072803006e-14)">
				<g>
					<path d="M 838.2999877929688 353.5 L 838.2000122070312 380 L 820.0999755859375 369.5 L 820.0999755859375 343.1000061035156 Z" fill="#91B9FF"/>
				</g>
				<g>
					<path d="M 845.7999877929688 384.3999938964844 L 845.9000244140625 347.29998779296875 L 864 357.70001220703125 L 863.9000244140625 394.8999938964844 Z" fill="#91B9FF"/>
				</g>
				<g>
					<path d="M 845.9000244140625 327.3999938964844 L 864.0999755859375 337.8999938964844 L 864 355.20001220703125 L 845.9000244140625 344.70001220703125 Z" fill="#91B9FF"/>
				</g>
				<g>
					<path d="M 889.7000122070312 392.20001220703125 L 889.5999755859375 409.70001220703125 L 871.5 399.20001220703125 L 871.5999755859375 381.70001220703125 Z" fill="#91B9FF"/>
				</g>
				<g>
					<path d="M 897.2000122070312 414.1000061035156 L 897.2999877929688 376.8999938964844 L 915.4000244140625 387.3999938964844 L 915.2999877929688 424.5 Z" fill="#91B9FF"/>
				</g>
				<g>
					<path d="M 897.4000244140625 348 L 915.5 358.5 L 915.4000244140625 384.79998779296875 L 897.2999877929688 374.3999938964844 Z" fill="#91B9FF"/>
				</g>
				<g>
					<path d="M 922.9000244140625 428.8999938964844 L 923 391.79998779296875 L 941.0999755859375 402.29998779296875 L 941 439.3999938964844 Z" fill="#91B9FF"/>
				</g>
				<g>
					<path d="M 948.5999755859375 443.79998779296875 L 948.7000122070312 406.6000061035156 L 966.9000244140625 417.1000061035156 L 966.7000122070312 454.20001220703125 Z" fill="#91B9FF"/>
				</g>
				<g>
					<path d="M 923 389.20001220703125 L 923.0999755859375 352.1000061035156 L 941.2999877929688 362.5 L 941.2000122070312 399.70001220703125 Z" fill="#91B9FF"/>
				</g>
				<g>
					<path d="M 1018.7999877929688 484.29998779296875 L 1018.7999877929688 486.8999938964844 L 793.7000122070312 356.8999938964844 L 793.7000122070312 354.29998779296875 L 820.0999755859375 369.5 L 838.2000122070312 380 L 845.7999877929688 384.3999938964844 L 863.9000244140625 394.8999938964844 L 871.5 399.20001220703125 L 889.5999755859375 409.70001220703125 L 897.2000122070312 414.1000061035156 L 915.2999877929688 424.5 L 922.9000244140625 428.8999938964844 L 941 439.3999938964844 L 948.5999755859375 443.79998779296875 L 966.7000122070312 454.20001220703125 L 974.2999877929688 458.6000061035156 L 992.5 469.1000061035156 Z" fill="#91B9FF"/>
				</g>
				<g>
					<path d="M 948.7999877929688 383.8999938964844 L 966.9000244140625 394.3999938964844 L 966.9000244140625 414.5 L 948.7000122070312 404 Z" fill="#91B9FF"/>
				</g>
				<g>
					<path d="M 923.2000122070312 334.6000061035156 L 941.2999877929688 345.1000061035156 L 941.2999877929688 360 L 923.0999755859375 349.5 Z" fill="#91B9FF"/>
				</g>
				<g>
					<path d="M 974.2999877929688 458.6000061035156 L 974.4000244140625 421.5 L 992.5999755859375 431.8999938964844 L 992.5 469.1000061035156 Z" fill="#91B9FF"/>
				</g>
				<g>
					<path d="M 974.4000244140625 394 L 992.5999755859375 404.5 L 992.5999755859375 429.3999938964844 L 974.4000244140625 418.8999938964844 Z" fill="#91B9FF"/>
				</g>
				<g>
					<path d="M 1018.9000244140625 444.6000061035156 L 1018.9000244140625 447.1000061035156 L 992.5999755859375 431.8999938964844 L 974.4000244140625 421.5 L 966.9000244140625 417.1000061035156 L 948.7000122070312 406.6000061035156 L 941.0999755859375 402.29998779296875 L 923 391.79998779296875 L 915.4000244140625 387.3999938964844 L 897.2999877929688 376.8999938964844 L 864 357.70001220703125 L 845.9000244140625 347.29998779296875 L 793.7999877929688 317.20001220703125 L 793.9000244140625 314.6000061035156 L 845.9000244140625 344.70001220703125 L 864 355.20001220703125 L 897.2999877929688 374.3999938964844 L 915.4000244140625 384.79998779296875 L 923 389.20001220703125 L 941.2000122070312 399.70001220703125 L 948.7000122070312 404 L 966.9000244140625 414.5 L 974.4000244140625 418.8999938964844 L 992.5999755859375 429.3999938964844 Z" fill="#91B9FF"/>
				</g>
				<g>
					<path d="M 933.4000244140625 282.1000061035156 L 933.4000244140625 287.20001220703125 L 882.5 257.79998779296875 L 882.5 252.6999969482422 Z" fill="#91B9FF"/>
				</g>
				<g>
					<path d="M 949 301.79998779296875 L 949 306.8999938964844 L 882.4000244140625 268.5 L 882.5 263.3999938964844 Z" fill="#91B9FF"/>
				</g>
				<g>
					<path d="M 1019 404.79998779296875 L 1019 407.3999938964844 L 941.2999877929688 362.5 L 923.0999755859375 352.1000061035156 L 794 277.5 L 794 274.8999938964844 L 923.0999755859375 349.5 L 941.2999877929688 360 Z" fill="#91B9FF"/>
				</g>
				<g>
					<path d="M 1019.0999755859375 365.1000061035156 L 1019.0999755859375 367.70001220703125 L 794.0999755859375 237.8000030517578 L 794.0999755859375 235.1999969482422 Z" fill="#91B9FF"/>
				</g>
			</g><path d="M 845.0999755859375 231.10000610351562 L 845.0999755859375 236.1999969482422 L 794.2000122070312 206.8000030517578 L 794.2000122070312 201.6999969482422 Z" fill="#91B9FF" transform="matrix(1, 0, 0, 1, 5.684341886080802e-14, 2.842170943040401e-14)"/><path d="M 860.7000122070312 250.89999389648438 L 860.7000122070312 255.89999389648438 L 794.0999755859375 217.5 L 794.0999755859375 212.39999389648438 Z" fill="#91B9FF" transform="matrix(1, 0, 0, 1, 5.684341886080802e-14, 2.842170943040401e-14)"/><path d="M 823.7999877929688 208.3000030517578 L 823.7999877929688 213.5 L 794.2000122070312 196.5 L 794.2000122070312 191.1999969482422 Z" fill="#91B9FF" transform="matrix(1, 0, 0, 1, 5.684341886080802e-14, 2.842170943040401e-14)"/><path d="M 912.0999755859375 259.29998779296875 L 912.0999755859375 264.5 L 882.5 247.39999389648438 L 882.5 242.1999969482422 Z" fill="#91B9FF" transform="matrix(1, 0, 0, 1, 5.684341886080802e-14, 2.842170943040401e-14)"/><path fill="#F0C7AD" d="M645.5,325.3c0,0-12.9-8.6-24.2-20.7c0,0-7.6-0.5-12.3-3.9c-4.6-3.5-4.6-3.7-5.3-5.3&#10;&#9;&#9;&#9;&#9;c-0.7-1.6-1.9-5.8-1.9-5.8s-5.6-1.9-7.2-4.4c-1.6-2.5,3-2.3,6.5-0.9c3.5,1.4,11.6,5.6,11.6,5.6s9.3,3.7,12,5.6&#10;&#9;&#9;&#9;&#9;c2.8,1.9,26.4,14.8,26.4,14.8L645.5,325.3z" transform="matrix(1, 0, 0, 1, 4.263256414560601e-14, 2.1316282072803006e-14)"/><path fill="#FEFBF0" d="M677.9,470.6c0,0-10.1-1-16.1-1.6c0,0-5-0.8-5.4,3.8c-0.3,4.7,2.6,8.1,10.7,12.2l10.7,4.7&#10;&#9;&#9;&#9;&#9;c0,0,4.1,2.8,7.8,2.8c3.8,0,6.6-1.3,6.9-4.1v-24.2L677.9,470.6z" transform="matrix(1, 0, 0, 1, 4.263256414560601e-14, 2.1316282072803006e-14)"/><path fill="#FEFBF0" d="M698.2,456.4c0,0-10.1-1-16.1-1.6c0,0-5-0.8-5.4,3.8c-0.3,4.7,2.6,8.1,10.7,12.2l10.7,4.7&#10;&#9;&#9;&#9;&#9;c0,0,4.1,2.8,7.8,2.8s6.6-1.3,6.9-4.1v-24.2L698.2,456.4z" transform="matrix(1, 0, 0, 1, 4.263256414560601e-14, 2.1316282072803006e-14)"/><path fill="#FEDB59" d="M667.2,355.1l-3.1-0.6c0,0-0.9,21.4,1.6,37.1c2.5,15.7,4.1,30.2,7.9,48.2c3.8,17.9,1.9,33,1.9,33&#10;&#9;&#9;&#9;&#9;s-0.3,6,6,7.9c6.3,1.9,11.3-4.1,11.3-4.1s-0.9-49.4-1.3-55.7c-0.3-6.3-3.5-17-3.5-17s4.4,8.8,6,18.3v39.7c0,0,0.6,5,8.5,6&#10;&#9;&#9;&#9;&#9;c7.9,0.9,10.5-6.3,10.5-6.3v-33.7c0,0-1.2-10.8-2.5-20.6c-1.1-8.2-1.1-16.6,0.1-24.8c1.6-11.2,3.5-27.2,2.4-36.4&#10;&#9;&#9;&#9;&#9;C711.3,345.6,667.2,355.1,667.2,355.1z" transform="matrix(1, 0, 0, 1, 4.263256414560601e-14, 2.1316282072803006e-14)"/><path fill="#F0C7AD" d="M670.7,240.8v12c0,0-1.3,11,5.7,11v9.4h17.3v-10.4l-14.8-24.5l-8.3-2.2L670.7,240.8z" transform="matrix(1, 0, 0, 1, 4.263256414560601e-14, 2.1316282072803006e-14)"/><path fill="#713D22" d="M670.7,240.8c0,0,0.9,0,2.2,1.9c1.3,1.9,2.2,5.7,2.2,5.7s1.9-0.3,2.8,2.5c0.9,2.8,0.9,2.8,0.9,2.8&#10;&#9;&#9;&#9;&#9;s5.4,1.6,6.9,5c1.6,3.5,4.1,4.7,7.9,4.1c0,0,3.8-0.6,6.3-6.6c2.5-6,4.1-14.8-1.6-21.4c-5.7-6.6-9.1-7.6-18.3-7.6&#10;&#9;&#9;&#9;&#9;C671,227.3,667.5,237.1,670.7,240.8z" transform="matrix(1, 0, 0, 1, 4.263256414560601e-14, 2.1316282072803006e-14)"/><path fill="#4B4B4B" d="M682.1,270.7c0,0-7.4,1.9-17.7,10.7c-10.4,8.8-18.9,28.6-18.9,28.6s-4.1,7.9-1.9,12.6c0,0,2.5,4.7,6,4.7&#10;&#9;&#9;&#9;&#9;s10.8-8.2,12.9-11c2.2-2.8,3.7-4.7,3.7-4.7s0.6,9.4,0,15.7c-0.6,6.3-2.2,27.1-2.2,27.1s0.1,14.2,6.5,20.1c6.4,6,16.8,0.3,25-3.1&#10;&#9;&#9;&#9;&#9;c8.2-3.5,13.8-9.1,15.7-12.3c1.9-3.1,2.5-18.9,0-27.7c-2.5-8.8-4.4-19.5-2.5-29.3c1.9-9.8,6.3-21.4,1.9-31.5&#10;&#9;&#9;&#9;&#9;S694.1,264.5,682.1,270.7z" transform="matrix(1, 0, 0, 1, 4.263256414560601e-14, 2.1316282072803006e-14)"/><path d="M 853.2999877929688 618.9000244140625 L 769.5 667.7000122070312 L 685.0999755859375 618.9000244140625 L 768.9000244140625 570.2000122070312 Z" fill="#CBAF46" transform="matrix(1, 0, 0, 1, 4.263256414560601e-14, 2.1316282072803006e-14)"/><path d="M 853.2999877929688 618.9000244140625 L 852.5 642.2999877929688 L 768.7000122070312 691.0999755859375 L 769.5 667.7000122070312 Z" fill="#FEDB59" transform="matrix(1, 0, 0, 1, 4.263256414560601e-14, 2.1316282072803006e-14)"/><path d="M 769.5 667.7000122070312 L 768.7000122070312 691.0999755859375 L 684.2999877929688 642.2999877929688 L 685.0999755859375 618.9000244140625 Z" fill="#B89030" transform="matrix(1, 0, 0, 1, 4.263256414560601e-14, 2.1316282072803006e-14)"/><path fill="#E8F9FF" d="M774,610.3c3.6,2.1,9.3,2.1,12.9,0c3.5-2.1,3.5-5.4,0-7.5c-3.6-2.1-9.3-2.1-12.9,0&#10;&#9;&#9;&#9;C770.4,604.9,770.4,608.2,774,610.3z" transform="matrix(1, 0, 0, 1, 2.842170943040401e-14, 1.4210854715202004e-14)"/><path d="M 791.2000122070312 644.9000244140625 L 805.2000122070312 636.7000122070312 L 803.5 619.9000244140625 L 758.5999755859375 619.9000244140625 L 758.9000244140625 601.5999755859375 L 730.2000122070312 601.2000122070312 L 700.5 618.4000244140625 L 768.9000244140625 657.7999877929688 L 791.2000122070312 644.9000244140625 Z" fill="#E8F9FF" transform="matrix(1, 0, 0, 1, 2.842170943040401e-14, 1.4210854715202004e-14)"/><path d="M 838.2999877929688 1124.0999755859375 L 771.7999877929688 1162.800048828125 L 704.9000244140625 1124.0999755859375 L 771.4000244140625 1085.5 Z" fill="#91B9FF" transform="matrix(1, 0, 0, 1, 2.842170943040401e-14, 1.4210854715202004e-14)"/><path d="M 838.2999877929688 1124.0999755859375 L 837.7000122070312 1143.4000244140625 L 771.2000122070312 1182.0999755859375 L 771.7999877929688 1162.800048828125 Z" fill="#5678B5" transform="matrix(1, 0, 0, 1, 2.842170943040401e-14, 1.4210854715202004e-14)"/><path d="M 771.7999877929688 1162.800048828125 L 771.2000122070312 1182.0999755859375 L 704.2999877929688 1143.4000244140625 L 704.9000244140625 1124.0999755859375 Z" fill="#668ED6" transform="matrix(1, 0, 0, 1, 2.842170943040401e-14, 1.4210854715202004e-14)"/><path d="M 901.2999877929688 1108.699951171875 L 834.9000244140625 1147.300048828125 L 768 1108.699951171875 L 834.4000244140625 1070.0999755859375 Z" fill="#FEDB59" transform="matrix(1, 0, 0, 1, 2.842170943040401e-14, 1.4210854715202004e-14)"/><path d="M 901.2999877929688 1108.699951171875 L 900.7000122070312 1128 L 834.2000122070312 1166.5999755859375 L 834.9000244140625 1147.300048828125 Z" fill="#B89030" transform="matrix(1, 0, 0, 1, 2.842170943040401e-14, 1.4210854715202004e-14)"/><path d="M 834.9000244140625 1147.300048828125 L 834.2000122070312 1166.5999755859375 L 767.2999877929688 1128 L 768 1108.699951171875 Z" fill="#CBAF46" transform="matrix(1, 0, 0, 1, 2.842170943040401e-14, 1.4210854715202004e-14)"/>
</svg>